<svg xmlns="http://www.w3.org/2000/svg" width="1200" height="660" viewBox="0 0 1200 660">
<rect width="1200" height="660" fill="#eedea0"/>
<rect x="3.0" y="3.0" width="294.0" height="214.0" rx="3" fill="#6a4010"/>
<clipPath id="cl0"><rect x="3.0" y="3.0" width="294.0" height="214.0" rx="3"/></clipPath>
<g clip-path="url(#cl0)">
<path d="M153.28,102.16 C150.00,107.66 142.36,110.02 132.96,105.70 C139.08,111.59 145.63,108.49 135.80,103.52 C127.07,107.13 125.54,104.42 127.72,103.73 C126.41,102.16 127.72,103.73 127.72,100.59 C125.54,99.90 127.07,97.19 135.80,100.80 C145.63,95.83 139.08,92.73 132.96,98.62 C142.36,94.30 150.00,96.66 153.28,102.16 Z" fill="#eedea0"/>
<path d="M157.84,113.28 C152.34,110.00 149.98,102.36 154.30,92.96 C148.41,99.08 151.51,105.63 156.48,95.80 C152.87,87.07 155.58,85.54 156.27,87.72 C157.84,86.41 156.27,87.72 159.41,87.72 C160.10,85.54 162.81,87.07 159.20,95.80 C164.17,105.63 167.27,99.08 161.38,92.96 C165.70,102.36 163.34,110.00 157.84,113.28 Z" fill="#eedea0"/>
<path d="M146.72,117.84 C150.00,112.34 157.64,109.98 167.04,114.30 C160.92,108.41 154.37,111.51 164.20,116.48 C172.93,112.87 174.46,115.58 172.28,116.27 C173.59,117.84 172.28,116.27 172.28,119.41 C174.46,120.10 172.93,122.81 164.20,119.20 C154.37,124.17 160.92,127.27 167.04,121.38 C157.64,125.70 150.00,123.34 146.72,117.84 Z" fill="#eedea0"/>
<path d="M142.16,106.72 C147.66,110.00 150.02,117.64 145.70,127.04 C151.59,120.92 148.49,114.37 143.52,124.20 C147.13,132.93 144.42,134.46 143.73,132.28 C142.16,133.59 143.73,132.28 140.59,132.28 C139.90,134.46 137.19,132.93 140.80,124.20 C135.83,114.37 132.73,120.92 138.62,127.04 C134.30,117.64 136.66,110.00 142.16,106.72 Z" fill="#eedea0"/>
<rect x="8.0" y="8.0" width="284.0" height="204.0" rx="2" fill="none" stroke="#eedea0" stroke-width="1" opacity="0.5"/>
</g>
<rect x="303.0" y="3.0" width="294.0" height="214.0" rx="3" fill="#6a4010"/>
<clipPath id="cl1"><rect x="303.0" y="3.0" width="294.0" height="214.0" rx="3"/></clipPath>
<g clip-path="url(#cl1)">
<path d="M453.28,102.16 C450.00,107.66 442.36,110.02 432.96,105.70 C439.08,111.59 445.63,108.49 435.80,103.52 C427.07,107.13 425.54,104.42 427.72,103.73 C426.41,102.16 427.72,103.73 427.72,100.59 C425.54,99.90 427.07,97.19 435.80,100.80 C445.63,95.83 439.08,92.73 432.96,98.62 C442.36,94.30 450.00,96.66 453.28,102.16 Z" fill="#eedea0"/>
<path d="M457.84,113.28 C452.34,110.00 449.98,102.36 454.30,92.96 C448.41,99.08 451.51,105.63 456.48,95.80 C452.87,87.07 455.58,85.54 456.27,87.72 C457.84,86.41 456.27,87.72 459.41,87.72 C460.10,85.54 462.81,87.07 459.20,95.80 C464.17,105.63 467.27,99.08 461.38,92.96 C465.70,102.36 463.34,110.00 457.84,113.28 Z" fill="#eedea0"/>
<path d="M446.72,117.84 C450.00,112.34 457.64,109.98 467.04,114.30 C460.92,108.41 454.37,111.51 464.20,116.48 C472.93,112.87 474.46,115.58 472.28,116.27 C473.59,117.84 472.28,116.27 472.28,119.41 C474.46,120.10 472.93,122.81 464.20,119.20 C454.37,124.17 460.92,127.27 467.04,121.38 C457.64,125.70 450.00,123.34 446.72,117.84 Z" fill="#eedea0"/>
<path d="M442.16,106.72 C447.66,110.00 450.02,117.64 445.70,127.04 C451.59,120.92 448.49,114.37 443.52,124.20 C447.13,132.93 444.42,134.46 443.73,132.28 C442.16,133.59 443.73,132.28 440.59,132.28 C439.90,134.46 437.19,132.93 440.80,124.20 C435.83,114.37 432.73,120.92 438.62,127.04 C434.30,117.64 436.66,110.00 442.16,106.72 Z" fill="#eedea0"/>
<rect x="308.0" y="8.0" width="284.0" height="204.0" rx="2" fill="none" stroke="#eedea0" stroke-width="1" opacity="0.5"/>
</g>
<rect x="603.0" y="3.0" width="294.0" height="214.0" rx="3" fill="#6a4010"/>
<clipPath id="cl2"><rect x="603.0" y="3.0" width="294.0" height="214.0" rx="3"/></clipPath>
<g clip-path="url(#cl2)">
<path d="M753.28,102.16 C750.00,107.66 742.36,110.02 732.96,105.70 C739.08,111.59 745.63,108.49 735.80,103.52 C727.07,107.13 725.54,104.42 727.72,103.73 C726.41,102.16 727.72,103.73 727.72,100.59 C725.54,99.90 727.07,97.19 735.80,100.80 C745.63,95.83 739.08,92.73 732.96,98.62 C742.36,94.30 750.00,96.66 753.28,102.16 Z" fill="#eedea0"/>
<path d="M757.84,113.28 C752.34,110.00 749.98,102.36 754.30,92.96 C748.41,99.08 751.51,105.63 756.48,95.80 C752.87,87.07 755.58,85.54 756.27,87.72 C757.84,86.41 756.27,87.72 759.41,87.72 C760.10,85.54 762.81,87.07 759.20,95.80 C764.17,105.63 767.27,99.08 761.38,92.96 C765.70,102.36 763.34,110.00 757.84,113.28 Z" fill="#eedea0"/>
<path d="M746.72,117.84 C750.00,112.34 757.64,109.98 767.04,114.30 C760.92,108.41 754.37,111.51 764.20,116.48 C772.93,112.87 774.46,115.58 772.28,116.27 C773.59,117.84 772.28,116.27 772.28,119.41 C774.46,120.10 772.93,122.81 764.20,119.20 C754.37,124.17 760.92,127.27 767.04,121.38 C757.64,125.70 750.00,123.34 746.72,117.84 Z" fill="#eedea0"/>
<path d="M742.16,106.72 C747.66,110.00 750.02,117.64 745.70,127.04 C751.59,120.92 748.49,114.37 743.52,124.20 C747.13,132.93 744.42,134.46 743.73,132.28 C742.16,133.59 743.73,132.28 740.59,132.28 C739.90,134.46 737.19,132.93 740.80,124.20 C735.83,114.37 732.73,120.92 738.62,127.04 C734.30,117.64 736.66,110.00 742.16,106.72 Z" fill="#eedea0"/>
<rect x="608.0" y="8.0" width="284.0" height="204.0" rx="2" fill="none" stroke="#eedea0" stroke-width="1" opacity="0.5"/>
</g>
<rect x="903.0" y="3.0" width="294.0" height="214.0" rx="3" fill="#6a4010"/>
<clipPath id="cl3"><rect x="903.0" y="3.0" width="294.0" height="214.0" rx="3"/></clipPath>
<g clip-path="url(#cl3)">
<path d="M1053.28,102.16 C1050.00,107.66 1042.36,110.02 1032.96,105.70 C1039.08,111.59 1045.63,108.49 1035.80,103.52 C1027.07,107.13 1025.54,104.42 1027.72,103.73 C1026.41,102.16 1027.72,103.73 1027.72,100.59 C1025.54,99.90 1027.07,97.19 1035.80,100.80 C1045.63,95.83 1039.08,92.73 1032.96,98.62 C1042.36,94.30 1050.00,96.66 1053.28,102.16 Z" fill="#eedea0"/>
<path d="M1057.84,113.28 C1052.34,110.00 1049.98,102.36 1054.30,92.96 C1048.41,99.08 1051.51,105.63 1056.48,95.80 C1052.87,87.07 1055.58,85.54 1056.27,87.72 C1057.84,86.41 1056.27,87.72 1059.41,87.72 C1060.10,85.54 1062.81,87.07 1059.20,95.80 C1064.17,105.63 1067.27,99.08 1061.38,92.96 C1065.70,102.36 1063.34,110.00 1057.84,113.28 Z" fill="#eedea0"/>
<path d="M1046.72,117.84 C1050.00,112.34 1057.64,109.98 1067.04,114.30 C1060.92,108.41 1054.37,111.51 1064.20,116.48 C1072.93,112.87 1074.46,115.58 1072.28,116.27 C1073.59,117.84 1072.28,116.27 1072.28,119.41 C1074.46,120.10 1072.93,122.81 1064.20,119.20 C1054.37,124.17 1060.92,127.27 1067.04,121.38 C1057.64,125.70 1050.00,123.34 1046.72,117.84 Z" fill="#eedea0"/>
<path d="M1042.16,106.72 C1047.66,110.00 1050.02,117.64 1045.70,127.04 C1051.59,120.92 1048.49,114.37 1043.52,124.20 C1047.13,132.93 1044.42,134.46 1043.73,132.28 C1042.16,133.59 1043.73,132.28 1040.59,132.28 C1039.90,134.46 1037.19,132.93 1040.80,124.20 C1035.83,114.37 1032.73,120.92 1038.62,127.04 C1034.30,117.64 1036.66,110.00 1042.16,106.72 Z" fill="#eedea0"/>
<rect x="908.0" y="8.0" width="284.0" height="204.0" rx="2" fill="none" stroke="#eedea0" stroke-width="1" opacity="0.5"/>
</g>
<rect x="153.0" y="223.0" width="294.0" height="214.0" rx="3" fill="#6a4010"/>
<clipPath id="cl4"><rect x="153.0" y="223.0" width="294.0" height="214.0" rx="3"/></clipPath>
<g clip-path="url(#cl4)">
<path d="M303.28,322.16 C300.00,327.66 292.36,330.02 282.96,325.70 C289.08,331.59 295.63,328.49 285.80,323.52 C277.07,327.13 275.54,324.42 277.72,323.73 C276.41,322.16 277.72,323.73 277.72,320.59 C275.54,319.90 277.07,317.19 285.80,320.80 C295.63,315.83 289.08,312.73 282.96,318.62 C292.36,314.30 300.00,316.66 303.28,322.16 Z" fill="#eedea0"/>
<path d="M307.84,333.28 C302.34,330.00 299.98,322.36 304.30,312.96 C298.41,319.08 301.51,325.63 306.48,315.80 C302.87,307.07 305.58,305.54 306.27,307.72 C307.84,306.41 306.27,307.72 309.41,307.72 C310.10,305.54 312.81,307.07 309.20,315.80 C314.17,325.63 317.27,319.08 311.38,312.96 C315.70,322.36 313.34,330.00 307.84,333.28 Z" fill="#eedea0"/>
<path d="M296.72,337.84 C300.00,332.34 307.64,329.98 317.04,334.30 C310.92,328.41 304.37,331.51 314.20,336.48 C322.93,332.87 324.46,335.58 322.28,336.27 C323.59,337.84 322.28,336.27 322.28,339.41 C324.46,340.10 322.93,342.81 314.20,339.20 C304.37,344.17 310.92,347.27 317.04,341.38 C307.64,345.70 300.00,343.34 296.72,337.84 Z" fill="#eedea0"/>
<path d="M292.16,326.72 C297.66,330.00 300.02,337.64 295.70,347.04 C301.59,340.92 298.49,334.37 293.52,344.20 C297.13,352.93 294.42,354.46 293.73,352.28 C292.16,353.59 293.73,352.28 290.59,352.28 C289.90,354.46 287.19,352.93 290.80,344.20 C285.83,334.37 282.73,340.92 288.62,347.04 C284.30,337.64 286.66,330.00 292.16,326.72 Z" fill="#eedea0"/>
<rect x="158.0" y="228.0" width="284.0" height="204.0" rx="2" fill="none" stroke="#eedea0" stroke-width="1" opacity="0.5"/>
</g>
<rect x="453.0" y="223.0" width="294.0" height="214.0" rx="3" fill="#6a4010"/>
<clipPath id="cl5"><rect x="453.0" y="223.0" width="294.0" height="214.0" rx="3"/></clipPath>
<g clip-path="url(#cl5)">
<path d="M603.28,322.16 C600.00,327.66 592.36,330.02 582.96,325.70 C589.08,331.59 595.63,328.49 585.80,323.52 C577.07,327.13 575.54,324.42 577.72,323.73 C576.41,322.16 577.72,323.73 577.72,320.59 C575.54,319.90 577.07,317.19 585.80,320.80 C595.63,315.83 589.08,312.73 582.96,318.62 C592.36,314.30 600.00,316.66 603.28,322.16 Z" fill="#eedea0"/>
<path d="M607.84,333.28 C602.34,330.00 599.98,322.36 604.30,312.96 C598.41,319.08 601.51,325.63 606.48,315.80 C602.87,307.07 605.58,305.54 606.27,307.72 C607.84,306.41 606.27,307.72 609.41,307.72 C610.10,305.54 612.81,307.07 609.20,315.80 C614.17,325.63 617.27,319.08 611.38,312.96 C615.70,322.36 613.34,330.00 607.84,333.28 Z" fill="#eedea0"/>
<path d="M596.72,337.84 C600.00,332.34 607.64,329.98 617.04,334.30 C610.92,328.41 604.37,331.51 614.20,336.48 C622.93,332.87 624.46,335.58 622.28,336.27 C623.59,337.84 622.28,336.27 622.28,339.41 C624.46,340.10 622.93,342.81 614.20,339.20 C604.37,344.17 610.92,347.27 617.04,341.38 C607.64,345.70 600.00,343.34 596.72,337.84 Z" fill="#eedea0"/>
<path d="M592.16,326.72 C597.66,330.00 600.02,337.64 595.70,347.04 C601.59,340.92 598.49,334.37 593.52,344.20 C597.13,352.93 594.42,354.46 593.73,352.28 C592.16,353.59 593.73,352.28 590.59,352.28 C589.90,354.46 587.19,352.93 590.80,344.20 C585.83,334.37 582.73,340.92 588.62,347.04 C584.30,337.64 586.66,330.00 592.16,326.72 Z" fill="#eedea0"/>
<rect x="458.0" y="228.0" width="284.0" height="204.0" rx="2" fill="none" stroke="#eedea0" stroke-width="1" opacity="0.5"/>
</g>
<rect x="753.0" y="223.0" width="294.0" height="214.0" rx="3" fill="#6a4010"/>
<clipPath id="cl6"><rect x="753.0" y="223.0" width="294.0" height="214.0" rx="3"/></clipPath>
<g clip-path="url(#cl6)">
<path d="M903.28,322.16 C900.00,327.66 892.36,330.02 882.96,325.70 C889.08,331.59 895.63,328.49 885.80,323.52 C877.07,327.13 875.54,324.42 877.72,323.73 C876.41,322.16 877.72,323.73 877.72,320.59 C875.54,319.90 877.07,317.19 885.80,320.80 C895.63,315.83 889.08,312.73 882.96,318.62 C892.36,314.30 900.00,316.66 903.28,322.16 Z" fill="#eedea0"/>
<path d="M907.84,333.28 C902.34,330.00 899.98,322.36 904.30,312.96 C898.41,319.08 901.51,325.63 906.48,315.80 C902.87,307.07 905.58,305.54 906.27,307.72 C907.84,306.41 906.27,307.72 909.41,307.72 C910.10,305.54 912.81,307.07 909.20,315.80 C914.17,325.63 917.27,319.08 911.38,312.96 C915.70,322.36 913.34,330.00 907.84,333.28 Z" fill="#eedea0"/>
<path d="M896.72,337.84 C900.00,332.34 907.64,329.98 917.04,334.30 C910.92,328.41 904.37,331.51 914.20,336.48 C922.93,332.87 924.46,335.58 922.28,336.27 C923.59,337.84 922.28,336.27 922.28,339.41 C924.46,340.10 922.93,342.81 914.20,339.20 C904.37,344.17 910.92,347.27 917.04,341.38 C907.64,345.70 900.00,343.34 896.72,337.84 Z" fill="#eedea0"/>
<path d="M892.16,326.72 C897.66,330.00 900.02,337.64 895.70,347.04 C901.59,340.92 898.49,334.37 893.52,344.20 C897.13,352.93 894.42,354.46 893.73,352.28 C892.16,353.59 893.73,352.28 890.59,352.28 C889.90,354.46 887.19,352.93 890.80,344.20 C885.83,334.37 882.73,340.92 888.62,347.04 C884.30,337.64 886.66,330.00 892.16,326.72 Z" fill="#eedea0"/>
<rect x="758.0" y="228.0" width="284.0" height="204.0" rx="2" fill="none" stroke="#eedea0" stroke-width="1" opacity="0.5"/>
</g>
<rect x="1053.0" y="223.0" width="294.0" height="214.0" rx="3" fill="#6a4010"/>
<clipPath id="cl7"><rect x="1053.0" y="223.0" width="294.0" height="214.0" rx="3"/></clipPath>
<g clip-path="url(#cl7)">
<path d="M1203.28,322.16 C1200.00,327.66 1192.36,330.02 1182.96,325.70 C1189.08,331.59 1195.63,328.49 1185.80,323.52 C1177.07,327.13 1175.54,324.42 1177.72,323.73 C1176.41,322.16 1177.72,323.73 1177.72,320.59 C1175.54,319.90 1177.07,317.19 1185.80,320.80 C1195.63,315.83 1189.08,312.73 1182.96,318.62 C1192.36,314.30 1200.00,316.66 1203.28,322.16 Z" fill="#eedea0"/>
<path d="M1207.84,333.28 C1202.34,330.00 1199.98,322.36 1204.30,312.96 C1198.41,319.08 1201.51,325.63 1206.48,315.80 C1202.87,307.07 1205.58,305.54 1206.27,307.72 C1207.84,306.41 1206.27,307.72 1209.41,307.72 C1210.10,305.54 1212.81,307.07 1209.20,315.80 C1214.17,325.63 1217.27,319.08 1211.38,312.96 C1215.70,322.36 1213.34,330.00 1207.84,333.28 Z" fill="#eedea0"/>
<path d="M1196.72,337.84 C1200.00,332.34 1207.64,329.98 1217.04,334.30 C1210.92,328.41 1204.37,331.51 1214.20,336.48 C1222.93,332.87 1224.46,335.58 1222.28,336.27 C1223.59,337.84 1222.28,336.27 1222.28,339.41 C1224.46,340.10 1222.93,342.81 1214.20,339.20 C1204.37,344.17 1210.92,347.27 1217.04,341.38 C1207.64,345.70 1200.00,343.34 1196.72,337.84 Z" fill="#eedea0"/>
<path d="M1192.16,326.72 C1197.66,330.00 1200.02,337.64 1195.70,347.04 C1201.59,340.92 1198.49,334.37 1193.52,344.20 C1197.13,352.93 1194.42,354.46 1193.73,352.28 C1192.16,353.59 1193.73,352.28 1190.59,352.28 C1189.90,354.46 1187.19,352.93 1190.80,344.20 C1185.83,334.37 1182.73,340.92 1188.62,347.04 C1184.30,337.64 1186.66,330.00 1192.16,326.72 Z" fill="#eedea0"/>
<rect x="1058.0" y="228.0" width="284.0" height="204.0" rx="2" fill="none" stroke="#eedea0" stroke-width="1" opacity="0.5"/>
</g>
<rect x="3.0" y="443.0" width="294.0" height="214.0" rx="3" fill="#6a4010"/>
<clipPath id="cl8"><rect x="3.0" y="443.0" width="294.0" height="214.0" rx="3"/></clipPath>
<g clip-path="url(#cl8)">
<path d="M153.28,542.16 C150.00,547.66 142.36,550.02 132.96,545.70 C139.08,551.59 145.63,548.49 135.80,543.52 C127.07,547.13 125.54,544.42 127.72,543.73 C126.41,542.16 127.72,543.73 127.72,540.59 C125.54,539.90 127.07,537.19 135.80,540.80 C145.63,535.83 139.08,532.73 132.96,538.62 C142.36,534.30 150.00,536.66 153.28,542.16 Z" fill="#eedea0"/>
<path d="M157.84,553.28 C152.34,550.00 149.98,542.36 154.30,532.96 C148.41,539.08 151.51,545.63 156.48,535.80 C152.87,527.07 155.58,525.54 156.27,527.72 C157.84,526.41 156.27,527.72 159.41,527.72 C160.10,525.54 162.81,527.07 159.20,535.80 C164.17,545.63 167.27,539.08 161.38,532.96 C165.70,542.36 163.34,550.00 157.84,553.28 Z" fill="#eedea0"/>
<path d="M146.72,557.84 C150.00,552.34 157.64,549.98 167.04,554.30 C160.92,548.41 154.37,551.51 164.20,556.48 C172.93,552.87 174.46,555.58 172.28,556.27 C173.59,557.84 172.28,556.27 172.28,559.41 C174.46,560.10 172.93,562.81 164.20,559.20 C154.37,564.17 160.92,567.27 167.04,561.38 C157.64,565.70 150.00,563.34 146.72,557.84 Z" fill="#eedea0"/>
<path d="M142.16,546.72 C147.66,550.00 150.02,557.64 145.70,567.04 C151.59,560.92 148.49,554.37 143.52,564.20 C147.13,572.93 144.42,574.46 143.73,572.28 C142.16,573.59 143.73,572.28 140.59,572.28 C139.90,574.46 137.19,572.93 140.80,564.20 C135.83,554.37 132.73,560.92 138.62,567.04 C134.30,557.64 136.66,550.00 142.16,546.72 Z" fill="#eedea0"/>
<rect x="8.0" y="448.0" width="284.0" height="204.0" rx="2" fill="none" stroke="#eedea0" stroke-width="1" opacity="0.5"/>
</g>
<rect x="303.0" y="443.0" width="294.0" height="214.0" rx="3" fill="#6a4010"/>
<clipPath id="cl9"><rect x="303.0" y="443.0" width="294.0" height="214.0" rx="3"/></clipPath>
<g clip-path="url(#cl9)">
<path d="M453.28,542.16 C450.00,547.66 442.36,550.02 432.96,545.70 C439.08,551.59 445.63,548.49 435.80,543.52 C427.07,547.13 425.54,544.42 427.72,543.73 C426.41,542.16 427.72,543.73 427.72,540.59 C425.54,539.90 427.07,537.19 435.80,540.80 C445.63,535.83 439.08,532.73 432.96,538.62 C442.36,534.30 450.00,536.66 453.28,542.16 Z" fill="#eedea0"/>
<path d="M457.84,553.28 C452.34,550.00 449.98,542.36 454.30,532.96 C448.41,539.08 451.51,545.63 456.48,535.80 C452.87,527.07 455.58,525.54 456.27,527.72 C457.84,526.41 456.27,527.72 459.41,527.72 C460.10,525.54 462.81,527.07 459.20,535.80 C464.17,545.63 467.27,539.08 461.38,532.96 C465.70,542.36 463.34,550.00 457.84,553.28 Z" fill="#eedea0"/>
<path d="M446.72,557.84 C450.00,552.34 457.64,549.98 467.04,554.30 C460.92,548.41 454.37,551.51 464.20,556.48 C472.93,552.87 474.46,555.58 472.28,556.27 C473.59,557.84 472.28,556.27 472.28,559.41 C474.46,560.10 472.93,562.81 464.20,559.20 C454.37,564.17 460.92,567.27 467.04,561.38 C457.64,565.70 450.00,563.34 446.72,557.84 Z" fill="#eedea0"/>
<path d="M442.16,546.72 C447.66,550.00 450.02,557.64 445.70,567.04 C451.59,560.92 448.49,554.37 443.52,564.20 C447.13,572.93 444.42,574.46 443.73,572.28 C442.16,573.59 443.73,572.28 440.59,572.28 C439.90,574.46 437.19,572.93 440.80,564.20 C435.83,554.37 432.73,560.92 438.62,567.04 C434.30,557.64 436.66,550.00 442.16,546.72 Z" fill="#eedea0"/>
<rect x="308.0" y="448.0" width="284.0" height="204.0" rx="2" fill="none" stroke="#eedea0" stroke-width="1" opacity="0.5"/>
</g>
<rect x="603.0" y="443.0" width="294.0" height="214.0" rx="3" fill="#6a4010"/>
<clipPath id="cl10"><rect x="603.0" y="443.0" width="294.0" height="214.0" rx="3"/></clipPath>
<g clip-path="url(#cl10)">
<path d="M753.28,542.16 C750.00,547.66 742.36,550.02 732.96,545.70 C739.08,551.59 745.63,548.49 735.80,543.52 C727.07,547.13 725.54,544.42 727.72,543.73 C726.41,542.16 727.72,543.73 727.72,540.59 C725.54,539.90 727.07,537.19 735.80,540.80 C745.63,535.83 739.08,532.73 732.96,538.62 C742.36,534.30 750.00,536.66 753.28,542.16 Z" fill="#eedea0"/>
<path d="M757.84,553.28 C752.34,550.00 749.98,542.36 754.30,532.96 C748.41,539.08 751.51,545.63 756.48,535.80 C752.87,527.07 755.58,525.54 756.27,527.72 C757.84,526.41 756.27,527.72 759.41,527.72 C760.10,525.54 762.81,527.07 759.20,535.80 C764.17,545.63 767.27,539.08 761.38,532.96 C765.70,542.36 763.34,550.00 757.84,553.28 Z" fill="#eedea0"/>
<path d="M746.72,557.84 C750.00,552.34 757.64,549.98 767.04,554.30 C760.92,548.41 754.37,551.51 764.20,556.48 C772.93,552.87 774.46,555.58 772.28,556.27 C773.59,557.84 772.28,556.27 772.28,559.41 C774.46,560.10 772.93,562.81 764.20,559.20 C754.37,564.17 760.92,567.27 767.04,561.38 C757.64,565.70 750.00,563.34 746.72,557.84 Z" fill="#eedea0"/>
<path d="M742.16,546.72 C747.66,550.00 750.02,557.64 745.70,567.04 C751.59,560.92 748.49,554.37 743.52,564.20 C747.13,572.93 744.42,574.46 743.73,572.28 C742.16,573.59 743.73,572.28 740.59,572.28 C739.90,574.46 737.19,572.93 740.80,564.20 C735.83,554.37 732.73,560.92 738.62,567.04 C734.30,557.64 736.66,550.00 742.16,546.72 Z" fill="#eedea0"/>
<rect x="608.0" y="448.0" width="284.0" height="204.0" rx="2" fill="none" stroke="#eedea0" stroke-width="1" opacity="0.5"/>
</g>
<rect x="903.0" y="443.0" width="294.0" height="214.0" rx="3" fill="#6a4010"/>
<clipPath id="cl11"><rect x="903.0" y="443.0" width="294.0" height="214.0" rx="3"/></clipPath>
<g clip-path="url(#cl11)">
<path d="M1053.28,542.16 C1050.00,547.66 1042.36,550.02 1032.96,545.70 C1039.08,551.59 1045.63,548.49 1035.80,543.52 C1027.07,547.13 1025.54,544.42 1027.72,543.73 C1026.41,542.16 1027.72,543.73 1027.72,540.59 C1025.54,539.90 1027.07,537.19 1035.80,540.80 C1045.63,535.83 1039.08,532.73 1032.96,538.62 C1042.36,534.30 1050.00,536.66 1053.28,542.16 Z" fill="#eedea0"/>
<path d="M1057.84,553.28 C1052.34,550.00 1049.98,542.36 1054.30,532.96 C1048.41,539.08 1051.51,545.63 1056.48,535.80 C1052.87,527.07 1055.58,525.54 1056.27,527.72 C1057.84,526.41 1056.27,527.72 1059.41,527.72 C1060.10,525.54 1062.81,527.07 1059.20,535.80 C1064.17,545.63 1067.27,539.08 1061.38,532.96 C1065.70,542.36 1063.34,550.00 1057.84,553.28 Z" fill="#eedea0"/>
<path d="M1046.72,557.84 C1050.00,552.34 1057.64,549.98 1067.04,554.30 C1060.92,548.41 1054.37,551.51 1064.20,556.48 C1072.93,552.87 1074.46,555.58 1072.28,556.27 C1073.59,557.84 1072.28,556.27 1072.28,559.41 C1074.46,560.10 1072.93,562.81 1064.20,559.20 C1054.37,564.17 1060.92,567.27 1067.04,561.38 C1057.64,565.70 1050.00,563.34 1046.72,557.84 Z" fill="#eedea0"/>
<path d="M1042.16,546.72 C1047.66,550.00 1050.02,557.64 1045.70,567.04 C1051.59,560.92 1048.49,554.37 1043.52,564.20 C1047.13,572.93 1044.42,574.46 1043.73,572.28 C1042.16,573.59 1043.73,572.28 1040.59,572.28 C1039.90,574.46 1037.19,572.93 1040.80,564.20 C1035.83,554.37 1032.73,560.92 1038.62,567.04 C1034.30,557.64 1036.66,550.00 1042.16,546.72 Z" fill="#eedea0"/>
<rect x="908.0" y="448.0" width="284.0" height="204.0" rx="2" fill="none" stroke="#eedea0" stroke-width="1" opacity="0.5"/>
</g>
</svg>