<svg xmlns="http://www.w3.org/2000/svg" width="1920" height="1080" viewBox="0 0 1920 1080">
<rect width="1920" height="1080" fill="#16202e"/>
<rect x="3.5" y="3.5" width="313.0" height="353.0" rx="3" fill="#8aaabb"/>
<clipPath id="cl0"><rect x="3.5" y="3.5" width="313.0" height="353.0" rx="3"/></clipPath>
<g clip-path="url(#cl0)">
<path d="M41.94,180.00 C39.90,185.51 29.70,188.26 10.57,181.84 C9.30,180.46 9.30,179.54 10.57,178.16 C29.70,171.74 39.90,174.49 41.94,180.00 Z" fill="#16202e"/>
<path d="M125.17,181.83 C121.78,186.63 111.22,186.67 94.38,175.55 C93.50,173.89 93.74,173.01 95.33,172.00 C115.46,170.71 124.61,175.99 125.17,181.83 Z" fill="#16202e"/>
<path d="M208.63,178.17 C208.08,184.01 198.93,189.29 178.79,188.00 C177.21,186.99 176.97,186.11 177.85,184.45 C194.68,173.33 205.25,173.37 208.63,178.17 Z" fill="#16202e"/>
<path d="M292.34,180.00 C290.30,185.51 280.10,188.26 260.97,181.84 C259.70,180.46 259.70,179.54 260.97,178.16 C280.10,171.74 290.30,174.49 292.34,180.00 Z" fill="#16202e"/>
<rect x="8.5" y="8.5" width="303.0" height="343.0" rx="2" fill="none" stroke="#16202e" stroke-width="1" opacity="0.4"/>
<rect x="11.5" y="11.5" width="297.0" height="337.0" rx="1" fill="none" stroke="#16202e" stroke-width="0.5" opacity="0.25"/>
</g>
<rect x="323.5" y="3.5" width="313.0" height="353.0" rx="3" fill="#8aaabb"/>
<clipPath id="cl1"><rect x="323.5" y="3.5" width="313.0" height="353.0" rx="3"/></clipPath>
<g clip-path="url(#cl1)">
<path d="M361.94,230.77 C359.90,236.28 349.70,239.03 330.57,232.61 C329.30,231.23 329.30,230.31 330.57,228.94 C349.70,222.51 359.90,225.26 361.94,230.77 Z" fill="#16202e"/>
<path d="M445.17,131.06 C441.78,135.86 431.22,135.90 414.38,124.78 C413.50,123.12 413.74,122.23 415.33,121.23 C435.46,119.93 444.61,125.22 445.17,131.06 Z" fill="#16202e"/>
<path d="M528.63,228.94 C528.08,234.78 518.93,240.07 498.79,238.77 C497.21,237.77 496.97,236.88 497.85,235.22 C514.68,224.10 525.25,224.14 528.63,228.94 Z" fill="#16202e"/>
<path d="M612.34,129.23 C610.30,134.74 600.10,137.49 580.98,131.06 C579.70,129.69 579.70,128.77 580.98,127.39 C600.10,120.97 610.30,123.72 612.34,129.23 Z" fill="#16202e"/>
<rect x="328.5" y="8.5" width="303.0" height="343.0" rx="2" fill="none" stroke="#16202e" stroke-width="1" opacity="0.4"/>
<rect x="331.5" y="11.5" width="297.0" height="337.0" rx="1" fill="none" stroke="#16202e" stroke-width="0.5" opacity="0.25"/>
</g>
<rect x="643.5" y="3.5" width="313.0" height="353.0" rx="3" fill="#8aaabb"/>
<clipPath id="cl2"><rect x="643.5" y="3.5" width="313.0" height="353.0" rx="3"/></clipPath>
<g clip-path="url(#cl2)">
<path d="M681.94,269.11 C679.90,274.62 669.70,277.37 650.57,270.95 C649.30,269.57 649.30,268.65 650.57,267.28 C669.70,260.85 679.90,263.60 681.94,269.11 Z" fill="#16202e"/>
<path d="M765.17,92.72 C761.78,97.52 751.22,97.56 734.38,86.44 C733.50,84.78 733.74,83.89 735.33,82.89 C755.46,81.59 764.61,86.88 765.17,92.72 Z" fill="#16202e"/>
<path d="M848.63,267.28 C848.08,273.12 838.93,278.41 818.79,277.11 C817.21,276.11 816.97,275.22 817.85,273.56 C834.68,262.44 845.25,262.48 848.63,267.28 Z" fill="#16202e"/>
<path d="M932.34,90.89 C930.30,96.40 920.10,99.15 900.98,92.72 C899.70,91.35 899.70,90.43 900.98,89.05 C920.10,82.63 930.30,85.38 932.34,90.89 Z" fill="#16202e"/>
<rect x="648.5" y="8.5" width="303.0" height="343.0" rx="2" fill="none" stroke="#16202e" stroke-width="1" opacity="0.4"/>
<rect x="651.5" y="11.5" width="297.0" height="337.0" rx="1" fill="none" stroke="#16202e" stroke-width="0.5" opacity="0.25"/>
</g>
<rect x="963.5" y="3.5" width="313.0" height="353.0" rx="3" fill="#8aaabb"/>
<clipPath id="cl3"><rect x="963.5" y="3.5" width="313.0" height="353.0" rx="3"/></clipPath>
<g clip-path="url(#cl3)">
<path d="M1001.94,285.63 C999.90,291.14 989.70,293.90 970.57,287.47 C969.30,286.09 969.30,285.18 970.57,283.80 C989.70,277.37 999.90,280.13 1001.94,285.63 Z" fill="#16202e"/>
<path d="M1085.17,76.20 C1081.78,81.00 1071.22,81.04 1054.38,69.92 C1053.50,68.26 1053.74,67.37 1055.33,66.37 C1075.46,65.07 1084.61,70.35 1085.17,76.20 Z" fill="#16202e"/>
<path d="M1168.63,283.80 C1168.08,289.65 1158.93,294.93 1138.79,293.63 C1137.21,292.63 1136.97,291.74 1137.85,290.08 C1154.68,278.96 1165.25,279.00 1168.63,283.80 Z" fill="#16202e"/>
<path d="M1252.34,74.37 C1250.30,79.87 1240.10,82.63 1220.98,76.20 C1219.70,74.82 1219.70,73.91 1220.98,72.53 C1240.10,66.10 1250.30,68.86 1252.34,74.37 Z" fill="#16202e"/>
<rect x="968.5" y="8.5" width="303.0" height="343.0" rx="2" fill="none" stroke="#16202e" stroke-width="1" opacity="0.4"/>
<rect x="971.5" y="11.5" width="297.0" height="337.0" rx="1" fill="none" stroke="#16202e" stroke-width="0.5" opacity="0.25"/>
</g>
<rect x="1283.5" y="3.5" width="313.0" height="353.0" rx="3" fill="#8aaabb"/>
<clipPath id="cl4"><rect x="1283.5" y="3.5" width="313.0" height="353.0" rx="3"/></clipPath>
<g clip-path="url(#cl4)">
<path d="M1321.94,276.29 C1319.90,281.80 1309.70,284.56 1290.58,278.13 C1289.30,276.75 1289.30,275.84 1290.58,274.46 C1309.70,268.03 1319.90,270.79 1321.94,276.29 Z" fill="#16202e"/>
<path d="M1405.17,85.54 C1401.78,90.34 1391.22,90.38 1374.38,79.26 C1373.50,77.60 1373.74,76.71 1375.33,75.71 C1395.46,74.41 1404.61,79.69 1405.17,85.54 Z" fill="#16202e"/>
<path d="M1488.63,274.46 C1488.08,280.31 1478.93,285.59 1458.79,284.29 C1457.21,283.29 1456.97,282.40 1457.85,280.74 C1474.68,269.62 1485.25,269.66 1488.63,274.46 Z" fill="#16202e"/>
<path d="M1572.34,83.71 C1570.30,89.21 1560.10,91.97 1540.98,85.54 C1539.70,84.16 1539.70,83.25 1540.98,81.87 C1560.10,75.44 1570.30,78.20 1572.34,83.71 Z" fill="#16202e"/>
<rect x="1288.5" y="8.5" width="303.0" height="343.0" rx="2" fill="none" stroke="#16202e" stroke-width="1" opacity="0.4"/>
<rect x="1291.5" y="11.5" width="297.0" height="337.0" rx="1" fill="none" stroke="#16202e" stroke-width="0.5" opacity="0.25"/>
</g>
<rect x="1603.5" y="3.5" width="313.0" height="353.0" rx="3" fill="#8aaabb"/>
<clipPath id="cl5"><rect x="1603.5" y="3.5" width="313.0" height="353.0" rx="3"/></clipPath>
<g clip-path="url(#cl5)">
<path d="M1641.94,243.38 C1639.90,248.89 1629.70,251.64 1610.58,245.21 C1609.30,243.84 1609.30,242.92 1610.58,241.54 C1629.70,235.12 1639.90,237.87 1641.94,243.38 Z" fill="#16202e"/>
<path d="M1725.17,118.46 C1721.78,123.26 1711.22,123.30 1694.38,112.17 C1693.50,110.51 1693.74,109.63 1695.33,108.62 C1715.46,107.33 1724.61,112.61 1725.17,118.46 Z" fill="#16202e"/>
<path d="M1808.63,241.54 C1808.08,247.39 1798.93,252.67 1778.79,251.38 C1777.21,250.37 1776.97,249.49 1777.85,247.83 C1794.68,236.70 1805.25,236.74 1808.63,241.54 Z" fill="#16202e"/>
<path d="M1892.34,116.62 C1890.30,122.13 1880.10,124.88 1860.98,118.46 C1859.70,117.08 1859.70,116.16 1860.98,114.79 C1880.10,108.36 1890.30,111.11 1892.34,116.62 Z" fill="#16202e"/>
<rect x="1608.5" y="8.5" width="303.0" height="343.0" rx="2" fill="none" stroke="#16202e" stroke-width="1" opacity="0.4"/>
<rect x="1611.5" y="11.5" width="297.0" height="337.0" rx="1" fill="none" stroke="#16202e" stroke-width="0.5" opacity="0.25"/>
</g>
<rect x="3.5" y="363.5" width="313.0" height="353.0" rx="3" fill="#8aaabb"/>
<clipPath id="cl6"><rect x="3.5" y="363.5" width="313.0" height="353.0" rx="3"/></clipPath>
<g clip-path="url(#cl6)">
<path d="M41.94,554.94 C39.90,560.45 29.70,563.21 10.57,556.78 C9.30,555.40 9.30,554.49 10.57,553.11 C29.70,546.68 39.90,549.44 41.94,554.94 Z" fill="#16202e"/>
<path d="M125.17,526.89 C121.78,531.69 111.22,531.73 94.38,520.61 C93.50,518.95 93.74,518.06 95.33,517.06 C115.46,515.76 124.61,521.04 125.17,526.89 Z" fill="#16202e"/>
<path d="M208.63,553.11 C208.08,558.96 198.93,564.24 178.79,562.94 C177.21,561.94 176.97,561.05 177.85,559.39 C194.68,548.27 205.25,548.31 208.63,553.11 Z" fill="#16202e"/>
<path d="M292.34,525.06 C290.30,530.56 280.10,533.32 260.97,526.89 C259.70,525.51 259.70,524.60 260.97,523.22 C280.10,516.79 290.30,519.55 292.34,525.06 Z" fill="#16202e"/>
<rect x="8.5" y="368.5" width="303.0" height="343.0" rx="2" fill="none" stroke="#16202e" stroke-width="1" opacity="0.4"/>
<rect x="11.5" y="371.5" width="297.0" height="337.0" rx="1" fill="none" stroke="#16202e" stroke-width="0.5" opacity="0.25"/>
</g>
<rect x="323.5" y="363.5" width="313.0" height="353.0" rx="3" fill="#8aaabb"/>
<clipPath id="cl7"><rect x="323.5" y="363.5" width="313.0" height="353.0" rx="3"/></clipPath>
<g clip-path="url(#cl7)">
<path d="M361.94,502.85 C359.90,508.36 349.70,511.11 330.57,504.69 C329.30,503.31 329.30,502.39 330.57,501.02 C349.70,494.59 359.90,497.34 361.94,502.85 Z" fill="#16202e"/>
<path d="M445.17,578.98 C441.78,583.78 431.22,583.82 414.38,572.70 C413.50,571.04 413.74,570.15 415.33,569.15 C435.46,567.85 444.61,573.13 445.17,578.98 Z" fill="#16202e"/>
<path d="M528.63,501.02 C528.08,506.87 518.93,512.15 498.79,510.85 C497.21,509.85 496.97,508.96 497.85,507.30 C514.68,496.18 525.25,496.22 528.63,501.02 Z" fill="#16202e"/>
<path d="M612.34,577.15 C610.30,582.66 600.10,585.41 580.98,578.98 C579.70,577.61 579.70,576.69 580.98,575.31 C600.10,568.89 610.30,571.64 612.34,577.15 Z" fill="#16202e"/>
<rect x="328.5" y="368.5" width="303.0" height="343.0" rx="2" fill="none" stroke="#16202e" stroke-width="1" opacity="0.4"/>
<rect x="331.5" y="371.5" width="297.0" height="337.0" rx="1" fill="none" stroke="#16202e" stroke-width="0.5" opacity="0.25"/>
</g>
<rect x="643.5" y="363.5" width="313.0" height="353.0" rx="3" fill="#8aaabb"/>
<clipPath id="cl8"><rect x="643.5" y="363.5" width="313.0" height="353.0" rx="3"/></clipPath>
<g clip-path="url(#cl8)">
<path d="M681.94,459.85 C679.90,465.36 669.70,468.12 650.57,461.69 C649.30,460.31 649.30,459.40 650.57,458.02 C669.70,451.59 679.90,454.35 681.94,459.85 Z" fill="#16202e"/>
<path d="M765.17,621.98 C761.78,626.78 751.22,626.82 734.38,615.70 C733.50,614.04 733.74,613.15 735.33,612.15 C755.46,610.85 764.61,616.13 765.17,621.98 Z" fill="#16202e"/>
<path d="M848.63,458.02 C848.08,463.87 838.93,469.15 818.79,467.85 C817.21,466.85 816.97,465.96 817.85,464.30 C834.68,453.18 845.25,453.22 848.63,458.02 Z" fill="#16202e"/>
<path d="M932.34,620.15 C930.30,625.65 920.10,628.41 900.98,621.98 C899.70,620.60 899.70,619.69 900.98,618.31 C920.10,611.88 930.30,614.64 932.34,620.15 Z" fill="#16202e"/>
<rect x="648.5" y="368.5" width="303.0" height="343.0" rx="2" fill="none" stroke="#16202e" stroke-width="1" opacity="0.4"/>
<rect x="651.5" y="371.5" width="297.0" height="337.0" rx="1" fill="none" stroke="#16202e" stroke-width="0.5" opacity="0.25"/>
</g>
<rect x="963.5" y="363.5" width="313.0" height="353.0" rx="3" fill="#8aaabb"/>
<clipPath id="cl9"><rect x="963.5" y="363.5" width="313.0" height="353.0" rx="3"/></clipPath>
<g clip-path="url(#cl9)">
<path d="M1001.94,436.48 C999.90,441.99 989.70,444.74 970.57,438.32 C969.30,436.94 969.30,436.02 970.57,434.64 C989.70,428.22 999.90,430.97 1001.94,436.48 Z" fill="#16202e"/>
<path d="M1085.17,645.35 C1081.78,650.15 1071.22,650.19 1054.38,639.07 C1053.50,637.41 1053.74,636.53 1055.33,635.52 C1075.46,634.23 1084.61,639.51 1085.17,645.35 Z" fill="#16202e"/>
<path d="M1168.63,434.65 C1168.08,440.49 1158.93,445.77 1138.79,444.48 C1137.21,443.47 1136.97,442.59 1137.85,440.93 C1154.68,429.81 1165.25,429.85 1168.63,434.65 Z" fill="#16202e"/>
<path d="M1252.34,643.52 C1250.30,649.03 1240.10,651.78 1220.98,645.36 C1219.70,643.98 1219.70,643.06 1220.98,641.68 C1240.10,635.26 1250.30,638.01 1252.34,643.52 Z" fill="#16202e"/>
<rect x="968.5" y="368.5" width="303.0" height="343.0" rx="2" fill="none" stroke="#16202e" stroke-width="1" opacity="0.4"/>
<rect x="971.5" y="371.5" width="297.0" height="337.0" rx="1" fill="none" stroke="#16202e" stroke-width="0.5" opacity="0.25"/>
</g>
<rect x="1283.5" y="363.5" width="313.0" height="353.0" rx="3" fill="#8aaabb"/>
<clipPath id="cl10"><rect x="1283.5" y="363.5" width="313.0" height="353.0" rx="3"/></clipPath>
<g clip-path="url(#cl10)">
<path d="M1321.94,438.45 C1319.90,443.96 1309.70,446.71 1290.58,440.29 C1289.30,438.91 1289.30,437.99 1290.58,436.61 C1309.70,430.19 1319.90,432.94 1321.94,438.45 Z" fill="#16202e"/>
<path d="M1405.17,643.38 C1401.78,648.18 1391.22,648.22 1374.38,637.10 C1373.50,635.44 1373.74,634.56 1375.33,633.55 C1395.46,632.26 1404.61,637.54 1405.17,643.38 Z" fill="#16202e"/>
<path d="M1488.63,436.62 C1488.08,442.46 1478.93,447.74 1458.79,446.45 C1457.21,445.44 1456.97,444.56 1457.85,442.90 C1474.68,431.78 1485.25,431.82 1488.63,436.62 Z" fill="#16202e"/>
<path d="M1572.34,641.55 C1570.30,647.06 1560.10,649.81 1540.98,643.39 C1539.70,642.01 1539.70,641.09 1540.98,639.71 C1560.10,633.29 1570.30,636.04 1572.34,641.55 Z" fill="#16202e"/>
<rect x="1288.5" y="368.5" width="303.0" height="343.0" rx="2" fill="none" stroke="#16202e" stroke-width="1" opacity="0.4"/>
<rect x="1291.5" y="371.5" width="297.0" height="337.0" rx="1" fill="none" stroke="#16202e" stroke-width="0.5" opacity="0.25"/>
</g>
<rect x="1603.5" y="363.5" width="313.0" height="353.0" rx="3" fill="#8aaabb"/>
<clipPath id="cl11"><rect x="1603.5" y="363.5" width="313.0" height="353.0" rx="3"/></clipPath>
<g clip-path="url(#cl11)">
<path d="M1641.94,465.28 C1639.90,470.79 1629.70,473.55 1610.58,467.12 C1609.30,465.74 1609.30,464.82 1610.58,463.45 C1629.70,457.02 1639.90,459.78 1641.94,465.28 Z" fill="#16202e"/>
<path d="M1725.17,616.55 C1721.78,621.35 1711.22,621.39 1694.38,610.27 C1693.50,608.61 1693.74,607.72 1695.33,606.72 C1715.46,605.42 1724.61,610.70 1725.17,616.55 Z" fill="#16202e"/>
<path d="M1808.63,463.45 C1808.08,469.30 1798.93,474.58 1778.79,473.28 C1777.21,472.28 1776.97,471.39 1777.85,469.73 C1794.68,458.61 1805.25,458.65 1808.63,463.45 Z" fill="#16202e"/>
<path d="M1892.34,614.72 C1890.30,620.22 1880.10,622.98 1860.98,616.55 C1859.70,615.18 1859.70,614.26 1860.98,612.88 C1880.10,606.45 1890.30,609.21 1892.34,614.72 Z" fill="#16202e"/>
<rect x="1608.5" y="368.5" width="303.0" height="343.0" rx="2" fill="none" stroke="#16202e" stroke-width="1" opacity="0.4"/>
<rect x="1611.5" y="371.5" width="297.0" height="337.0" rx="1" fill="none" stroke="#16202e" stroke-width="0.5" opacity="0.25"/>
</g>
<rect x="3.5" y="723.5" width="313.0" height="353.0" rx="3" fill="#8aaabb"/>
<clipPath id="cl12"><rect x="3.5" y="723.5" width="313.0" height="353.0" rx="3"/></clipPath>
<g clip-path="url(#cl12)">
<path d="M41.94,870.41 C39.90,875.92 29.70,878.67 10.57,872.25 C9.30,870.87 9.30,869.95 10.57,868.57 C29.70,862.15 39.90,864.90 41.94,870.41 Z" fill="#16202e"/>
<path d="M125.17,931.42 C121.78,936.22 111.22,936.26 94.38,925.14 C93.50,923.48 93.74,922.60 95.33,921.59 C115.46,920.30 124.61,925.58 125.17,931.42 Z" fill="#16202e"/>
<path d="M208.63,868.58 C208.08,874.42 198.93,879.70 178.79,878.41 C177.21,877.40 176.97,876.52 177.85,874.86 C194.68,863.74 205.25,863.78 208.63,868.58 Z" fill="#16202e"/>
<path d="M292.34,929.59 C290.30,935.10 280.10,937.85 260.97,931.43 C259.70,930.05 259.70,929.13 260.97,927.75 C280.10,921.33 290.30,924.08 292.34,929.59 Z" fill="#16202e"/>
<rect x="8.5" y="728.5" width="303.0" height="343.0" rx="2" fill="none" stroke="#16202e" stroke-width="1" opacity="0.4"/>
<rect x="11.5" y="731.5" width="297.0" height="337.0" rx="1" fill="none" stroke="#16202e" stroke-width="0.5" opacity="0.25"/>
</g>
<rect x="323.5" y="723.5" width="313.0" height="353.0" rx="3" fill="#8aaabb"/>
<clipPath id="cl13"><rect x="323.5" y="723.5" width="313.0" height="353.0" rx="3"/></clipPath>
<g clip-path="url(#cl13)">
<path d="M361.94,922.78 C359.90,928.29 349.70,931.04 330.57,924.62 C329.30,923.24 329.30,922.32 330.57,920.95 C349.70,914.52 359.90,917.27 361.94,922.78 Z" fill="#16202e"/>
<path d="M445.17,879.05 C441.78,883.85 431.22,883.89 414.38,872.77 C413.50,871.11 413.74,870.22 415.33,869.22 C435.46,867.92 444.61,873.21 445.17,879.05 Z" fill="#16202e"/>
<path d="M528.63,920.95 C528.08,926.79 518.93,932.08 498.79,930.78 C497.21,929.78 496.97,928.89 497.85,927.23 C514.68,916.11 525.25,916.15 528.63,920.95 Z" fill="#16202e"/>
<path d="M612.34,877.22 C610.30,882.73 600.10,885.48 580.98,879.05 C579.70,877.68 579.70,876.76 580.98,875.38 C600.10,868.96 610.30,871.71 612.34,877.22 Z" fill="#16202e"/>
<rect x="328.5" y="728.5" width="303.0" height="343.0" rx="2" fill="none" stroke="#16202e" stroke-width="1" opacity="0.4"/>
<rect x="331.5" y="731.5" width="297.0" height="337.0" rx="1" fill="none" stroke="#16202e" stroke-width="0.5" opacity="0.25"/>
</g>
<rect x="643.5" y="723.5" width="313.0" height="353.0" rx="3" fill="#8aaabb"/>
<clipPath id="cl14"><rect x="643.5" y="723.5" width="313.0" height="353.0" rx="3"/></clipPath>
<g clip-path="url(#cl14)">
<path d="M681.94,969.57 C679.90,975.08 669.70,977.84 650.57,971.41 C649.30,970.03 649.30,969.12 650.57,967.74 C669.70,961.31 679.90,964.07 681.94,969.57 Z" fill="#16202e"/>
<path d="M765.17,832.26 C761.78,837.06 751.22,837.10 734.38,825.98 C733.50,824.32 733.74,823.43 735.33,822.43 C755.46,821.13 764.61,826.41 765.17,832.26 Z" fill="#16202e"/>
<path d="M848.63,967.74 C848.08,973.59 838.93,978.87 818.79,977.57 C817.21,976.57 816.97,975.68 817.85,974.02 C834.68,962.90 845.25,962.94 848.63,967.74 Z" fill="#16202e"/>
<path d="M932.34,830.43 C930.30,835.93 920.10,838.69 900.98,832.26 C899.70,830.88 899.70,829.97 900.98,828.59 C920.10,822.16 930.30,824.92 932.34,830.43 Z" fill="#16202e"/>
<rect x="648.5" y="728.5" width="303.0" height="343.0" rx="2" fill="none" stroke="#16202e" stroke-width="1" opacity="0.4"/>
<rect x="651.5" y="731.5" width="297.0" height="337.0" rx="1" fill="none" stroke="#16202e" stroke-width="0.5" opacity="0.25"/>
</g>
<rect x="963.5" y="723.5" width="313.0" height="353.0" rx="3" fill="#8aaabb"/>
<clipPath id="cl15"><rect x="963.5" y="723.5" width="313.0" height="353.0" rx="3"/></clipPath>
<g clip-path="url(#cl15)">
<path d="M1001.94,999.33 C999.90,1004.84 989.70,1007.60 970.57,1001.17 C969.30,999.79 969.30,998.88 970.57,997.50 C989.70,991.07 999.90,993.83 1001.94,999.33 Z" fill="#16202e"/>
<path d="M1085.17,802.50 C1081.78,807.30 1071.22,807.34 1054.38,796.22 C1053.50,794.56 1053.74,793.67 1055.33,792.67 C1075.46,791.37 1084.61,796.65 1085.17,802.50 Z" fill="#16202e"/>
<path d="M1168.63,997.50 C1168.08,1003.35 1158.93,1008.63 1138.79,1007.33 C1137.21,1006.33 1136.97,1005.44 1137.85,1003.78 C1154.68,992.66 1165.25,992.70 1168.63,997.50 Z" fill="#16202e"/>
<path d="M1252.34,800.67 C1250.30,806.17 1240.10,808.93 1220.98,802.50 C1219.70,801.12 1219.70,800.21 1220.98,798.83 C1240.10,792.40 1250.30,795.16 1252.34,800.67 Z" fill="#16202e"/>
<rect x="968.5" y="728.5" width="303.0" height="343.0" rx="2" fill="none" stroke="#16202e" stroke-width="1" opacity="0.4"/>
<rect x="971.5" y="731.5" width="297.0" height="337.0" rx="1" fill="none" stroke="#16202e" stroke-width="0.5" opacity="0.25"/>
</g>
<rect x="1283.5" y="723.5" width="313.0" height="353.0" rx="3" fill="#8aaabb"/>
<clipPath id="cl16"><rect x="1283.5" y="723.5" width="313.0" height="353.0" rx="3"/></clipPath>
<g clip-path="url(#cl16)">
<path d="M1321.94,1004.77 C1319.90,1010.28 1309.70,1013.04 1290.58,1006.61 C1289.30,1005.23 1289.30,1004.31 1290.58,1002.94 C1309.70,996.51 1319.90,999.27 1321.94,1004.77 Z" fill="#16202e"/>
<path d="M1405.17,797.06 C1401.78,801.86 1391.22,801.90 1374.38,790.78 C1373.50,789.12 1373.74,788.23 1375.33,787.23 C1395.46,785.93 1404.61,791.21 1405.17,797.06 Z" fill="#16202e"/>
<path d="M1488.63,1002.94 C1488.08,1008.79 1478.93,1014.07 1458.79,1012.77 C1457.21,1011.77 1456.97,1010.88 1457.85,1009.22 C1474.68,998.10 1485.25,998.14 1488.63,1002.94 Z" fill="#16202e"/>
<path d="M1572.34,795.23 C1570.30,800.73 1560.10,803.49 1540.98,797.06 C1539.70,795.69 1539.70,794.77 1540.98,793.39 C1560.10,786.96 1570.30,789.72 1572.34,795.23 Z" fill="#16202e"/>
<rect x="1288.5" y="728.5" width="303.0" height="343.0" rx="2" fill="none" stroke="#16202e" stroke-width="1" opacity="0.4"/>
<rect x="1291.5" y="731.5" width="297.0" height="337.0" rx="1" fill="none" stroke="#16202e" stroke-width="0.5" opacity="0.25"/>
</g>
<rect x="1603.5" y="723.5" width="313.0" height="353.0" rx="3" fill="#8aaabb"/>
<clipPath id="cl17"><rect x="1603.5" y="723.5" width="313.0" height="353.0" rx="3"/></clipPath>
<g clip-path="url(#cl17)">
<path d="M1641.94,984.56 C1639.90,990.07 1629.70,992.82 1610.58,986.40 C1609.30,985.02 1609.30,984.10 1610.58,982.72 C1629.70,976.30 1639.90,979.05 1641.94,984.56 Z" fill="#16202e"/>
<path d="M1725.17,817.27 C1721.78,822.07 1711.22,822.11 1694.38,810.99 C1693.50,809.33 1693.74,808.45 1695.33,807.44 C1715.46,806.15 1724.61,811.43 1725.17,817.27 Z" fill="#16202e"/>
<path d="M1808.63,982.73 C1808.08,988.57 1798.93,993.85 1778.79,992.56 C1777.21,991.55 1776.97,990.67 1777.85,989.01 C1794.68,977.89 1805.25,977.93 1808.63,982.73 Z" fill="#16202e"/>
<path d="M1892.34,815.44 C1890.30,820.95 1880.10,823.70 1860.98,817.28 C1859.70,815.90 1859.70,814.98 1860.98,813.60 C1880.10,807.18 1890.30,809.93 1892.34,815.44 Z" fill="#16202e"/>
<rect x="1608.5" y="728.5" width="303.0" height="343.0" rx="2" fill="none" stroke="#16202e" stroke-width="1" opacity="0.4"/>
<rect x="1611.5" y="731.5" width="297.0" height="337.0" rx="1" fill="none" stroke="#16202e" stroke-width="0.5" opacity="0.25"/>
</g>
</svg>