<svg xmlns="http://www.w3.org/2000/svg" width="1920" height="1080" viewBox="0 0 1920 1080">
<rect width="1920" height="1080" fill="#eedea0"/>
<rect x="5.0" y="5.0" width="374.0" height="350.0" rx="3" fill="#6a4010"/>
<clipPath id="cl0"><rect x="5.0" y="5.0" width="374.0" height="350.0" rx="3"/></clipPath>
<g clip-path="url(#cl0)">
<path d="M110.03,101.85 C100.95,110.32 94.74,108.18 91.14,100.52 C86.01,100.42 81.95,89.82 84.07,86.61 C77.01,85.23 81.85,83.16 81.87,77.91 C85.89,83.87 88.02,80.66 99.36,80.28 C101.46,84.96 109.91,85.29 114.30,90.18 110.03,101.85 Z" fill="#eedea0"/>
<path d="M196.50,184.50 C185.91,190.99 180.25,187.66 178.25,179.45 C173.24,178.32 171.36,167.13 174.08,164.41 C167.44,161.65 172.59,160.59 173.65,155.44 C176.41,162.08 179.13,159.36 190.32,161.24 C191.45,166.25 199.66,168.25 202.99,173.91 196.50,184.50 Z" fill="#eedea0"/>
<path d="M282.78,266.97 C271.11,271.23 266.23,266.84 265.90,258.39 C261.21,256.30 261.60,244.95 264.80,242.82 C258.84,238.80 264.10,238.78 266.16,233.95 C267.55,241.00 270.75,238.88 281.35,242.95 C281.46,248.08 289.11,251.67 291.25,257.88 282.78,266.97 Z" fill="#eedea0"/>
</g>
<rect x="389.0" y="5.0" width="374.0" height="350.0" rx="3" fill="#6a4010"/>
<clipPath id="cl1"><rect x="389.0" y="5.0" width="374.0" height="350.0" rx="3"/></clipPath>
<g clip-path="url(#cl1)">
<path d="M494.03,101.85 C484.95,110.32 478.74,108.18 475.14,100.52 C470.01,100.42 465.95,89.82 468.07,86.61 C461.01,85.23 465.85,83.16 465.87,77.91 C469.89,83.87 472.02,80.66 483.36,80.28 C485.46,84.96 493.91,85.29 498.30,90.18 494.03,101.85 Z" fill="#eedea0"/>
<path d="M580.50,184.50 C569.91,190.99 564.25,187.66 562.25,179.45 C557.24,178.32 555.36,167.13 558.08,164.41 C551.44,161.65 556.59,160.59 557.65,155.44 C560.41,162.08 563.13,159.36 574.32,161.24 C575.45,166.25 583.66,168.25 586.99,173.91 580.50,184.50 Z" fill="#eedea0"/>
<path d="M666.78,266.97 C655.11,271.23 650.23,266.84 649.90,258.39 C645.21,256.30 645.60,244.95 648.80,242.82 C642.84,238.80 648.10,238.78 650.16,233.95 C651.55,241.00 654.75,238.88 665.35,242.95 C665.46,248.08 673.11,251.67 675.25,257.88 666.78,266.97 Z" fill="#eedea0"/>
</g>
<rect x="773.0" y="5.0" width="374.0" height="350.0" rx="3" fill="#6a4010"/>
<clipPath id="cl2"><rect x="773.0" y="5.0" width="374.0" height="350.0" rx="3"/></clipPath>
<g clip-path="url(#cl2)">
<path d="M878.03,101.85 C868.95,110.32 862.74,108.18 859.14,100.52 C854.01,100.42 849.95,89.82 852.07,86.61 C845.01,85.23 849.85,83.16 849.87,77.91 C853.89,83.87 856.02,80.66 867.36,80.28 C869.46,84.96 877.91,85.29 882.30,90.18 878.03,101.85 Z" fill="#eedea0"/>
<path d="M964.50,184.50 C953.91,190.99 948.25,187.66 946.25,179.45 C941.24,178.32 939.36,167.13 942.08,164.41 C935.44,161.65 940.59,160.59 941.65,155.44 C944.41,162.08 947.13,159.36 958.32,161.24 C959.45,166.25 967.66,168.25 970.99,173.91 964.50,184.50 Z" fill="#eedea0"/>
<path d="M1050.78,266.97 C1039.11,271.23 1034.23,266.84 1033.90,258.39 C1029.21,256.30 1029.60,244.95 1032.80,242.82 C1026.84,238.80 1032.10,238.78 1034.16,233.95 C1035.55,241.00 1038.75,238.88 1049.35,242.95 C1049.46,248.08 1057.11,251.67 1059.25,257.88 1050.78,266.97 Z" fill="#eedea0"/>
</g>
<rect x="1157.0" y="5.0" width="374.0" height="350.0" rx="3" fill="#6a4010"/>
<clipPath id="cl3"><rect x="1157.0" y="5.0" width="374.0" height="350.0" rx="3"/></clipPath>
<g clip-path="url(#cl3)">
<path d="M1262.03,101.85 C1252.95,110.32 1246.74,108.18 1243.14,100.52 C1238.01,100.42 1233.95,89.82 1236.07,86.61 C1229.01,85.23 1233.85,83.16 1233.87,77.91 C1237.89,83.87 1240.02,80.66 1251.36,80.28 C1253.46,84.96 1261.91,85.29 1266.30,90.18 1262.03,101.85 Z" fill="#eedea0"/>
<path d="M1348.50,184.50 C1337.91,190.99 1332.25,187.66 1330.25,179.45 C1325.24,178.32 1323.36,167.13 1326.08,164.41 C1319.44,161.65 1324.59,160.59 1325.65,155.44 C1328.41,162.08 1331.13,159.36 1342.32,161.24 C1343.45,166.25 1351.66,168.25 1354.99,173.91 1348.50,184.50 Z" fill="#eedea0"/>
<path d="M1434.78,266.97 C1423.11,271.23 1418.23,266.84 1417.90,258.39 C1413.21,256.30 1413.60,244.95 1416.80,242.82 C1410.84,238.80 1416.10,238.78 1418.16,233.95 C1419.55,241.00 1422.75,238.88 1433.35,242.95 C1433.46,248.08 1441.11,251.67 1443.25,257.88 1434.78,266.97 Z" fill="#eedea0"/>
</g>
<rect x="1541.0" y="5.0" width="374.0" height="350.0" rx="3" fill="#6a4010"/>
<clipPath id="cl4"><rect x="1541.0" y="5.0" width="374.0" height="350.0" rx="3"/></clipPath>
<g clip-path="url(#cl4)">
<path d="M1646.03,101.85 C1636.95,110.32 1630.74,108.18 1627.14,100.52 C1622.01,100.42 1617.95,89.82 1620.07,86.61 C1613.01,85.23 1617.85,83.16 1617.87,77.91 C1621.89,83.87 1624.02,80.66 1635.36,80.28 C1637.46,84.96 1645.91,85.29 1650.30,90.18 1646.03,101.85 Z" fill="#eedea0"/>
<path d="M1732.50,184.50 C1721.91,190.99 1716.25,187.66 1714.25,179.45 C1709.24,178.32 1707.36,167.13 1710.08,164.41 C1703.44,161.65 1708.59,160.59 1709.65,155.44 C1712.41,162.08 1715.13,159.36 1726.32,161.24 C1727.45,166.25 1735.66,168.25 1738.99,173.91 1732.50,184.50 Z" fill="#eedea0"/>
<path d="M1818.78,266.97 C1807.11,271.23 1802.23,266.84 1801.90,258.39 C1797.21,256.30 1797.60,244.95 1800.80,242.82 C1794.84,238.80 1800.10,238.78 1802.16,233.95 C1803.55,241.00 1806.75,238.88 1817.35,242.95 C1817.46,248.08 1825.11,251.67 1827.25,257.88 1818.78,266.97 Z" fill="#eedea0"/>
</g>
<rect x="5.0" y="365.0" width="374.0" height="350.0" rx="3" fill="#6a4010"/>
<clipPath id="cl5"><rect x="5.0" y="365.0" width="374.0" height="350.0" rx="3"/></clipPath>
<g clip-path="url(#cl5)">
<path d="M110.03,461.85 C100.95,470.32 94.74,468.18 91.14,460.52 C86.01,460.42 81.95,449.82 84.07,446.61 C77.01,445.23 81.85,443.16 81.87,437.91 C85.89,443.87 88.02,440.66 99.36,440.28 C101.46,444.96 109.91,445.29 114.30,450.18 110.03,461.85 Z" fill="#eedea0"/>
<path d="M196.50,544.50 C185.91,550.99 180.25,547.66 178.25,539.45 C173.24,538.32 171.36,527.13 174.08,524.41 C167.44,521.65 172.59,520.59 173.65,515.44 C176.41,522.08 179.13,519.36 190.32,521.24 C191.45,526.25 199.66,528.25 202.99,533.91 196.50,544.50 Z" fill="#eedea0"/>
<path d="M282.78,626.97 C271.11,631.23 266.23,626.84 265.90,618.39 C261.21,616.30 261.60,604.95 264.80,602.82 C258.84,598.80 264.10,598.78 266.16,593.95 C267.55,601.00 270.75,598.88 281.35,602.95 C281.46,608.08 289.11,611.67 291.25,617.88 282.78,626.97 Z" fill="#eedea0"/>
</g>
<rect x="389.0" y="365.0" width="374.0" height="350.0" rx="3" fill="#6a4010"/>
<clipPath id="cl6"><rect x="389.0" y="365.0" width="374.0" height="350.0" rx="3"/></clipPath>
<g clip-path="url(#cl6)">
<path d="M494.03,461.85 C484.95,470.32 478.74,468.18 475.14,460.52 C470.01,460.42 465.95,449.82 468.07,446.61 C461.01,445.23 465.85,443.16 465.87,437.91 C469.89,443.87 472.02,440.66 483.36,440.28 C485.46,444.96 493.91,445.29 498.30,450.18 494.03,461.85 Z" fill="#eedea0"/>
<path d="M580.50,544.50 C569.91,550.99 564.25,547.66 562.25,539.45 C557.24,538.32 555.36,527.13 558.08,524.41 C551.44,521.65 556.59,520.59 557.65,515.44 C560.41,522.08 563.13,519.36 574.32,521.24 C575.45,526.25 583.66,528.25 586.99,533.91 580.50,544.50 Z" fill="#eedea0"/>
<path d="M666.78,626.97 C655.11,631.23 650.23,626.84 649.90,618.39 C645.21,616.30 645.60,604.95 648.80,602.82 C642.84,598.80 648.10,598.78 650.16,593.95 C651.55,601.00 654.75,598.88 665.35,602.95 C665.46,608.08 673.11,611.67 675.25,617.88 666.78,626.97 Z" fill="#eedea0"/>
</g>
<rect x="773.0" y="365.0" width="374.0" height="350.0" rx="3" fill="#6a4010"/>
<clipPath id="cl7"><rect x="773.0" y="365.0" width="374.0" height="350.0" rx="3"/></clipPath>
<g clip-path="url(#cl7)">
<path d="M878.03,461.85 C868.95,470.32 862.74,468.18 859.14,460.52 C854.01,460.42 849.95,449.82 852.07,446.61 C845.01,445.23 849.85,443.16 849.87,437.91 C853.89,443.87 856.02,440.66 867.36,440.28 C869.46,444.96 877.91,445.29 882.30,450.18 878.03,461.85 Z" fill="#eedea0"/>
<path d="M964.50,544.50 C953.91,550.99 948.25,547.66 946.25,539.45 C941.24,538.32 939.36,527.13 942.08,524.41 C935.44,521.65 940.59,520.59 941.65,515.44 C944.41,522.08 947.13,519.36 958.32,521.24 C959.45,526.25 967.66,528.25 970.99,533.91 964.50,544.50 Z" fill="#eedea0"/>
<path d="M1050.78,626.97 C1039.11,631.23 1034.23,626.84 1033.90,618.39 C1029.21,616.30 1029.60,604.95 1032.80,602.82 C1026.84,598.80 1032.10,598.78 1034.16,593.95 C1035.55,601.00 1038.75,598.88 1049.35,602.95 C1049.46,608.08 1057.11,611.67 1059.25,617.88 1050.78,626.97 Z" fill="#eedea0"/>
</g>
<rect x="1157.0" y="365.0" width="374.0" height="350.0" rx="3" fill="#6a4010"/>
<clipPath id="cl8"><rect x="1157.0" y="365.0" width="374.0" height="350.0" rx="3"/></clipPath>
<g clip-path="url(#cl8)">
<path d="M1262.03,461.85 C1252.95,470.32 1246.74,468.18 1243.14,460.52 C1238.01,460.42 1233.95,449.82 1236.07,446.61 C1229.01,445.23 1233.85,443.16 1233.87,437.91 C1237.89,443.87 1240.02,440.66 1251.36,440.28 C1253.46,444.96 1261.91,445.29 1266.30,450.18 1262.03,461.85 Z" fill="#eedea0"/>
<path d="M1348.50,544.50 C1337.91,550.99 1332.25,547.66 1330.25,539.45 C1325.24,538.32 1323.36,527.13 1326.08,524.41 C1319.44,521.65 1324.59,520.59 1325.65,515.44 C1328.41,522.08 1331.13,519.36 1342.32,521.24 C1343.45,526.25 1351.66,528.25 1354.99,533.91 1348.50,544.50 Z" fill="#eedea0"/>
<path d="M1434.78,626.97 C1423.11,631.23 1418.23,626.84 1417.90,618.39 C1413.21,616.30 1413.60,604.95 1416.80,602.82 C1410.84,598.80 1416.10,598.78 1418.16,593.95 C1419.55,601.00 1422.75,598.88 1433.35,602.95 C1433.46,608.08 1441.11,611.67 1443.25,617.88 1434.78,626.97 Z" fill="#eedea0"/>
</g>
<rect x="1541.0" y="365.0" width="374.0" height="350.0" rx="3" fill="#6a4010"/>
<clipPath id="cl9"><rect x="1541.0" y="365.0" width="374.0" height="350.0" rx="3"/></clipPath>
<g clip-path="url(#cl9)">
<path d="M1646.03,461.85 C1636.95,470.32 1630.74,468.18 1627.14,460.52 C1622.01,460.42 1617.95,449.82 1620.07,446.61 C1613.01,445.23 1617.85,443.16 1617.87,437.91 C1621.89,443.87 1624.02,440.66 1635.36,440.28 C1637.46,444.96 1645.91,445.29 1650.30,450.18 1646.03,461.85 Z" fill="#eedea0"/>
<path d="M1732.50,544.50 C1721.91,550.99 1716.25,547.66 1714.25,539.45 C1709.24,538.32 1707.36,527.13 1710.08,524.41 C1703.44,521.65 1708.59,520.59 1709.65,515.44 C1712.41,522.08 1715.13,519.36 1726.32,521.24 C1727.45,526.25 1735.66,528.25 1738.99,533.91 1732.50,544.50 Z" fill="#eedea0"/>
<path d="M1818.78,626.97 C1807.11,631.23 1802.23,626.84 1801.90,618.39 C1797.21,616.30 1797.60,604.95 1800.80,602.82 C1794.84,598.80 1800.10,598.78 1802.16,593.95 C1803.55,601.00 1806.75,598.88 1817.35,602.95 C1817.46,608.08 1825.11,611.67 1827.25,617.88 1818.78,626.97 Z" fill="#eedea0"/>
</g>
<rect x="5.0" y="725.0" width="374.0" height="350.0" rx="3" fill="#6a4010"/>
<clipPath id="cl10"><rect x="5.0" y="725.0" width="374.0" height="350.0" rx="3"/></clipPath>
<g clip-path="url(#cl10)">
<path d="M110.03,821.85 C100.95,830.32 94.74,828.18 91.14,820.52 C86.01,820.42 81.95,809.82 84.07,806.61 C77.01,805.23 81.85,803.16 81.87,797.91 C85.89,803.87 88.02,800.66 99.36,800.28 C101.46,804.96 109.91,805.29 114.30,810.18 110.03,821.85 Z" fill="#eedea0"/>
<path d="M196.50,904.50 C185.91,910.99 180.25,907.66 178.25,899.45 C173.24,898.32 171.36,887.13 174.08,884.41 C167.44,881.65 172.59,880.59 173.65,875.44 C176.41,882.08 179.13,879.36 190.32,881.24 C191.45,886.25 199.66,888.25 202.99,893.91 196.50,904.50 Z" fill="#eedea0"/>
<path d="M282.78,986.97 C271.11,991.23 266.23,986.84 265.90,978.39 C261.21,976.30 261.60,964.95 264.80,962.82 C258.84,958.80 264.10,958.78 266.16,953.95 C267.55,961.00 270.75,958.88 281.35,962.95 C281.46,968.08 289.11,971.67 291.25,977.88 282.78,986.97 Z" fill="#eedea0"/>
</g>
<rect x="389.0" y="725.0" width="374.0" height="350.0" rx="3" fill="#6a4010"/>
<clipPath id="cl11"><rect x="389.0" y="725.0" width="374.0" height="350.0" rx="3"/></clipPath>
<g clip-path="url(#cl11)">
<path d="M494.03,821.85 C484.95,830.32 478.74,828.18 475.14,820.52 C470.01,820.42 465.95,809.82 468.07,806.61 C461.01,805.23 465.85,803.16 465.87,797.91 C469.89,803.87 472.02,800.66 483.36,800.28 C485.46,804.96 493.91,805.29 498.30,810.18 494.03,821.85 Z" fill="#eedea0"/>
<path d="M580.50,904.50 C569.91,910.99 564.25,907.66 562.25,899.45 C557.24,898.32 555.36,887.13 558.08,884.41 C551.44,881.65 556.59,880.59 557.65,875.44 C560.41,882.08 563.13,879.36 574.32,881.24 C575.45,886.25 583.66,888.25 586.99,893.91 580.50,904.50 Z" fill="#eedea0"/>
<path d="M666.78,986.97 C655.11,991.23 650.23,986.84 649.90,978.39 C645.21,976.30 645.60,964.95 648.80,962.82 C642.84,958.80 648.10,958.78 650.16,953.95 C651.55,961.00 654.75,958.88 665.35,962.95 C665.46,968.08 673.11,971.67 675.25,977.88 666.78,986.97 Z" fill="#eedea0"/>
</g>
<rect x="773.0" y="725.0" width="374.0" height="350.0" rx="3" fill="#6a4010"/>
<clipPath id="cl12"><rect x="773.0" y="725.0" width="374.0" height="350.0" rx="3"/></clipPath>
<g clip-path="url(#cl12)">
<path d="M878.03,821.85 C868.95,830.32 862.74,828.18 859.14,820.52 C854.01,820.42 849.95,809.82 852.07,806.61 C845.01,805.23 849.85,803.16 849.87,797.91 C853.89,803.87 856.02,800.66 867.36,800.28 C869.46,804.96 877.91,805.29 882.30,810.18 878.03,821.85 Z" fill="#eedea0"/>
<path d="M964.50,904.50 C953.91,910.99 948.25,907.66 946.25,899.45 C941.24,898.32 939.36,887.13 942.08,884.41 C935.44,881.65 940.59,880.59 941.65,875.44 C944.41,882.08 947.13,879.36 958.32,881.24 C959.45,886.25 967.66,888.25 970.99,893.91 964.50,904.50 Z" fill="#eedea0"/>
<path d="M1050.78,986.97 C1039.11,991.23 1034.23,986.84 1033.90,978.39 C1029.21,976.30 1029.60,964.95 1032.80,962.82 C1026.84,958.80 1032.10,958.78 1034.16,953.95 C1035.55,961.00 1038.75,958.88 1049.35,962.95 C1049.46,968.08 1057.11,971.67 1059.25,977.88 1050.78,986.97 Z" fill="#eedea0"/>
</g>
<rect x="1157.0" y="725.0" width="374.0" height="350.0" rx="3" fill="#6a4010"/>
<clipPath id="cl13"><rect x="1157.0" y="725.0" width="374.0" height="350.0" rx="3"/></clipPath>
<g clip-path="url(#cl13)">
<path d="M1262.03,821.85 C1252.95,830.32 1246.74,828.18 1243.14,820.52 C1238.01,820.42 1233.95,809.82 1236.07,806.61 C1229.01,805.23 1233.85,803.16 1233.87,797.91 C1237.89,803.87 1240.02,800.66 1251.36,800.28 C1253.46,804.96 1261.91,805.29 1266.30,810.18 1262.03,821.85 Z" fill="#eedea0"/>
<path d="M1348.50,904.50 C1337.91,910.99 1332.25,907.66 1330.25,899.45 C1325.24,898.32 1323.36,887.13 1326.08,884.41 C1319.44,881.65 1324.59,880.59 1325.65,875.44 C1328.41,882.08 1331.13,879.36 1342.32,881.24 C1343.45,886.25 1351.66,888.25 1354.99,893.91 1348.50,904.50 Z" fill="#eedea0"/>
<path d="M1434.78,986.97 C1423.11,991.23 1418.23,986.84 1417.90,978.39 C1413.21,976.30 1413.60,964.95 1416.80,962.82 C1410.84,958.80 1416.10,958.78 1418.16,953.95 C1419.55,961.00 1422.75,958.88 1433.35,962.95 C1433.46,968.08 1441.11,971.67 1443.25,977.88 1434.78,986.97 Z" fill="#eedea0"/>
</g>
<rect x="1541.0" y="725.0" width="374.0" height="350.0" rx="3" fill="#6a4010"/>
<clipPath id="cl14"><rect x="1541.0" y="725.0" width="374.0" height="350.0" rx="3"/></clipPath>
<g clip-path="url(#cl14)">
<path d="M1646.03,821.85 C1636.95,830.32 1630.74,828.18 1627.14,820.52 C1622.01,820.42 1617.95,809.82 1620.07,806.61 C1613.01,805.23 1617.85,803.16 1617.87,797.91 C1621.89,803.87 1624.02,800.66 1635.36,800.28 C1637.46,804.96 1645.91,805.29 1650.30,810.18 1646.03,821.85 Z" fill="#eedea0"/>
<path d="M1732.50,904.50 C1721.91,910.99 1716.25,907.66 1714.25,899.45 C1709.24,898.32 1707.36,887.13 1710.08,884.41 C1703.44,881.65 1708.59,880.59 1709.65,875.44 C1712.41,882.08 1715.13,879.36 1726.32,881.24 C1727.45,886.25 1735.66,888.25 1738.99,893.91 1732.50,904.50 Z" fill="#eedea0"/>
<path d="M1818.78,986.97 C1807.11,991.23 1802.23,986.84 1801.90,978.39 C1797.21,976.30 1797.60,964.95 1800.80,962.82 C1794.84,958.80 1800.10,958.78 1802.16,953.95 C1803.55,961.00 1806.75,958.88 1817.35,962.95 C1817.46,968.08 1825.11,971.67 1827.25,977.88 1818.78,986.97 Z" fill="#eedea0"/>
</g>
</svg>