<svg xmlns="http://www.w3.org/2000/svg" width="1200" height="660" viewBox="0 0 1200 660">
<rect width="1200" height="660" fill="#e8d8cc"/>
<rect x="5.0" y="5.0" width="190.0" height="320.0" rx="3" fill="#7a3020"/>
<clipPath id="cl0"><rect x="5.0" y="5.0" width="190.0" height="320.0" rx="3"/></clipPath>
<g clip-path="url(#cl0)">
<path d="M75.37,115.36 C64.92,119.21 55.61,113.79 52.17,100.42 C50.00,93.04 55.77,92.96 58.29,97.27 C60.05,102.62 67.79,107.60 75.37,115.36 Z" fill="#e8d8cc"/>
<path d="M139.61,229.62 C128.49,230.22 121.20,222.29 121.86,208.49 C121.97,200.80 127.50,202.43 128.63,207.29 C128.74,212.92 134.65,219.96 139.61,229.62 Z" fill="#e8d8cc"/>
<rect x="10.0" y="10.0" width="180.0" height="310.0" rx="2" fill="none" stroke="#e8d8cc" stroke-width="1" opacity="0.4"/>
<rect x="13.0" y="13.0" width="174.0" height="304.0" rx="1" fill="none" stroke="#e8d8cc" stroke-width="0.5" opacity="0.25"/>
</g>
<rect x="205.0" y="5.0" width="190.0" height="320.0" rx="3" fill="#7a3020"/>
<clipPath id="cl1"><rect x="205.0" y="5.0" width="190.0" height="320.0" rx="3"/></clipPath>
<g clip-path="url(#cl1)">
<path d="M275.37,115.36 C264.92,119.21 255.61,113.79 252.17,100.42 C250.00,93.04 255.77,92.96 258.29,97.27 C260.05,102.62 267.79,107.60 275.37,115.36 Z" fill="#e8d8cc"/>
<path d="M339.61,229.62 C328.49,230.22 321.20,222.29 321.86,208.49 C321.97,200.80 327.50,202.43 328.63,207.29 C328.74,212.92 334.65,219.96 339.61,229.62 Z" fill="#e8d8cc"/>
<rect x="210.0" y="10.0" width="180.0" height="310.0" rx="2" fill="none" stroke="#e8d8cc" stroke-width="1" opacity="0.4"/>
<rect x="213.0" y="13.0" width="174.0" height="304.0" rx="1" fill="none" stroke="#e8d8cc" stroke-width="0.5" opacity="0.25"/>
</g>
<rect x="405.0" y="5.0" width="190.0" height="320.0" rx="3" fill="#7a3020"/>
<clipPath id="cl2"><rect x="405.0" y="5.0" width="190.0" height="320.0" rx="3"/></clipPath>
<g clip-path="url(#cl2)">
<path d="M475.37,115.36 C464.92,119.21 455.61,113.79 452.17,100.42 C450.00,93.04 455.77,92.96 458.29,97.27 C460.05,102.62 467.79,107.60 475.37,115.36 Z" fill="#e8d8cc"/>
<path d="M539.61,229.62 C528.49,230.22 521.20,222.29 521.86,208.49 C521.97,200.80 527.50,202.43 528.63,207.29 C528.74,212.92 534.65,219.96 539.61,229.62 Z" fill="#e8d8cc"/>
<rect x="410.0" y="10.0" width="180.0" height="310.0" rx="2" fill="none" stroke="#e8d8cc" stroke-width="1" opacity="0.4"/>
<rect x="413.0" y="13.0" width="174.0" height="304.0" rx="1" fill="none" stroke="#e8d8cc" stroke-width="0.5" opacity="0.25"/>
</g>
<rect x="605.0" y="5.0" width="190.0" height="320.0" rx="3" fill="#7a3020"/>
<clipPath id="cl3"><rect x="605.0" y="5.0" width="190.0" height="320.0" rx="3"/></clipPath>
<g clip-path="url(#cl3)">
<path d="M675.37,115.36 C664.92,119.21 655.61,113.79 652.17,100.42 C650.00,93.04 655.77,92.96 658.29,97.27 C660.05,102.62 667.79,107.60 675.37,115.36 Z" fill="#e8d8cc"/>
<path d="M739.61,229.62 C728.49,230.22 721.20,222.29 721.86,208.49 C721.97,200.80 727.50,202.43 728.63,207.29 C728.74,212.92 734.65,219.96 739.61,229.62 Z" fill="#e8d8cc"/>
<rect x="610.0" y="10.0" width="180.0" height="310.0" rx="2" fill="none" stroke="#e8d8cc" stroke-width="1" opacity="0.4"/>
<rect x="613.0" y="13.0" width="174.0" height="304.0" rx="1" fill="none" stroke="#e8d8cc" stroke-width="0.5" opacity="0.25"/>
</g>
<rect x="805.0" y="5.0" width="190.0" height="320.0" rx="3" fill="#7a3020"/>
<clipPath id="cl4"><rect x="805.0" y="5.0" width="190.0" height="320.0" rx="3"/></clipPath>
<g clip-path="url(#cl4)">
<path d="M875.37,115.36 C864.92,119.21 855.61,113.79 852.17,100.42 C850.00,93.04 855.77,92.96 858.29,97.27 C860.05,102.62 867.79,107.60 875.37,115.36 Z" fill="#e8d8cc"/>
<path d="M939.61,229.62 C928.49,230.22 921.20,222.29 921.86,208.49 C921.97,200.80 927.50,202.43 928.63,207.29 C928.74,212.92 934.65,219.96 939.61,229.62 Z" fill="#e8d8cc"/>
<rect x="810.0" y="10.0" width="180.0" height="310.0" rx="2" fill="none" stroke="#e8d8cc" stroke-width="1" opacity="0.4"/>
<rect x="813.0" y="13.0" width="174.0" height="304.0" rx="1" fill="none" stroke="#e8d8cc" stroke-width="0.5" opacity="0.25"/>
</g>
<rect x="1005.0" y="5.0" width="190.0" height="320.0" rx="3" fill="#7a3020"/>
<clipPath id="cl5"><rect x="1005.0" y="5.0" width="190.0" height="320.0" rx="3"/></clipPath>
<g clip-path="url(#cl5)">
<path d="M1075.37,115.36 C1064.92,119.21 1055.61,113.79 1052.17,100.42 C1050.00,93.04 1055.77,92.96 1058.29,97.27 C1060.05,102.62 1067.79,107.60 1075.37,115.36 Z" fill="#e8d8cc"/>
<path d="M1139.61,229.62 C1128.49,230.22 1121.20,222.29 1121.86,208.49 C1121.97,200.80 1127.50,202.43 1128.63,207.29 C1128.74,212.92 1134.65,219.96 1139.61,229.62 Z" fill="#e8d8cc"/>
<rect x="1010.0" y="10.0" width="180.0" height="310.0" rx="2" fill="none" stroke="#e8d8cc" stroke-width="1" opacity="0.4"/>
<rect x="1013.0" y="13.0" width="174.0" height="304.0" rx="1" fill="none" stroke="#e8d8cc" stroke-width="0.5" opacity="0.25"/>
</g>
<rect x="5.0" y="335.0" width="190.0" height="320.0" rx="3" fill="#7a3020"/>
<clipPath id="cl6"><rect x="5.0" y="335.0" width="190.0" height="320.0" rx="3"/></clipPath>
<g clip-path="url(#cl6)">
<path d="M75.37,445.36 C64.92,449.21 55.61,443.79 52.17,430.42 C50.00,423.04 55.77,422.96 58.29,427.27 C60.05,432.62 67.79,437.60 75.37,445.36 Z" fill="#e8d8cc"/>
<path d="M139.61,559.62 C128.49,560.22 121.20,552.29 121.86,538.49 C121.97,530.80 127.50,532.43 128.63,537.29 C128.74,542.92 134.65,549.96 139.61,559.62 Z" fill="#e8d8cc"/>
<rect x="10.0" y="340.0" width="180.0" height="310.0" rx="2" fill="none" stroke="#e8d8cc" stroke-width="1" opacity="0.4"/>
<rect x="13.0" y="343.0" width="174.0" height="304.0" rx="1" fill="none" stroke="#e8d8cc" stroke-width="0.5" opacity="0.25"/>
</g>
<rect x="205.0" y="335.0" width="190.0" height="320.0" rx="3" fill="#7a3020"/>
<clipPath id="cl7"><rect x="205.0" y="335.0" width="190.0" height="320.0" rx="3"/></clipPath>
<g clip-path="url(#cl7)">
<path d="M275.37,445.36 C264.92,449.21 255.61,443.79 252.17,430.42 C250.00,423.04 255.77,422.96 258.29,427.27 C260.05,432.62 267.79,437.60 275.37,445.36 Z" fill="#e8d8cc"/>
<path d="M339.61,559.62 C328.49,560.22 321.20,552.29 321.86,538.49 C321.97,530.80 327.50,532.43 328.63,537.29 C328.74,542.92 334.65,549.96 339.61,559.62 Z" fill="#e8d8cc"/>
<rect x="210.0" y="340.0" width="180.0" height="310.0" rx="2" fill="none" stroke="#e8d8cc" stroke-width="1" opacity="0.4"/>
<rect x="213.0" y="343.0" width="174.0" height="304.0" rx="1" fill="none" stroke="#e8d8cc" stroke-width="0.5" opacity="0.25"/>
</g>
<rect x="405.0" y="335.0" width="190.0" height="320.0" rx="3" fill="#7a3020"/>
<clipPath id="cl8"><rect x="405.0" y="335.0" width="190.0" height="320.0" rx="3"/></clipPath>
<g clip-path="url(#cl8)">
<path d="M475.37,445.36 C464.92,449.21 455.61,443.79 452.17,430.42 C450.00,423.04 455.77,422.96 458.29,427.27 C460.05,432.62 467.79,437.60 475.37,445.36 Z" fill="#e8d8cc"/>
<path d="M539.61,559.62 C528.49,560.22 521.20,552.29 521.86,538.49 C521.97,530.80 527.50,532.43 528.63,537.29 C528.74,542.92 534.65,549.96 539.61,559.62 Z" fill="#e8d8cc"/>
<rect x="410.0" y="340.0" width="180.0" height="310.0" rx="2" fill="none" stroke="#e8d8cc" stroke-width="1" opacity="0.4"/>
<rect x="413.0" y="343.0" width="174.0" height="304.0" rx="1" fill="none" stroke="#e8d8cc" stroke-width="0.5" opacity="0.25"/>
</g>
<rect x="605.0" y="335.0" width="190.0" height="320.0" rx="3" fill="#7a3020"/>
<clipPath id="cl9"><rect x="605.0" y="335.0" width="190.0" height="320.0" rx="3"/></clipPath>
<g clip-path="url(#cl9)">
<path d="M675.37,445.36 C664.92,449.21 655.61,443.79 652.17,430.42 C650.00,423.04 655.77,422.96 658.29,427.27 C660.05,432.62 667.79,437.60 675.37,445.36 Z" fill="#e8d8cc"/>
<path d="M739.61,559.62 C728.49,560.22 721.20,552.29 721.86,538.49 C721.97,530.80 727.50,532.43 728.63,537.29 C728.74,542.92 734.65,549.96 739.61,559.62 Z" fill="#e8d8cc"/>
<rect x="610.0" y="340.0" width="180.0" height="310.0" rx="2" fill="none" stroke="#e8d8cc" stroke-width="1" opacity="0.4"/>
<rect x="613.0" y="343.0" width="174.0" height="304.0" rx="1" fill="none" stroke="#e8d8cc" stroke-width="0.5" opacity="0.25"/>
</g>
<rect x="805.0" y="335.0" width="190.0" height="320.0" rx="3" fill="#7a3020"/>
<clipPath id="cl10"><rect x="805.0" y="335.0" width="190.0" height="320.0" rx="3"/></clipPath>
<g clip-path="url(#cl10)">
<path d="M875.37,445.36 C864.92,449.21 855.61,443.79 852.17,430.42 C850.00,423.04 855.77,422.96 858.29,427.27 C860.05,432.62 867.79,437.60 875.37,445.36 Z" fill="#e8d8cc"/>
<path d="M939.61,559.62 C928.49,560.22 921.20,552.29 921.86,538.49 C921.97,530.80 927.50,532.43 928.63,537.29 C928.74,542.92 934.65,549.96 939.61,559.62 Z" fill="#e8d8cc"/>
<rect x="810.0" y="340.0" width="180.0" height="310.0" rx="2" fill="none" stroke="#e8d8cc" stroke-width="1" opacity="0.4"/>
<rect x="813.0" y="343.0" width="174.0" height="304.0" rx="1" fill="none" stroke="#e8d8cc" stroke-width="0.5" opacity="0.25"/>
</g>
<rect x="1005.0" y="335.0" width="190.0" height="320.0" rx="3" fill="#7a3020"/>
<clipPath id="cl11"><rect x="1005.0" y="335.0" width="190.0" height="320.0" rx="3"/></clipPath>
<g clip-path="url(#cl11)">
<path d="M1075.37,445.36 C1064.92,449.21 1055.61,443.79 1052.17,430.42 C1050.00,423.04 1055.77,422.96 1058.29,427.27 C1060.05,432.62 1067.79,437.60 1075.37,445.36 Z" fill="#e8d8cc"/>
<path d="M1139.61,559.62 C1128.49,560.22 1121.20,552.29 1121.86,538.49 C1121.97,530.80 1127.50,532.43 1128.63,537.29 C1128.74,542.92 1134.65,549.96 1139.61,559.62 Z" fill="#e8d8cc"/>
<rect x="1010.0" y="340.0" width="180.0" height="310.0" rx="2" fill="none" stroke="#e8d8cc" stroke-width="1" opacity="0.4"/>
<rect x="1013.0" y="343.0" width="174.0" height="304.0" rx="1" fill="none" stroke="#e8d8cc" stroke-width="0.5" opacity="0.25"/>
</g>
</svg>