<svg xmlns="http://www.w3.org/2000/svg" width="1920" height="1080" viewBox="0 0 1920 1080">
<rect width="1920" height="1080" fill="#eedea0"/>
<rect x="4.0" y="4.0" width="376.0" height="262.0" rx="3" fill="#6a4010"/>
<clipPath id="cl0"><rect x="4.0" y="4.0" width="376.0" height="262.0" rx="3"/></clipPath>
<g clip-path="url(#cl0)">
<path d="M195.74,126.04 C192.00,132.33 183.26,135.03 172.53,130.08 C179.52,136.82 187.01,133.27 175.78,127.59 C165.79,131.72 164.04,128.62 166.54,127.84 C165.04,126.04 166.54,127.84 166.54,124.24 C164.04,123.46 165.79,120.36 175.78,124.49 C187.01,118.81 179.52,115.26 172.53,122.00 C183.26,117.05 192.00,119.75 195.74,126.04 Z" fill="#eedea0"/>
<path d="M200.96,138.74 C194.67,135.00 191.97,126.26 196.92,115.53 C190.18,122.52 193.73,130.01 199.41,118.78 C195.28,108.79 198.38,107.04 199.16,109.54 C200.96,108.04 199.16,109.54 202.76,109.54 C203.54,107.04 206.64,108.79 202.51,118.78 C208.19,130.01 211.74,122.52 205.00,115.53 C209.95,126.26 207.25,135.00 200.96,138.74 Z" fill="#eedea0"/>
<path d="M188.26,143.96 C192.00,137.67 200.74,134.97 211.47,139.92 C204.48,133.18 196.99,136.73 208.22,142.41 C218.21,138.28 219.96,141.38 217.46,142.16 C218.96,143.96 217.46,142.16 217.46,145.76 C219.96,146.54 218.21,149.64 208.22,145.51 C196.99,151.19 204.48,154.74 211.47,148.00 C200.74,152.95 192.00,150.25 188.26,143.96 Z" fill="#eedea0"/>
<path d="M183.04,131.26 C189.33,135.00 192.03,143.74 187.08,154.47 C193.82,147.48 190.27,139.99 184.59,151.22 C188.72,161.21 185.62,162.96 184.84,160.46 C183.04,161.96 184.84,160.46 181.24,160.46 C180.46,162.96 177.36,161.21 181.49,151.22 C175.81,139.99 172.26,147.48 179.00,154.47 C174.05,143.74 176.75,135.00 183.04,131.26 Z" fill="#eedea0"/>
<rect x="9.0" y="9.0" width="366.0" height="252.0" rx="2" fill="none" stroke="#eedea0" stroke-width="1" opacity="0.5"/>
</g>
<rect x="388.0" y="4.0" width="376.0" height="262.0" rx="3" fill="#6a4010"/>
<clipPath id="cl1"><rect x="388.0" y="4.0" width="376.0" height="262.0" rx="3"/></clipPath>
<g clip-path="url(#cl1)">
<path d="M579.74,126.04 C576.00,132.33 567.26,135.03 556.53,130.08 C563.52,136.82 571.01,133.27 559.78,127.59 C549.79,131.72 548.04,128.62 550.54,127.84 C549.04,126.04 550.54,127.84 550.54,124.24 C548.04,123.46 549.79,120.36 559.78,124.49 C571.01,118.81 563.52,115.26 556.53,122.00 C567.26,117.05 576.00,119.75 579.74,126.04 Z" fill="#eedea0"/>
<path d="M584.96,138.74 C578.67,135.00 575.97,126.26 580.92,115.53 C574.18,122.52 577.73,130.01 583.41,118.78 C579.28,108.79 582.38,107.04 583.16,109.54 C584.96,108.04 583.16,109.54 586.76,109.54 C587.54,107.04 590.64,108.79 586.51,118.78 C592.19,130.01 595.74,122.52 589.00,115.53 C593.95,126.26 591.25,135.00 584.96,138.74 Z" fill="#eedea0"/>
<path d="M572.26,143.96 C576.00,137.67 584.74,134.97 595.47,139.92 C588.48,133.18 580.99,136.73 592.22,142.41 C602.21,138.28 603.96,141.38 601.46,142.16 C602.96,143.96 601.46,142.16 601.46,145.76 C603.96,146.54 602.21,149.64 592.22,145.51 C580.99,151.19 588.48,154.74 595.47,148.00 C584.74,152.95 576.00,150.25 572.26,143.96 Z" fill="#eedea0"/>
<path d="M567.04,131.26 C573.33,135.00 576.03,143.74 571.08,154.47 C577.82,147.48 574.27,139.99 568.59,151.22 C572.72,161.21 569.62,162.96 568.84,160.46 C567.04,161.96 568.84,160.46 565.24,160.46 C564.46,162.96 561.36,161.21 565.49,151.22 C559.81,139.99 556.26,147.48 563.00,154.47 C558.05,143.74 560.75,135.00 567.04,131.26 Z" fill="#eedea0"/>
<rect x="393.0" y="9.0" width="366.0" height="252.0" rx="2" fill="none" stroke="#eedea0" stroke-width="1" opacity="0.5"/>
</g>
<rect x="772.0" y="4.0" width="376.0" height="262.0" rx="3" fill="#6a4010"/>
<clipPath id="cl2"><rect x="772.0" y="4.0" width="376.0" height="262.0" rx="3"/></clipPath>
<g clip-path="url(#cl2)">
<path d="M963.74,126.04 C960.00,132.33 951.26,135.03 940.53,130.08 C947.52,136.82 955.01,133.27 943.78,127.59 C933.79,131.72 932.04,128.62 934.54,127.84 C933.04,126.04 934.54,127.84 934.54,124.24 C932.04,123.46 933.79,120.36 943.78,124.49 C955.01,118.81 947.52,115.26 940.53,122.00 C951.26,117.05 960.00,119.75 963.74,126.04 Z" fill="#eedea0"/>
<path d="M968.96,138.74 C962.67,135.00 959.97,126.26 964.92,115.53 C958.18,122.52 961.73,130.01 967.41,118.78 C963.28,108.79 966.38,107.04 967.16,109.54 C968.96,108.04 967.16,109.54 970.76,109.54 C971.54,107.04 974.64,108.79 970.51,118.78 C976.19,130.01 979.74,122.52 973.00,115.53 C977.95,126.26 975.25,135.00 968.96,138.74 Z" fill="#eedea0"/>
<path d="M956.26,143.96 C960.00,137.67 968.74,134.97 979.47,139.92 C972.48,133.18 964.99,136.73 976.22,142.41 C986.21,138.28 987.96,141.38 985.46,142.16 C986.96,143.96 985.46,142.16 985.46,145.76 C987.96,146.54 986.21,149.64 976.22,145.51 C964.99,151.19 972.48,154.74 979.47,148.00 C968.74,152.95 960.00,150.25 956.26,143.96 Z" fill="#eedea0"/>
<path d="M951.04,131.26 C957.33,135.00 960.03,143.74 955.08,154.47 C961.82,147.48 958.27,139.99 952.59,151.22 C956.72,161.21 953.62,162.96 952.84,160.46 C951.04,161.96 952.84,160.46 949.24,160.46 C948.46,162.96 945.36,161.21 949.49,151.22 C943.81,139.99 940.26,147.48 947.00,154.47 C942.05,143.74 944.75,135.00 951.04,131.26 Z" fill="#eedea0"/>
<rect x="777.0" y="9.0" width="366.0" height="252.0" rx="2" fill="none" stroke="#eedea0" stroke-width="1" opacity="0.5"/>
</g>
<rect x="1156.0" y="4.0" width="376.0" height="262.0" rx="3" fill="#6a4010"/>
<clipPath id="cl3"><rect x="1156.0" y="4.0" width="376.0" height="262.0" rx="3"/></clipPath>
<g clip-path="url(#cl3)">
<path d="M1347.74,126.04 C1344.00,132.33 1335.26,135.03 1324.53,130.08 C1331.52,136.82 1339.01,133.27 1327.78,127.59 C1317.79,131.72 1316.04,128.62 1318.54,127.84 C1317.04,126.04 1318.54,127.84 1318.54,124.24 C1316.04,123.46 1317.79,120.36 1327.78,124.49 C1339.01,118.81 1331.52,115.26 1324.53,122.00 C1335.26,117.05 1344.00,119.75 1347.74,126.04 Z" fill="#eedea0"/>
<path d="M1352.96,138.74 C1346.67,135.00 1343.97,126.26 1348.92,115.53 C1342.18,122.52 1345.73,130.01 1351.41,118.78 C1347.28,108.79 1350.38,107.04 1351.16,109.54 C1352.96,108.04 1351.16,109.54 1354.76,109.54 C1355.54,107.04 1358.64,108.79 1354.51,118.78 C1360.19,130.01 1363.74,122.52 1357.00,115.53 C1361.95,126.26 1359.25,135.00 1352.96,138.74 Z" fill="#eedea0"/>
<path d="M1340.26,143.96 C1344.00,137.67 1352.74,134.97 1363.47,139.92 C1356.48,133.18 1348.99,136.73 1360.22,142.41 C1370.21,138.28 1371.96,141.38 1369.46,142.16 C1370.96,143.96 1369.46,142.16 1369.46,145.76 C1371.96,146.54 1370.21,149.64 1360.22,145.51 C1348.99,151.19 1356.48,154.74 1363.47,148.00 C1352.74,152.95 1344.00,150.25 1340.26,143.96 Z" fill="#eedea0"/>
<path d="M1335.04,131.26 C1341.33,135.00 1344.03,143.74 1339.08,154.47 C1345.82,147.48 1342.27,139.99 1336.59,151.22 C1340.72,161.21 1337.62,162.96 1336.84,160.46 C1335.04,161.96 1336.84,160.46 1333.24,160.46 C1332.46,162.96 1329.36,161.21 1333.49,151.22 C1327.81,139.99 1324.26,147.48 1331.00,154.47 C1326.05,143.74 1328.75,135.00 1335.04,131.26 Z" fill="#eedea0"/>
<rect x="1161.0" y="9.0" width="366.0" height="252.0" rx="2" fill="none" stroke="#eedea0" stroke-width="1" opacity="0.5"/>
</g>
<rect x="1540.0" y="4.0" width="376.0" height="262.0" rx="3" fill="#6a4010"/>
<clipPath id="cl4"><rect x="1540.0" y="4.0" width="376.0" height="262.0" rx="3"/></clipPath>
<g clip-path="url(#cl4)">
<path d="M1731.74,126.04 C1728.00,132.33 1719.26,135.03 1708.53,130.08 C1715.52,136.82 1723.01,133.27 1711.78,127.59 C1701.79,131.72 1700.04,128.62 1702.54,127.84 C1701.04,126.04 1702.54,127.84 1702.54,124.24 C1700.04,123.46 1701.79,120.36 1711.78,124.49 C1723.01,118.81 1715.52,115.26 1708.53,122.00 C1719.26,117.05 1728.00,119.75 1731.74,126.04 Z" fill="#eedea0"/>
<path d="M1736.96,138.74 C1730.67,135.00 1727.97,126.26 1732.92,115.53 C1726.18,122.52 1729.73,130.01 1735.41,118.78 C1731.28,108.79 1734.38,107.04 1735.16,109.54 C1736.96,108.04 1735.16,109.54 1738.76,109.54 C1739.54,107.04 1742.64,108.79 1738.51,118.78 C1744.19,130.01 1747.74,122.52 1741.00,115.53 C1745.95,126.26 1743.25,135.00 1736.96,138.74 Z" fill="#eedea0"/>
<path d="M1724.26,143.96 C1728.00,137.67 1736.74,134.97 1747.47,139.92 C1740.48,133.18 1732.99,136.73 1744.22,142.41 C1754.21,138.28 1755.96,141.38 1753.46,142.16 C1754.96,143.96 1753.46,142.16 1753.46,145.76 C1755.96,146.54 1754.21,149.64 1744.22,145.51 C1732.99,151.19 1740.48,154.74 1747.47,148.00 C1736.74,152.95 1728.00,150.25 1724.26,143.96 Z" fill="#eedea0"/>
<path d="M1719.04,131.26 C1725.33,135.00 1728.03,143.74 1723.08,154.47 C1729.82,147.48 1726.27,139.99 1720.59,151.22 C1724.72,161.21 1721.62,162.96 1720.84,160.46 C1719.04,161.96 1720.84,160.46 1717.24,160.46 C1716.46,162.96 1713.36,161.21 1717.49,151.22 C1711.81,139.99 1708.26,147.48 1715.00,154.47 C1710.05,143.74 1712.75,135.00 1719.04,131.26 Z" fill="#eedea0"/>
<rect x="1545.0" y="9.0" width="366.0" height="252.0" rx="2" fill="none" stroke="#eedea0" stroke-width="1" opacity="0.5"/>
</g>
<rect x="196.0" y="274.0" width="376.0" height="262.0" rx="3" fill="#6a4010"/>
<clipPath id="cl5"><rect x="196.0" y="274.0" width="376.0" height="262.0" rx="3"/></clipPath>
<g clip-path="url(#cl5)">
<path d="M387.74,396.04 C384.00,402.33 375.26,405.03 364.53,400.08 C371.52,406.82 379.01,403.27 367.78,397.59 C357.79,401.72 356.04,398.62 358.54,397.84 C357.04,396.04 358.54,397.84 358.54,394.24 C356.04,393.46 357.79,390.36 367.78,394.49 C379.01,388.81 371.52,385.26 364.53,392.00 C375.26,387.05 384.00,389.75 387.74,396.04 Z" fill="#eedea0"/>
<path d="M392.96,408.74 C386.67,405.00 383.97,396.26 388.92,385.53 C382.18,392.52 385.73,400.01 391.41,388.78 C387.28,378.79 390.38,377.04 391.16,379.54 C392.96,378.04 391.16,379.54 394.76,379.54 C395.54,377.04 398.64,378.79 394.51,388.78 C400.19,400.01 403.74,392.52 397.00,385.53 C401.95,396.26 399.25,405.00 392.96,408.74 Z" fill="#eedea0"/>
<path d="M380.26,413.96 C384.00,407.67 392.74,404.97 403.47,409.92 C396.48,403.18 388.99,406.73 400.22,412.41 C410.21,408.28 411.96,411.38 409.46,412.16 C410.96,413.96 409.46,412.16 409.46,415.76 C411.96,416.54 410.21,419.64 400.22,415.51 C388.99,421.19 396.48,424.74 403.47,418.00 C392.74,422.95 384.00,420.25 380.26,413.96 Z" fill="#eedea0"/>
<path d="M375.04,401.26 C381.33,405.00 384.03,413.74 379.08,424.47 C385.82,417.48 382.27,409.99 376.59,421.22 C380.72,431.21 377.62,432.96 376.84,430.46 C375.04,431.96 376.84,430.46 373.24,430.46 C372.46,432.96 369.36,431.21 373.49,421.22 C367.81,409.99 364.26,417.48 371.00,424.47 C366.05,413.74 368.75,405.00 375.04,401.26 Z" fill="#eedea0"/>
<rect x="201.0" y="279.0" width="366.0" height="252.0" rx="2" fill="none" stroke="#eedea0" stroke-width="1" opacity="0.5"/>
</g>
<rect x="580.0" y="274.0" width="376.0" height="262.0" rx="3" fill="#6a4010"/>
<clipPath id="cl6"><rect x="580.0" y="274.0" width="376.0" height="262.0" rx="3"/></clipPath>
<g clip-path="url(#cl6)">
<path d="M771.74,396.04 C768.00,402.33 759.26,405.03 748.53,400.08 C755.52,406.82 763.01,403.27 751.78,397.59 C741.79,401.72 740.04,398.62 742.54,397.84 C741.04,396.04 742.54,397.84 742.54,394.24 C740.04,393.46 741.79,390.36 751.78,394.49 C763.01,388.81 755.52,385.26 748.53,392.00 C759.26,387.05 768.00,389.75 771.74,396.04 Z" fill="#eedea0"/>
<path d="M776.96,408.74 C770.67,405.00 767.97,396.26 772.92,385.53 C766.18,392.52 769.73,400.01 775.41,388.78 C771.28,378.79 774.38,377.04 775.16,379.54 C776.96,378.04 775.16,379.54 778.76,379.54 C779.54,377.04 782.64,378.79 778.51,388.78 C784.19,400.01 787.74,392.52 781.00,385.53 C785.95,396.26 783.25,405.00 776.96,408.74 Z" fill="#eedea0"/>
<path d="M764.26,413.96 C768.00,407.67 776.74,404.97 787.47,409.92 C780.48,403.18 772.99,406.73 784.22,412.41 C794.21,408.28 795.96,411.38 793.46,412.16 C794.96,413.96 793.46,412.16 793.46,415.76 C795.96,416.54 794.21,419.64 784.22,415.51 C772.99,421.19 780.48,424.74 787.47,418.00 C776.74,422.95 768.00,420.25 764.26,413.96 Z" fill="#eedea0"/>
<path d="M759.04,401.26 C765.33,405.00 768.03,413.74 763.08,424.47 C769.82,417.48 766.27,409.99 760.59,421.22 C764.72,431.21 761.62,432.96 760.84,430.46 C759.04,431.96 760.84,430.46 757.24,430.46 C756.46,432.96 753.36,431.21 757.49,421.22 C751.81,409.99 748.26,417.48 755.00,424.47 C750.05,413.74 752.75,405.00 759.04,401.26 Z" fill="#eedea0"/>
<rect x="585.0" y="279.0" width="366.0" height="252.0" rx="2" fill="none" stroke="#eedea0" stroke-width="1" opacity="0.5"/>
</g>
<rect x="964.0" y="274.0" width="376.0" height="262.0" rx="3" fill="#6a4010"/>
<clipPath id="cl7"><rect x="964.0" y="274.0" width="376.0" height="262.0" rx="3"/></clipPath>
<g clip-path="url(#cl7)">
<path d="M1155.74,396.04 C1152.00,402.33 1143.26,405.03 1132.53,400.08 C1139.52,406.82 1147.01,403.27 1135.78,397.59 C1125.79,401.72 1124.04,398.62 1126.54,397.84 C1125.04,396.04 1126.54,397.84 1126.54,394.24 C1124.04,393.46 1125.79,390.36 1135.78,394.49 C1147.01,388.81 1139.52,385.26 1132.53,392.00 C1143.26,387.05 1152.00,389.75 1155.74,396.04 Z" fill="#eedea0"/>
<path d="M1160.96,408.74 C1154.67,405.00 1151.97,396.26 1156.92,385.53 C1150.18,392.52 1153.73,400.01 1159.41,388.78 C1155.28,378.79 1158.38,377.04 1159.16,379.54 C1160.96,378.04 1159.16,379.54 1162.76,379.54 C1163.54,377.04 1166.64,378.79 1162.51,388.78 C1168.19,400.01 1171.74,392.52 1165.00,385.53 C1169.95,396.26 1167.25,405.00 1160.96,408.74 Z" fill="#eedea0"/>
<path d="M1148.26,413.96 C1152.00,407.67 1160.74,404.97 1171.47,409.92 C1164.48,403.18 1156.99,406.73 1168.22,412.41 C1178.21,408.28 1179.96,411.38 1177.46,412.16 C1178.96,413.96 1177.46,412.16 1177.46,415.76 C1179.96,416.54 1178.21,419.64 1168.22,415.51 C1156.99,421.19 1164.48,424.74 1171.47,418.00 C1160.74,422.95 1152.00,420.25 1148.26,413.96 Z" fill="#eedea0"/>
<path d="M1143.04,401.26 C1149.33,405.00 1152.03,413.74 1147.08,424.47 C1153.82,417.48 1150.27,409.99 1144.59,421.22 C1148.72,431.21 1145.62,432.96 1144.84,430.46 C1143.04,431.96 1144.84,430.46 1141.24,430.46 C1140.46,432.96 1137.36,431.21 1141.49,421.22 C1135.81,409.99 1132.26,417.48 1139.00,424.47 C1134.05,413.74 1136.75,405.00 1143.04,401.26 Z" fill="#eedea0"/>
<rect x="969.0" y="279.0" width="366.0" height="252.0" rx="2" fill="none" stroke="#eedea0" stroke-width="1" opacity="0.5"/>
</g>
<rect x="1348.0" y="274.0" width="376.0" height="262.0" rx="3" fill="#6a4010"/>
<clipPath id="cl8"><rect x="1348.0" y="274.0" width="376.0" height="262.0" rx="3"/></clipPath>
<g clip-path="url(#cl8)">
<path d="M1539.74,396.04 C1536.00,402.33 1527.26,405.03 1516.53,400.08 C1523.52,406.82 1531.01,403.27 1519.78,397.59 C1509.79,401.72 1508.04,398.62 1510.54,397.84 C1509.04,396.04 1510.54,397.84 1510.54,394.24 C1508.04,393.46 1509.79,390.36 1519.78,394.49 C1531.01,388.81 1523.52,385.26 1516.53,392.00 C1527.26,387.05 1536.00,389.75 1539.74,396.04 Z" fill="#eedea0"/>
<path d="M1544.96,408.74 C1538.67,405.00 1535.97,396.26 1540.92,385.53 C1534.18,392.52 1537.73,400.01 1543.41,388.78 C1539.28,378.79 1542.38,377.04 1543.16,379.54 C1544.96,378.04 1543.16,379.54 1546.76,379.54 C1547.54,377.04 1550.64,378.79 1546.51,388.78 C1552.19,400.01 1555.74,392.52 1549.00,385.53 C1553.95,396.26 1551.25,405.00 1544.96,408.74 Z" fill="#eedea0"/>
<path d="M1532.26,413.96 C1536.00,407.67 1544.74,404.97 1555.47,409.92 C1548.48,403.18 1540.99,406.73 1552.22,412.41 C1562.21,408.28 1563.96,411.38 1561.46,412.16 C1562.96,413.96 1561.46,412.16 1561.46,415.76 C1563.96,416.54 1562.21,419.64 1552.22,415.51 C1540.99,421.19 1548.48,424.74 1555.47,418.00 C1544.74,422.95 1536.00,420.25 1532.26,413.96 Z" fill="#eedea0"/>
<path d="M1527.04,401.26 C1533.33,405.00 1536.03,413.74 1531.08,424.47 C1537.82,417.48 1534.27,409.99 1528.59,421.22 C1532.72,431.21 1529.62,432.96 1528.84,430.46 C1527.04,431.96 1528.84,430.46 1525.24,430.46 C1524.46,432.96 1521.36,431.21 1525.49,421.22 C1519.81,409.99 1516.26,417.48 1523.00,424.47 C1518.05,413.74 1520.75,405.00 1527.04,401.26 Z" fill="#eedea0"/>
<rect x="1353.0" y="279.0" width="366.0" height="252.0" rx="2" fill="none" stroke="#eedea0" stroke-width="1" opacity="0.5"/>
</g>
<rect x="1732.0" y="274.0" width="376.0" height="262.0" rx="3" fill="#6a4010"/>
<clipPath id="cl9"><rect x="1732.0" y="274.0" width="376.0" height="262.0" rx="3"/></clipPath>
<g clip-path="url(#cl9)">
<path d="M1923.74,396.04 C1920.00,402.33 1911.26,405.03 1900.53,400.08 C1907.52,406.82 1915.01,403.27 1903.78,397.59 C1893.79,401.72 1892.04,398.62 1894.54,397.84 C1893.04,396.04 1894.54,397.84 1894.54,394.24 C1892.04,393.46 1893.79,390.36 1903.78,394.49 C1915.01,388.81 1907.52,385.26 1900.53,392.00 C1911.26,387.05 1920.00,389.75 1923.74,396.04 Z" fill="#eedea0"/>
<path d="M1928.96,408.74 C1922.67,405.00 1919.97,396.26 1924.92,385.53 C1918.18,392.52 1921.73,400.01 1927.41,388.78 C1923.28,378.79 1926.38,377.04 1927.16,379.54 C1928.96,378.04 1927.16,379.54 1930.76,379.54 C1931.54,377.04 1934.64,378.79 1930.51,388.78 C1936.19,400.01 1939.74,392.52 1933.00,385.53 C1937.95,396.26 1935.25,405.00 1928.96,408.74 Z" fill="#eedea0"/>
<path d="M1916.26,413.96 C1920.00,407.67 1928.74,404.97 1939.47,409.92 C1932.48,403.18 1924.99,406.73 1936.22,412.41 C1946.21,408.28 1947.96,411.38 1945.46,412.16 C1946.96,413.96 1945.46,412.16 1945.46,415.76 C1947.96,416.54 1946.21,419.64 1936.22,415.51 C1924.99,421.19 1932.48,424.74 1939.47,418.00 C1928.74,422.95 1920.00,420.25 1916.26,413.96 Z" fill="#eedea0"/>
<path d="M1911.04,401.26 C1917.33,405.00 1920.03,413.74 1915.08,424.47 C1921.82,417.48 1918.27,409.99 1912.59,421.22 C1916.72,431.21 1913.62,432.96 1912.84,430.46 C1911.04,431.96 1912.84,430.46 1909.24,430.46 C1908.46,432.96 1905.36,431.21 1909.49,421.22 C1903.81,409.99 1900.26,417.48 1907.00,424.47 C1902.05,413.74 1904.75,405.00 1911.04,401.26 Z" fill="#eedea0"/>
<rect x="1737.0" y="279.0" width="366.0" height="252.0" rx="2" fill="none" stroke="#eedea0" stroke-width="1" opacity="0.5"/>
</g>
<rect x="4.0" y="544.0" width="376.0" height="262.0" rx="3" fill="#6a4010"/>
<clipPath id="cl10"><rect x="4.0" y="544.0" width="376.0" height="262.0" rx="3"/></clipPath>
<g clip-path="url(#cl10)">
<path d="M195.74,666.04 C192.00,672.33 183.26,675.03 172.53,670.08 C179.52,676.82 187.01,673.27 175.78,667.59 C165.79,671.72 164.04,668.62 166.54,667.84 C165.04,666.04 166.54,667.84 166.54,664.24 C164.04,663.46 165.79,660.36 175.78,664.49 C187.01,658.81 179.52,655.26 172.53,662.00 C183.26,657.05 192.00,659.75 195.74,666.04 Z" fill="#eedea0"/>
<path d="M200.96,678.74 C194.67,675.00 191.97,666.26 196.92,655.53 C190.18,662.52 193.73,670.01 199.41,658.78 C195.28,648.79 198.38,647.04 199.16,649.54 C200.96,648.04 199.16,649.54 202.76,649.54 C203.54,647.04 206.64,648.79 202.51,658.78 C208.19,670.01 211.74,662.52 205.00,655.53 C209.95,666.26 207.25,675.00 200.96,678.74 Z" fill="#eedea0"/>
<path d="M188.26,683.96 C192.00,677.67 200.74,674.97 211.47,679.92 C204.48,673.18 196.99,676.73 208.22,682.41 C218.21,678.28 219.96,681.38 217.46,682.16 C218.96,683.96 217.46,682.16 217.46,685.76 C219.96,686.54 218.21,689.64 208.22,685.51 C196.99,691.19 204.48,694.74 211.47,688.00 C200.74,692.95 192.00,690.25 188.26,683.96 Z" fill="#eedea0"/>
<path d="M183.04,671.26 C189.33,675.00 192.03,683.74 187.08,694.47 C193.82,687.48 190.27,679.99 184.59,691.22 C188.72,701.21 185.62,702.96 184.84,700.46 C183.04,701.96 184.84,700.46 181.24,700.46 C180.46,702.96 177.36,701.21 181.49,691.22 C175.81,679.99 172.26,687.48 179.00,694.47 C174.05,683.74 176.75,675.00 183.04,671.26 Z" fill="#eedea0"/>
<rect x="9.0" y="549.0" width="366.0" height="252.0" rx="2" fill="none" stroke="#eedea0" stroke-width="1" opacity="0.5"/>
</g>
<rect x="388.0" y="544.0" width="376.0" height="262.0" rx="3" fill="#6a4010"/>
<clipPath id="cl11"><rect x="388.0" y="544.0" width="376.0" height="262.0" rx="3"/></clipPath>
<g clip-path="url(#cl11)">
<path d="M579.74,666.04 C576.00,672.33 567.26,675.03 556.53,670.08 C563.52,676.82 571.01,673.27 559.78,667.59 C549.79,671.72 548.04,668.62 550.54,667.84 C549.04,666.04 550.54,667.84 550.54,664.24 C548.04,663.46 549.79,660.36 559.78,664.49 C571.01,658.81 563.52,655.26 556.53,662.00 C567.26,657.05 576.00,659.75 579.74,666.04 Z" fill="#eedea0"/>
<path d="M584.96,678.74 C578.67,675.00 575.97,666.26 580.92,655.53 C574.18,662.52 577.73,670.01 583.41,658.78 C579.28,648.79 582.38,647.04 583.16,649.54 C584.96,648.04 583.16,649.54 586.76,649.54 C587.54,647.04 590.64,648.79 586.51,658.78 C592.19,670.01 595.74,662.52 589.00,655.53 C593.95,666.26 591.25,675.00 584.96,678.74 Z" fill="#eedea0"/>
<path d="M572.26,683.96 C576.00,677.67 584.74,674.97 595.47,679.92 C588.48,673.18 580.99,676.73 592.22,682.41 C602.21,678.28 603.96,681.38 601.46,682.16 C602.96,683.96 601.46,682.16 601.46,685.76 C603.96,686.54 602.21,689.64 592.22,685.51 C580.99,691.19 588.48,694.74 595.47,688.00 C584.74,692.95 576.00,690.25 572.26,683.96 Z" fill="#eedea0"/>
<path d="M567.04,671.26 C573.33,675.00 576.03,683.74 571.08,694.47 C577.82,687.48 574.27,679.99 568.59,691.22 C572.72,701.21 569.62,702.96 568.84,700.46 C567.04,701.96 568.84,700.46 565.24,700.46 C564.46,702.96 561.36,701.21 565.49,691.22 C559.81,679.99 556.26,687.48 563.00,694.47 C558.05,683.74 560.75,675.00 567.04,671.26 Z" fill="#eedea0"/>
<rect x="393.0" y="549.0" width="366.0" height="252.0" rx="2" fill="none" stroke="#eedea0" stroke-width="1" opacity="0.5"/>
</g>
<rect x="772.0" y="544.0" width="376.0" height="262.0" rx="3" fill="#6a4010"/>
<clipPath id="cl12"><rect x="772.0" y="544.0" width="376.0" height="262.0" rx="3"/></clipPath>
<g clip-path="url(#cl12)">
<path d="M963.74,666.04 C960.00,672.33 951.26,675.03 940.53,670.08 C947.52,676.82 955.01,673.27 943.78,667.59 C933.79,671.72 932.04,668.62 934.54,667.84 C933.04,666.04 934.54,667.84 934.54,664.24 C932.04,663.46 933.79,660.36 943.78,664.49 C955.01,658.81 947.52,655.26 940.53,662.00 C951.26,657.05 960.00,659.75 963.74,666.04 Z" fill="#eedea0"/>
<path d="M968.96,678.74 C962.67,675.00 959.97,666.26 964.92,655.53 C958.18,662.52 961.73,670.01 967.41,658.78 C963.28,648.79 966.38,647.04 967.16,649.54 C968.96,648.04 967.16,649.54 970.76,649.54 C971.54,647.04 974.64,648.79 970.51,658.78 C976.19,670.01 979.74,662.52 973.00,655.53 C977.95,666.26 975.25,675.00 968.96,678.74 Z" fill="#eedea0"/>
<path d="M956.26,683.96 C960.00,677.67 968.74,674.97 979.47,679.92 C972.48,673.18 964.99,676.73 976.22,682.41 C986.21,678.28 987.96,681.38 985.46,682.16 C986.96,683.96 985.46,682.16 985.46,685.76 C987.96,686.54 986.21,689.64 976.22,685.51 C964.99,691.19 972.48,694.74 979.47,688.00 C968.74,692.95 960.00,690.25 956.26,683.96 Z" fill="#eedea0"/>
<path d="M951.04,671.26 C957.33,675.00 960.03,683.74 955.08,694.47 C961.82,687.48 958.27,679.99 952.59,691.22 C956.72,701.21 953.62,702.96 952.84,700.46 C951.04,701.96 952.84,700.46 949.24,700.46 C948.46,702.96 945.36,701.21 949.49,691.22 C943.81,679.99 940.26,687.48 947.00,694.47 C942.05,683.74 944.75,675.00 951.04,671.26 Z" fill="#eedea0"/>
<rect x="777.0" y="549.0" width="366.0" height="252.0" rx="2" fill="none" stroke="#eedea0" stroke-width="1" opacity="0.5"/>
</g>
<rect x="1156.0" y="544.0" width="376.0" height="262.0" rx="3" fill="#6a4010"/>
<clipPath id="cl13"><rect x="1156.0" y="544.0" width="376.0" height="262.0" rx="3"/></clipPath>
<g clip-path="url(#cl13)">
<path d="M1347.74,666.04 C1344.00,672.33 1335.26,675.03 1324.53,670.08 C1331.52,676.82 1339.01,673.27 1327.78,667.59 C1317.79,671.72 1316.04,668.62 1318.54,667.84 C1317.04,666.04 1318.54,667.84 1318.54,664.24 C1316.04,663.46 1317.79,660.36 1327.78,664.49 C1339.01,658.81 1331.52,655.26 1324.53,662.00 C1335.26,657.05 1344.00,659.75 1347.74,666.04 Z" fill="#eedea0"/>
<path d="M1352.96,678.74 C1346.67,675.00 1343.97,666.26 1348.92,655.53 C1342.18,662.52 1345.73,670.01 1351.41,658.78 C1347.28,648.79 1350.38,647.04 1351.16,649.54 C1352.96,648.04 1351.16,649.54 1354.76,649.54 C1355.54,647.04 1358.64,648.79 1354.51,658.78 C1360.19,670.01 1363.74,662.52 1357.00,655.53 C1361.95,666.26 1359.25,675.00 1352.96,678.74 Z" fill="#eedea0"/>
<path d="M1340.26,683.96 C1344.00,677.67 1352.74,674.97 1363.47,679.92 C1356.48,673.18 1348.99,676.73 1360.22,682.41 C1370.21,678.28 1371.96,681.38 1369.46,682.16 C1370.96,683.96 1369.46,682.16 1369.46,685.76 C1371.96,686.54 1370.21,689.64 1360.22,685.51 C1348.99,691.19 1356.48,694.74 1363.47,688.00 C1352.74,692.95 1344.00,690.25 1340.26,683.96 Z" fill="#eedea0"/>
<path d="M1335.04,671.26 C1341.33,675.00 1344.03,683.74 1339.08,694.47 C1345.82,687.48 1342.27,679.99 1336.59,691.22 C1340.72,701.21 1337.62,702.96 1336.84,700.46 C1335.04,701.96 1336.84,700.46 1333.24,700.46 C1332.46,702.96 1329.36,701.21 1333.49,691.22 C1327.81,679.99 1324.26,687.48 1331.00,694.47 C1326.05,683.74 1328.75,675.00 1335.04,671.26 Z" fill="#eedea0"/>
<rect x="1161.0" y="549.0" width="366.0" height="252.0" rx="2" fill="none" stroke="#eedea0" stroke-width="1" opacity="0.5"/>
</g>
<rect x="1540.0" y="544.0" width="376.0" height="262.0" rx="3" fill="#6a4010"/>
<clipPath id="cl14"><rect x="1540.0" y="544.0" width="376.0" height="262.0" rx="3"/></clipPath>
<g clip-path="url(#cl14)">
<path d="M1731.74,666.04 C1728.00,672.33 1719.26,675.03 1708.53,670.08 C1715.52,676.82 1723.01,673.27 1711.78,667.59 C1701.79,671.72 1700.04,668.62 1702.54,667.84 C1701.04,666.04 1702.54,667.84 1702.54,664.24 C1700.04,663.46 1701.79,660.36 1711.78,664.49 C1723.01,658.81 1715.52,655.26 1708.53,662.00 C1719.26,657.05 1728.00,659.75 1731.74,666.04 Z" fill="#eedea0"/>
<path d="M1736.96,678.74 C1730.67,675.00 1727.97,666.26 1732.92,655.53 C1726.18,662.52 1729.73,670.01 1735.41,658.78 C1731.28,648.79 1734.38,647.04 1735.16,649.54 C1736.96,648.04 1735.16,649.54 1738.76,649.54 C1739.54,647.04 1742.64,648.79 1738.51,658.78 C1744.19,670.01 1747.74,662.52 1741.00,655.53 C1745.95,666.26 1743.25,675.00 1736.96,678.74 Z" fill="#eedea0"/>
<path d="M1724.26,683.96 C1728.00,677.67 1736.74,674.97 1747.47,679.92 C1740.48,673.18 1732.99,676.73 1744.22,682.41 C1754.21,678.28 1755.96,681.38 1753.46,682.16 C1754.96,683.96 1753.46,682.16 1753.46,685.76 C1755.96,686.54 1754.21,689.64 1744.22,685.51 C1732.99,691.19 1740.48,694.74 1747.47,688.00 C1736.74,692.95 1728.00,690.25 1724.26,683.96 Z" fill="#eedea0"/>
<path d="M1719.04,671.26 C1725.33,675.00 1728.03,683.74 1723.08,694.47 C1729.82,687.48 1726.27,679.99 1720.59,691.22 C1724.72,701.21 1721.62,702.96 1720.84,700.46 C1719.04,701.96 1720.84,700.46 1717.24,700.46 C1716.46,702.96 1713.36,701.21 1717.49,691.22 C1711.81,679.99 1708.26,687.48 1715.00,694.47 C1710.05,683.74 1712.75,675.00 1719.04,671.26 Z" fill="#eedea0"/>
<rect x="1545.0" y="549.0" width="366.0" height="252.0" rx="2" fill="none" stroke="#eedea0" stroke-width="1" opacity="0.5"/>
</g>
<rect x="196.0" y="814.0" width="376.0" height="262.0" rx="3" fill="#6a4010"/>
<clipPath id="cl15"><rect x="196.0" y="814.0" width="376.0" height="262.0" rx="3"/></clipPath>
<g clip-path="url(#cl15)">
<path d="M387.74,936.04 C384.00,942.33 375.26,945.03 364.53,940.08 C371.52,946.82 379.01,943.27 367.78,937.59 C357.79,941.72 356.04,938.62 358.54,937.84 C357.04,936.04 358.54,937.84 358.54,934.24 C356.04,933.46 357.79,930.36 367.78,934.49 C379.01,928.81 371.52,925.26 364.53,932.00 C375.26,927.05 384.00,929.75 387.74,936.04 Z" fill="#eedea0"/>
<path d="M392.96,948.74 C386.67,945.00 383.97,936.26 388.92,925.53 C382.18,932.52 385.73,940.01 391.41,928.78 C387.28,918.79 390.38,917.04 391.16,919.54 C392.96,918.04 391.16,919.54 394.76,919.54 C395.54,917.04 398.64,918.79 394.51,928.78 C400.19,940.01 403.74,932.52 397.00,925.53 C401.95,936.26 399.25,945.00 392.96,948.74 Z" fill="#eedea0"/>
<path d="M380.26,953.96 C384.00,947.67 392.74,944.97 403.47,949.92 C396.48,943.18 388.99,946.73 400.22,952.41 C410.21,948.28 411.96,951.38 409.46,952.16 C410.96,953.96 409.46,952.16 409.46,955.76 C411.96,956.54 410.21,959.64 400.22,955.51 C388.99,961.19 396.48,964.74 403.47,958.00 C392.74,962.95 384.00,960.25 380.26,953.96 Z" fill="#eedea0"/>
<path d="M375.04,941.26 C381.33,945.00 384.03,953.74 379.08,964.47 C385.82,957.48 382.27,949.99 376.59,961.22 C380.72,971.21 377.62,972.96 376.84,970.46 C375.04,971.96 376.84,970.46 373.24,970.46 C372.46,972.96 369.36,971.21 373.49,961.22 C367.81,949.99 364.26,957.48 371.00,964.47 C366.05,953.74 368.75,945.00 375.04,941.26 Z" fill="#eedea0"/>
<rect x="201.0" y="819.0" width="366.0" height="252.0" rx="2" fill="none" stroke="#eedea0" stroke-width="1" opacity="0.5"/>
</g>
<rect x="580.0" y="814.0" width="376.0" height="262.0" rx="3" fill="#6a4010"/>
<clipPath id="cl16"><rect x="580.0" y="814.0" width="376.0" height="262.0" rx="3"/></clipPath>
<g clip-path="url(#cl16)">
<path d="M771.74,936.04 C768.00,942.33 759.26,945.03 748.53,940.08 C755.52,946.82 763.01,943.27 751.78,937.59 C741.79,941.72 740.04,938.62 742.54,937.84 C741.04,936.04 742.54,937.84 742.54,934.24 C740.04,933.46 741.79,930.36 751.78,934.49 C763.01,928.81 755.52,925.26 748.53,932.00 C759.26,927.05 768.00,929.75 771.74,936.04 Z" fill="#eedea0"/>
<path d="M776.96,948.74 C770.67,945.00 767.97,936.26 772.92,925.53 C766.18,932.52 769.73,940.01 775.41,928.78 C771.28,918.79 774.38,917.04 775.16,919.54 C776.96,918.04 775.16,919.54 778.76,919.54 C779.54,917.04 782.64,918.79 778.51,928.78 C784.19,940.01 787.74,932.52 781.00,925.53 C785.95,936.26 783.25,945.00 776.96,948.74 Z" fill="#eedea0"/>
<path d="M764.26,953.96 C768.00,947.67 776.74,944.97 787.47,949.92 C780.48,943.18 772.99,946.73 784.22,952.41 C794.21,948.28 795.96,951.38 793.46,952.16 C794.96,953.96 793.46,952.16 793.46,955.76 C795.96,956.54 794.21,959.64 784.22,955.51 C772.99,961.19 780.48,964.74 787.47,958.00 C776.74,962.95 768.00,960.25 764.26,953.96 Z" fill="#eedea0"/>
<path d="M759.04,941.26 C765.33,945.00 768.03,953.74 763.08,964.47 C769.82,957.48 766.27,949.99 760.59,961.22 C764.72,971.21 761.62,972.96 760.84,970.46 C759.04,971.96 760.84,970.46 757.24,970.46 C756.46,972.96 753.36,971.21 757.49,961.22 C751.81,949.99 748.26,957.48 755.00,964.47 C750.05,953.74 752.75,945.00 759.04,941.26 Z" fill="#eedea0"/>
<rect x="585.0" y="819.0" width="366.0" height="252.0" rx="2" fill="none" stroke="#eedea0" stroke-width="1" opacity="0.5"/>
</g>
<rect x="964.0" y="814.0" width="376.0" height="262.0" rx="3" fill="#6a4010"/>
<clipPath id="cl17"><rect x="964.0" y="814.0" width="376.0" height="262.0" rx="3"/></clipPath>
<g clip-path="url(#cl17)">
<path d="M1155.74,936.04 C1152.00,942.33 1143.26,945.03 1132.53,940.08 C1139.52,946.82 1147.01,943.27 1135.78,937.59 C1125.79,941.72 1124.04,938.62 1126.54,937.84 C1125.04,936.04 1126.54,937.84 1126.54,934.24 C1124.04,933.46 1125.79,930.36 1135.78,934.49 C1147.01,928.81 1139.52,925.26 1132.53,932.00 C1143.26,927.05 1152.00,929.75 1155.74,936.04 Z" fill="#eedea0"/>
<path d="M1160.96,948.74 C1154.67,945.00 1151.97,936.26 1156.92,925.53 C1150.18,932.52 1153.73,940.01 1159.41,928.78 C1155.28,918.79 1158.38,917.04 1159.16,919.54 C1160.96,918.04 1159.16,919.54 1162.76,919.54 C1163.54,917.04 1166.64,918.79 1162.51,928.78 C1168.19,940.01 1171.74,932.52 1165.00,925.53 C1169.95,936.26 1167.25,945.00 1160.96,948.74 Z" fill="#eedea0"/>
<path d="M1148.26,953.96 C1152.00,947.67 1160.74,944.97 1171.47,949.92 C1164.48,943.18 1156.99,946.73 1168.22,952.41 C1178.21,948.28 1179.96,951.38 1177.46,952.16 C1178.96,953.96 1177.46,952.16 1177.46,955.76 C1179.96,956.54 1178.21,959.64 1168.22,955.51 C1156.99,961.19 1164.48,964.74 1171.47,958.00 C1160.74,962.95 1152.00,960.25 1148.26,953.96 Z" fill="#eedea0"/>
<path d="M1143.04,941.26 C1149.33,945.00 1152.03,953.74 1147.08,964.47 C1153.82,957.48 1150.27,949.99 1144.59,961.22 C1148.72,971.21 1145.62,972.96 1144.84,970.46 C1143.04,971.96 1144.84,970.46 1141.24,970.46 C1140.46,972.96 1137.36,971.21 1141.49,961.22 C1135.81,949.99 1132.26,957.48 1139.00,964.47 C1134.05,953.74 1136.75,945.00 1143.04,941.26 Z" fill="#eedea0"/>
<rect x="969.0" y="819.0" width="366.0" height="252.0" rx="2" fill="none" stroke="#eedea0" stroke-width="1" opacity="0.5"/>
</g>
<rect x="1348.0" y="814.0" width="376.0" height="262.0" rx="3" fill="#6a4010"/>
<clipPath id="cl18"><rect x="1348.0" y="814.0" width="376.0" height="262.0" rx="3"/></clipPath>
<g clip-path="url(#cl18)">
<path d="M1539.74,936.04 C1536.00,942.33 1527.26,945.03 1516.53,940.08 C1523.52,946.82 1531.01,943.27 1519.78,937.59 C1509.79,941.72 1508.04,938.62 1510.54,937.84 C1509.04,936.04 1510.54,937.84 1510.54,934.24 C1508.04,933.46 1509.79,930.36 1519.78,934.49 C1531.01,928.81 1523.52,925.26 1516.53,932.00 C1527.26,927.05 1536.00,929.75 1539.74,936.04 Z" fill="#eedea0"/>
<path d="M1544.96,948.74 C1538.67,945.00 1535.97,936.26 1540.92,925.53 C1534.18,932.52 1537.73,940.01 1543.41,928.78 C1539.28,918.79 1542.38,917.04 1543.16,919.54 C1544.96,918.04 1543.16,919.54 1546.76,919.54 C1547.54,917.04 1550.64,918.79 1546.51,928.78 C1552.19,940.01 1555.74,932.52 1549.00,925.53 C1553.95,936.26 1551.25,945.00 1544.96,948.74 Z" fill="#eedea0"/>
<path d="M1532.26,953.96 C1536.00,947.67 1544.74,944.97 1555.47,949.92 C1548.48,943.18 1540.99,946.73 1552.22,952.41 C1562.21,948.28 1563.96,951.38 1561.46,952.16 C1562.96,953.96 1561.46,952.16 1561.46,955.76 C1563.96,956.54 1562.21,959.64 1552.22,955.51 C1540.99,961.19 1548.48,964.74 1555.47,958.00 C1544.74,962.95 1536.00,960.25 1532.26,953.96 Z" fill="#eedea0"/>
<path d="M1527.04,941.26 C1533.33,945.00 1536.03,953.74 1531.08,964.47 C1537.82,957.48 1534.27,949.99 1528.59,961.22 C1532.72,971.21 1529.62,972.96 1528.84,970.46 C1527.04,971.96 1528.84,970.46 1525.24,970.46 C1524.46,972.96 1521.36,971.21 1525.49,961.22 C1519.81,949.99 1516.26,957.48 1523.00,964.47 C1518.05,953.74 1520.75,945.00 1527.04,941.26 Z" fill="#eedea0"/>
<rect x="1353.0" y="819.0" width="366.0" height="252.0" rx="2" fill="none" stroke="#eedea0" stroke-width="1" opacity="0.5"/>
</g>
<rect x="1732.0" y="814.0" width="376.0" height="262.0" rx="3" fill="#6a4010"/>
<clipPath id="cl19"><rect x="1732.0" y="814.0" width="376.0" height="262.0" rx="3"/></clipPath>
<g clip-path="url(#cl19)">
<path d="M1923.74,936.04 C1920.00,942.33 1911.26,945.03 1900.53,940.08 C1907.52,946.82 1915.01,943.27 1903.78,937.59 C1893.79,941.72 1892.04,938.62 1894.54,937.84 C1893.04,936.04 1894.54,937.84 1894.54,934.24 C1892.04,933.46 1893.79,930.36 1903.78,934.49 C1915.01,928.81 1907.52,925.26 1900.53,932.00 C1911.26,927.05 1920.00,929.75 1923.74,936.04 Z" fill="#eedea0"/>
<path d="M1928.96,948.74 C1922.67,945.00 1919.97,936.26 1924.92,925.53 C1918.18,932.52 1921.73,940.01 1927.41,928.78 C1923.28,918.79 1926.38,917.04 1927.16,919.54 C1928.96,918.04 1927.16,919.54 1930.76,919.54 C1931.54,917.04 1934.64,918.79 1930.51,928.78 C1936.19,940.01 1939.74,932.52 1933.00,925.53 C1937.95,936.26 1935.25,945.00 1928.96,948.74 Z" fill="#eedea0"/>
<path d="M1916.26,953.96 C1920.00,947.67 1928.74,944.97 1939.47,949.92 C1932.48,943.18 1924.99,946.73 1936.22,952.41 C1946.21,948.28 1947.96,951.38 1945.46,952.16 C1946.96,953.96 1945.46,952.16 1945.46,955.76 C1947.96,956.54 1946.21,959.64 1936.22,955.51 C1924.99,961.19 1932.48,964.74 1939.47,958.00 C1928.74,962.95 1920.00,960.25 1916.26,953.96 Z" fill="#eedea0"/>
<path d="M1911.04,941.26 C1917.33,945.00 1920.03,953.74 1915.08,964.47 C1921.82,957.48 1918.27,949.99 1912.59,961.22 C1916.72,971.21 1913.62,972.96 1912.84,970.46 C1911.04,971.96 1912.84,970.46 1909.24,970.46 C1908.46,972.96 1905.36,971.21 1909.49,961.22 C1903.81,949.99 1900.26,957.48 1907.00,964.47 C1902.05,953.74 1904.75,945.00 1911.04,941.26 Z" fill="#eedea0"/>
<rect x="1737.0" y="819.0" width="366.0" height="252.0" rx="2" fill="none" stroke="#eedea0" stroke-width="1" opacity="0.5"/>
</g>
</svg>