<svg xmlns="http://www.w3.org/2000/svg" width="2400" height="1350" viewBox="0 0 2400 1350">
<rect width="2400" height="1350" fill="#eedea0"/>
<rect x="7.0" y="7.0" width="586.0" height="436.0" rx="3" fill="#6a4010"/>
<clipPath id="cl0"><rect x="7.0" y="7.0" width="586.0" height="436.0" rx="3"/></clipPath>
<g clip-path="url(#cl0)">
<path d="M183.53,136.70 C148.80,169.09 125.06,160.91 111.31,131.65 C91.70,131.24 76.14,90.70 84.26,78.45 C57.28,73.16 75.77,65.26 75.84,45.16 C91.22,67.95 99.34,55.70 142.74,54.24 C150.75,72.15 183.06,73.41 199.84,92.10 183.53,136.70 Z" fill="#eedea0"/>
<path d="M317.19,242.19 C276.72,267.04 255.07,254.30 247.41,222.89 C228.27,218.59 221.08,175.77 231.48,165.38 C206.08,154.83 225.77,150.77 229.83,131.08 C240.38,156.48 250.77,146.08 293.59,153.27 C297.89,172.41 329.30,180.07 342.04,201.72 317.19,242.19 Z" fill="#eedea0"/>
<path d="M450.17,347.00 C405.56,363.31 386.88,346.52 385.62,314.22 C367.71,306.20 369.17,262.81 381.42,254.69 C358.63,239.31 378.73,239.24 386.63,220.75 C391.92,247.73 404.17,239.61 444.70,255.16 C445.11,274.78 474.38,288.52 482.56,312.26 450.17,347.00 Z" fill="#eedea0"/>
</g>
<rect x="607.0" y="7.0" width="586.0" height="436.0" rx="3" fill="#6a4010"/>
<clipPath id="cl1"><rect x="607.0" y="7.0" width="586.0" height="436.0" rx="3"/></clipPath>
<g clip-path="url(#cl1)">
<path d="M783.53,136.70 C748.80,169.09 725.06,160.91 711.31,131.65 C691.70,131.24 676.14,90.70 684.26,78.45 C657.28,73.16 675.77,65.26 675.84,45.16 C691.22,67.95 699.34,55.70 742.74,54.24 C750.75,72.15 783.06,73.41 799.84,92.10 783.53,136.70 Z" fill="#eedea0"/>
<path d="M917.19,242.19 C876.72,267.04 855.07,254.30 847.41,222.89 C828.27,218.59 821.08,175.77 831.48,165.38 C806.08,154.83 825.77,150.77 829.83,131.08 C840.38,156.48 850.77,146.08 893.59,153.27 C897.89,172.41 929.30,180.07 942.04,201.72 917.19,242.19 Z" fill="#eedea0"/>
<path d="M1050.17,347.00 C1005.56,363.31 986.88,346.52 985.62,314.22 C967.71,306.20 969.17,262.81 981.42,254.69 C958.63,239.31 978.73,239.24 986.63,220.75 C991.92,247.73 1004.17,239.61 1044.70,255.16 C1045.11,274.78 1074.38,288.52 1082.56,312.26 1050.17,347.00 Z" fill="#eedea0"/>
</g>
<rect x="1207.0" y="7.0" width="586.0" height="436.0" rx="3" fill="#6a4010"/>
<clipPath id="cl2"><rect x="1207.0" y="7.0" width="586.0" height="436.0" rx="3"/></clipPath>
<g clip-path="url(#cl2)">
<path d="M1383.53,136.70 C1348.80,169.09 1325.06,160.91 1311.31,131.65 C1291.70,131.24 1276.14,90.70 1284.26,78.45 C1257.28,73.16 1275.77,65.26 1275.84,45.16 C1291.22,67.95 1299.34,55.70 1342.74,54.24 C1350.75,72.15 1383.06,73.41 1399.84,92.10 1383.53,136.70 Z" fill="#eedea0"/>
<path d="M1517.19,242.19 C1476.72,267.04 1455.07,254.30 1447.41,222.89 C1428.27,218.59 1421.08,175.77 1431.48,165.38 C1406.08,154.83 1425.77,150.77 1429.83,131.08 C1440.38,156.48 1450.77,146.08 1493.59,153.27 C1497.89,172.41 1529.30,180.07 1542.04,201.72 1517.19,242.19 Z" fill="#eedea0"/>
<path d="M1650.17,347.00 C1605.56,363.31 1586.88,346.52 1585.62,314.22 C1567.71,306.20 1569.17,262.81 1581.42,254.69 C1558.63,239.31 1578.73,239.24 1586.63,220.75 C1591.92,247.73 1604.17,239.61 1644.70,255.16 C1645.11,274.78 1674.38,288.52 1682.56,312.26 1650.17,347.00 Z" fill="#eedea0"/>
</g>
<rect x="1807.0" y="7.0" width="586.0" height="436.0" rx="3" fill="#6a4010"/>
<clipPath id="cl3"><rect x="1807.0" y="7.0" width="586.0" height="436.0" rx="3"/></clipPath>
<g clip-path="url(#cl3)">
<path d="M1983.53,136.70 C1948.80,169.09 1925.06,160.91 1911.31,131.65 C1891.70,131.24 1876.14,90.70 1884.26,78.45 C1857.28,73.16 1875.77,65.26 1875.84,45.16 C1891.22,67.95 1899.34,55.70 1942.74,54.24 C1950.75,72.15 1983.06,73.41 1999.84,92.10 1983.53,136.70 Z" fill="#eedea0"/>
<path d="M2117.19,242.19 C2076.72,267.04 2055.07,254.30 2047.41,222.89 C2028.27,218.59 2021.08,175.77 2031.48,165.38 C2006.08,154.83 2025.77,150.77 2029.83,131.08 C2040.38,156.48 2050.77,146.08 2093.59,153.27 C2097.89,172.41 2129.30,180.07 2142.04,201.72 2117.19,242.19 Z" fill="#eedea0"/>
<path d="M2250.17,347.00 C2205.56,363.31 2186.88,346.52 2185.62,314.22 C2167.71,306.20 2169.17,262.81 2181.42,254.69 C2158.63,239.31 2178.73,239.24 2186.63,220.75 C2191.92,247.73 2204.17,239.61 2244.70,255.16 C2245.11,274.78 2274.38,288.52 2282.56,312.26 2250.17,347.00 Z" fill="#eedea0"/>
</g>
<rect x="7.0" y="457.0" width="586.0" height="436.0" rx="3" fill="#6a4010"/>
<clipPath id="cl4"><rect x="7.0" y="457.0" width="586.0" height="436.0" rx="3"/></clipPath>
<g clip-path="url(#cl4)">
<path d="M183.53,586.70 C148.80,619.09 125.06,610.91 111.31,581.65 C91.70,581.24 76.14,540.70 84.26,528.45 C57.28,523.16 75.77,515.26 75.84,495.16 C91.22,517.95 99.34,505.70 142.74,504.24 C150.75,522.15 183.06,523.41 199.84,542.10 183.53,586.70 Z" fill="#eedea0"/>
<path d="M317.19,692.19 C276.72,717.04 255.07,704.30 247.41,672.89 C228.27,668.59 221.08,625.77 231.48,615.38 C206.08,604.83 225.77,600.77 229.83,581.08 C240.38,606.48 250.77,596.08 293.59,603.27 C297.89,622.41 329.30,630.07 342.04,651.72 317.19,692.19 Z" fill="#eedea0"/>
<path d="M450.17,797.00 C405.56,813.31 386.88,796.52 385.62,764.22 C367.71,756.20 369.17,712.81 381.42,704.69 C358.63,689.31 378.73,689.24 386.63,670.75 C391.92,697.73 404.17,689.61 444.70,705.16 C445.11,724.78 474.38,738.52 482.56,762.26 450.17,797.00 Z" fill="#eedea0"/>
</g>
<rect x="607.0" y="457.0" width="586.0" height="436.0" rx="3" fill="#6a4010"/>
<clipPath id="cl5"><rect x="607.0" y="457.0" width="586.0" height="436.0" rx="3"/></clipPath>
<g clip-path="url(#cl5)">
<path d="M783.53,586.70 C748.80,619.09 725.06,610.91 711.31,581.65 C691.70,581.24 676.14,540.70 684.26,528.45 C657.28,523.16 675.77,515.26 675.84,495.16 C691.22,517.95 699.34,505.70 742.74,504.24 C750.75,522.15 783.06,523.41 799.84,542.10 783.53,586.70 Z" fill="#eedea0"/>
<path d="M917.19,692.19 C876.72,717.04 855.07,704.30 847.41,672.89 C828.27,668.59 821.08,625.77 831.48,615.38 C806.08,604.83 825.77,600.77 829.83,581.08 C840.38,606.48 850.77,596.08 893.59,603.27 C897.89,622.41 929.30,630.07 942.04,651.72 917.19,692.19 Z" fill="#eedea0"/>
<path d="M1050.17,797.00 C1005.56,813.31 986.88,796.52 985.62,764.22 C967.71,756.20 969.17,712.81 981.42,704.69 C958.63,689.31 978.73,689.24 986.63,670.75 C991.92,697.73 1004.17,689.61 1044.70,705.16 C1045.11,724.78 1074.38,738.52 1082.56,762.26 1050.17,797.00 Z" fill="#eedea0"/>
</g>
<rect x="1207.0" y="457.0" width="586.0" height="436.0" rx="3" fill="#6a4010"/>
<clipPath id="cl6"><rect x="1207.0" y="457.0" width="586.0" height="436.0" rx="3"/></clipPath>
<g clip-path="url(#cl6)">
<path d="M1383.53,586.70 C1348.80,619.09 1325.06,610.91 1311.31,581.65 C1291.70,581.24 1276.14,540.70 1284.26,528.45 C1257.28,523.16 1275.77,515.26 1275.84,495.16 C1291.22,517.95 1299.34,505.70 1342.74,504.24 C1350.75,522.15 1383.06,523.41 1399.84,542.10 1383.53,586.70 Z" fill="#eedea0"/>
<path d="M1517.19,692.19 C1476.72,717.04 1455.07,704.30 1447.41,672.89 C1428.27,668.59 1421.08,625.77 1431.48,615.38 C1406.08,604.83 1425.77,600.77 1429.83,581.08 C1440.38,606.48 1450.77,596.08 1493.59,603.27 C1497.89,622.41 1529.30,630.07 1542.04,651.72 1517.19,692.19 Z" fill="#eedea0"/>
<path d="M1650.17,797.00 C1605.56,813.31 1586.88,796.52 1585.62,764.22 C1567.71,756.20 1569.17,712.81 1581.42,704.69 C1558.63,689.31 1578.73,689.24 1586.63,670.75 C1591.92,697.73 1604.17,689.61 1644.70,705.16 C1645.11,724.78 1674.38,738.52 1682.56,762.26 1650.17,797.00 Z" fill="#eedea0"/>
</g>
<rect x="1807.0" y="457.0" width="586.0" height="436.0" rx="3" fill="#6a4010"/>
<clipPath id="cl7"><rect x="1807.0" y="457.0" width="586.0" height="436.0" rx="3"/></clipPath>
<g clip-path="url(#cl7)">
<path d="M1983.53,586.70 C1948.80,619.09 1925.06,610.91 1911.31,581.65 C1891.70,581.24 1876.14,540.70 1884.26,528.45 C1857.28,523.16 1875.77,515.26 1875.84,495.16 C1891.22,517.95 1899.34,505.70 1942.74,504.24 C1950.75,522.15 1983.06,523.41 1999.84,542.10 1983.53,586.70 Z" fill="#eedea0"/>
<path d="M2117.19,692.19 C2076.72,717.04 2055.07,704.30 2047.41,672.89 C2028.27,668.59 2021.08,625.77 2031.48,615.38 C2006.08,604.83 2025.77,600.77 2029.83,581.08 C2040.38,606.48 2050.77,596.08 2093.59,603.27 C2097.89,622.41 2129.30,630.07 2142.04,651.72 2117.19,692.19 Z" fill="#eedea0"/>
<path d="M2250.17,797.00 C2205.56,813.31 2186.88,796.52 2185.62,764.22 C2167.71,756.20 2169.17,712.81 2181.42,704.69 C2158.63,689.31 2178.73,689.24 2186.63,670.75 C2191.92,697.73 2204.17,689.61 2244.70,705.16 C2245.11,724.78 2274.38,738.52 2282.56,762.26 2250.17,797.00 Z" fill="#eedea0"/>
</g>
<rect x="7.0" y="907.0" width="586.0" height="436.0" rx="3" fill="#6a4010"/>
<clipPath id="cl8"><rect x="7.0" y="907.0" width="586.0" height="436.0" rx="3"/></clipPath>
<g clip-path="url(#cl8)">
<path d="M183.53,1036.70 C148.80,1069.09 125.06,1060.91 111.31,1031.65 C91.70,1031.24 76.14,990.70 84.26,978.45 C57.28,973.16 75.77,965.26 75.84,945.16 C91.22,967.95 99.34,955.70 142.74,954.24 C150.75,972.15 183.06,973.41 199.84,992.10 183.53,1036.70 Z" fill="#eedea0"/>
<path d="M317.19,1142.19 C276.72,1167.04 255.07,1154.30 247.41,1122.89 C228.27,1118.59 221.08,1075.77 231.48,1065.38 C206.08,1054.83 225.77,1050.77 229.83,1031.08 C240.38,1056.48 250.77,1046.08 293.59,1053.27 C297.89,1072.41 329.30,1080.07 342.04,1101.72 317.19,1142.19 Z" fill="#eedea0"/>
<path d="M450.17,1247.00 C405.56,1263.31 386.88,1246.52 385.62,1214.22 C367.71,1206.20 369.17,1162.81 381.42,1154.69 C358.63,1139.31 378.73,1139.24 386.63,1120.75 C391.92,1147.73 404.17,1139.61 444.70,1155.16 C445.11,1174.78 474.38,1188.52 482.56,1212.26 450.17,1247.00 Z" fill="#eedea0"/>
</g>
<rect x="607.0" y="907.0" width="586.0" height="436.0" rx="3" fill="#6a4010"/>
<clipPath id="cl9"><rect x="607.0" y="907.0" width="586.0" height="436.0" rx="3"/></clipPath>
<g clip-path="url(#cl9)">
<path d="M783.53,1036.70 C748.80,1069.09 725.06,1060.91 711.31,1031.65 C691.70,1031.24 676.14,990.70 684.26,978.45 C657.28,973.16 675.77,965.26 675.84,945.16 C691.22,967.95 699.34,955.70 742.74,954.24 C750.75,972.15 783.06,973.41 799.84,992.10 783.53,1036.70 Z" fill="#eedea0"/>
<path d="M917.19,1142.19 C876.72,1167.04 855.07,1154.30 847.41,1122.89 C828.27,1118.59 821.08,1075.77 831.48,1065.38 C806.08,1054.83 825.77,1050.77 829.83,1031.08 C840.38,1056.48 850.77,1046.08 893.59,1053.27 C897.89,1072.41 929.30,1080.07 942.04,1101.72 917.19,1142.19 Z" fill="#eedea0"/>
<path d="M1050.17,1247.00 C1005.56,1263.31 986.88,1246.52 985.62,1214.22 C967.71,1206.20 969.17,1162.81 981.42,1154.69 C958.63,1139.31 978.73,1139.24 986.63,1120.75 C991.92,1147.73 1004.17,1139.61 1044.70,1155.16 C1045.11,1174.78 1074.38,1188.52 1082.56,1212.26 1050.17,1247.00 Z" fill="#eedea0"/>
</g>
<rect x="1207.0" y="907.0" width="586.0" height="436.0" rx="3" fill="#6a4010"/>
<clipPath id="cl10"><rect x="1207.0" y="907.0" width="586.0" height="436.0" rx="3"/></clipPath>
<g clip-path="url(#cl10)">
<path d="M1383.53,1036.70 C1348.80,1069.09 1325.06,1060.91 1311.31,1031.65 C1291.70,1031.24 1276.14,990.70 1284.26,978.45 C1257.28,973.16 1275.77,965.26 1275.84,945.16 C1291.22,967.95 1299.34,955.70 1342.74,954.24 C1350.75,972.15 1383.06,973.41 1399.84,992.10 1383.53,1036.70 Z" fill="#eedea0"/>
<path d="M1517.19,1142.19 C1476.72,1167.04 1455.07,1154.30 1447.41,1122.89 C1428.27,1118.59 1421.08,1075.77 1431.48,1065.38 C1406.08,1054.83 1425.77,1050.77 1429.83,1031.08 C1440.38,1056.48 1450.77,1046.08 1493.59,1053.27 C1497.89,1072.41 1529.30,1080.07 1542.04,1101.72 1517.19,1142.19 Z" fill="#eedea0"/>
<path d="M1650.17,1247.00 C1605.56,1263.31 1586.88,1246.52 1585.62,1214.22 C1567.71,1206.20 1569.17,1162.81 1581.42,1154.69 C1558.63,1139.31 1578.73,1139.24 1586.63,1120.75 C1591.92,1147.73 1604.17,1139.61 1644.70,1155.16 C1645.11,1174.78 1674.38,1188.52 1682.56,1212.26 1650.17,1247.00 Z" fill="#eedea0"/>
</g>
<rect x="1807.0" y="907.0" width="586.0" height="436.0" rx="3" fill="#6a4010"/>
<clipPath id="cl11"><rect x="1807.0" y="907.0" width="586.0" height="436.0" rx="3"/></clipPath>
<g clip-path="url(#cl11)">
<path d="M1983.53,1036.70 C1948.80,1069.09 1925.06,1060.91 1911.31,1031.65 C1891.70,1031.24 1876.14,990.70 1884.26,978.45 C1857.28,973.16 1875.77,965.26 1875.84,945.16 C1891.22,967.95 1899.34,955.70 1942.74,954.24 C1950.75,972.15 1983.06,973.41 1999.84,992.10 1983.53,1036.70 Z" fill="#eedea0"/>
<path d="M2117.19,1142.19 C2076.72,1167.04 2055.07,1154.30 2047.41,1122.89 C2028.27,1118.59 2021.08,1075.77 2031.48,1065.38 C2006.08,1054.83 2025.77,1050.77 2029.83,1031.08 C2040.38,1056.48 2050.77,1046.08 2093.59,1053.27 C2097.89,1072.41 2129.30,1080.07 2142.04,1101.72 2117.19,1142.19 Z" fill="#eedea0"/>
<path d="M2250.17,1247.00 C2205.56,1263.31 2186.88,1246.52 2185.62,1214.22 C2167.71,1206.20 2169.17,1162.81 2181.42,1154.69 C2158.63,1139.31 2178.73,1139.24 2186.63,1120.75 C2191.92,1147.73 2204.17,1139.61 2244.70,1155.16 C2245.11,1174.78 2274.38,1188.52 2282.56,1212.26 2250.17,1247.00 Z" fill="#eedea0"/>
</g>
</svg>