<svg xmlns="http://www.w3.org/2000/svg" width="2400" height="1350" viewBox="0 0 2400 1350">
<rect width="2400" height="1350" fill="#2a2038"/>
<rect x="8.0" y="8.0" width="784.0" height="659.0" rx="3" fill="#c8a8d8"/>
<clipPath id="cl0"><rect x="8.0" y="8.0" width="784.0" height="659.0" rx="3"/></clipPath>
<g clip-path="url(#cl0)">
<path d="M424.96,292.70 C412.48,330.89 362.56,342.12 318.88,317.41 C312.64,344.37 268.96,346.61 265.22,315.16 C268.96,297.19 268.96,288.21 265.22,270.24 C268.96,238.79 312.64,241.03 318.88,267.99 C362.56,243.28 412.48,254.51 424.96,292.70 Z" fill="#2a2038"/>
<path d="M450.32,347.39 C410.14,347.33 384.04,303.32 394.04,254.14 C366.47,256.54 350.84,215.69 379.59,202.41 C397.84,200.42 406.39,197.64 422.32,188.53 C453.39,182.37 464.75,224.61 441.04,238.87 C478.04,272.78 482.78,323.72 450.32,347.39 Z" fill="#2a2038"/>
<path d="M406.14,388.42 C393.79,350.18 427.57,311.76 477.44,306.07 C466.64,280.60 500.66,253.10 522.17,276.35 C529.71,293.09 534.99,300.36 548.58,312.69 C564.04,340.34 527.38,364.19 506.48,346.05 C485.67,391.72 438.68,411.97 406.14,388.42 Z" fill="#2a2038"/>
<path d="M353.47,359.07 C386.02,335.51 433.01,355.77 453.82,401.43 C474.71,383.29 511.37,407.15 495.91,434.79 C482.32,447.13 477.04,454.40 469.51,471.14 C447.99,494.38 413.97,466.89 424.77,441.42 C374.91,435.73 341.12,397.30 353.47,359.07 Z" fill="#2a2038"/>
<path d="M365.11,299.92 C397.57,323.59 392.83,374.54 355.83,408.44 C379.54,422.71 368.17,464.94 337.11,458.78 C321.17,449.67 312.63,446.89 294.38,444.90 C265.62,431.62 281.26,390.77 308.82,393.17 C298.82,343.99 324.93,299.99 365.11,299.92 Z" fill="#2a2038"/>
<rect x="13.0" y="13.0" width="774.0" height="649.0" rx="2" fill="none" stroke="#2a2038" stroke-width="1" opacity="0.5"/>
</g>
<rect x="808.0" y="8.0" width="784.0" height="659.0" rx="3" fill="#c8a8d8"/>
<clipPath id="cl1"><rect x="808.0" y="8.0" width="784.0" height="659.0" rx="3"/></clipPath>
<g clip-path="url(#cl1)">
<path d="M1224.96,292.70 C1212.48,330.89 1162.56,342.12 1118.88,317.41 C1112.64,344.37 1068.96,346.61 1065.22,315.16 C1068.96,297.19 1068.96,288.21 1065.22,270.24 C1068.96,238.79 1112.64,241.03 1118.88,267.99 C1162.56,243.28 1212.48,254.51 1224.96,292.70 Z" fill="#2a2038"/>
<path d="M1250.32,347.39 C1210.14,347.33 1184.04,303.32 1194.04,254.14 C1166.47,256.54 1150.84,215.69 1179.59,202.41 C1197.84,200.42 1206.39,197.64 1222.32,188.53 C1253.39,182.37 1264.75,224.61 1241.04,238.87 C1278.04,272.78 1282.78,323.72 1250.32,347.39 Z" fill="#2a2038"/>
<path d="M1206.14,388.42 C1193.79,350.18 1227.57,311.76 1277.44,306.07 C1266.64,280.60 1300.66,253.10 1322.17,276.35 C1329.71,293.09 1334.99,300.36 1348.58,312.69 C1364.04,340.34 1327.38,364.19 1306.48,346.05 C1285.67,391.72 1238.68,411.97 1206.14,388.42 Z" fill="#2a2038"/>
<path d="M1153.47,359.07 C1186.02,335.51 1233.01,355.77 1253.82,401.43 C1274.71,383.29 1311.37,407.15 1295.91,434.79 C1282.32,447.13 1277.04,454.40 1269.51,471.14 C1247.99,494.38 1213.97,466.89 1224.77,441.42 C1174.91,435.73 1141.12,397.30 1153.47,359.07 Z" fill="#2a2038"/>
<path d="M1165.11,299.92 C1197.57,323.59 1192.83,374.54 1155.83,408.44 C1179.54,422.71 1168.17,464.94 1137.11,458.78 C1121.17,449.67 1112.63,446.89 1094.38,444.90 C1065.62,431.62 1081.26,390.77 1108.82,393.17 C1098.82,343.99 1124.93,299.99 1165.11,299.92 Z" fill="#2a2038"/>
<rect x="813.0" y="13.0" width="774.0" height="649.0" rx="2" fill="none" stroke="#2a2038" stroke-width="1" opacity="0.5"/>
</g>
<rect x="1608.0" y="8.0" width="784.0" height="659.0" rx="3" fill="#c8a8d8"/>
<clipPath id="cl2"><rect x="1608.0" y="8.0" width="784.0" height="659.0" rx="3"/></clipPath>
<g clip-path="url(#cl2)">
<path d="M2024.96,292.70 C2012.48,330.89 1962.56,342.12 1918.88,317.41 C1912.64,344.37 1868.96,346.61 1865.22,315.16 C1868.96,297.19 1868.96,288.21 1865.22,270.24 C1868.96,238.79 1912.64,241.03 1918.88,267.99 C1962.56,243.28 2012.48,254.51 2024.96,292.70 Z" fill="#2a2038"/>
<path d="M2050.32,347.39 C2010.14,347.33 1984.04,303.32 1994.04,254.14 C1966.47,256.54 1950.84,215.69 1979.59,202.41 C1997.84,200.42 2006.39,197.64 2022.32,188.53 C2053.39,182.37 2064.75,224.61 2041.04,238.87 C2078.04,272.78 2082.78,323.72 2050.32,347.39 Z" fill="#2a2038"/>
<path d="M2006.14,388.42 C1993.79,350.18 2027.57,311.76 2077.44,306.07 C2066.64,280.60 2100.66,253.10 2122.17,276.35 C2129.71,293.09 2134.99,300.36 2148.58,312.69 C2164.04,340.34 2127.38,364.19 2106.48,346.05 C2085.67,391.72 2038.68,411.97 2006.14,388.42 Z" fill="#2a2038"/>
<path d="M1953.47,359.07 C1986.02,335.51 2033.01,355.77 2053.82,401.43 C2074.71,383.29 2111.37,407.15 2095.91,434.79 C2082.32,447.13 2077.04,454.40 2069.51,471.14 C2047.99,494.38 2013.97,466.89 2024.77,441.42 C1974.91,435.73 1941.12,397.30 1953.47,359.07 Z" fill="#2a2038"/>
<path d="M1965.11,299.92 C1997.57,323.59 1992.83,374.54 1955.83,408.44 C1979.54,422.71 1968.17,464.94 1937.11,458.78 C1921.17,449.67 1912.63,446.89 1894.38,444.90 C1865.62,431.62 1881.26,390.77 1908.82,393.17 C1898.82,343.99 1924.93,299.99 1965.11,299.92 Z" fill="#2a2038"/>
<rect x="1613.0" y="13.0" width="774.0" height="649.0" rx="2" fill="none" stroke="#2a2038" stroke-width="1" opacity="0.5"/>
</g>
<rect x="8.0" y="683.0" width="784.0" height="659.0" rx="3" fill="#c8a8d8"/>
<clipPath id="cl3"><rect x="8.0" y="683.0" width="784.0" height="659.0" rx="3"/></clipPath>
<g clip-path="url(#cl3)">
<path d="M424.96,967.70 C412.48,1005.89 362.56,1017.12 318.88,992.41 C312.64,1019.37 268.96,1021.61 265.22,990.16 C268.96,972.19 268.96,963.21 265.22,945.24 C268.96,913.79 312.64,916.03 318.88,942.99 C362.56,918.28 412.48,929.51 424.96,967.70 Z" fill="#2a2038"/>
<path d="M450.32,1022.39 C410.14,1022.33 384.04,978.32 394.04,929.14 C366.47,931.54 350.84,890.69 379.59,877.41 C397.84,875.42 406.39,872.64 422.32,863.53 C453.39,857.37 464.75,899.61 441.04,913.87 C478.04,947.78 482.78,998.72 450.32,1022.39 Z" fill="#2a2038"/>
<path d="M406.14,1063.42 C393.79,1025.18 427.57,986.76 477.44,981.07 C466.64,955.60 500.66,928.10 522.17,951.35 C529.71,968.09 534.99,975.36 548.58,987.69 C564.04,1015.34 527.38,1039.19 506.48,1021.05 C485.67,1066.72 438.68,1086.97 406.14,1063.42 Z" fill="#2a2038"/>
<path d="M353.47,1034.07 C386.02,1010.51 433.01,1030.77 453.82,1076.43 C474.71,1058.29 511.37,1082.15 495.91,1109.79 C482.32,1122.13 477.04,1129.40 469.51,1146.14 C447.99,1169.38 413.97,1141.89 424.77,1116.42 C374.91,1110.73 341.12,1072.30 353.47,1034.07 Z" fill="#2a2038"/>
<path d="M365.11,974.92 C397.57,998.59 392.83,1049.54 355.83,1083.44 C379.54,1097.71 368.17,1139.94 337.11,1133.78 C321.17,1124.67 312.63,1121.89 294.38,1119.90 C265.62,1106.62 281.26,1065.77 308.82,1068.17 C298.82,1018.99 324.93,974.99 365.11,974.92 Z" fill="#2a2038"/>
<rect x="13.0" y="688.0" width="774.0" height="649.0" rx="2" fill="none" stroke="#2a2038" stroke-width="1" opacity="0.5"/>
</g>
<rect x="808.0" y="683.0" width="784.0" height="659.0" rx="3" fill="#c8a8d8"/>
<clipPath id="cl4"><rect x="808.0" y="683.0" width="784.0" height="659.0" rx="3"/></clipPath>
<g clip-path="url(#cl4)">
<path d="M1224.96,967.70 C1212.48,1005.89 1162.56,1017.12 1118.88,992.41 C1112.64,1019.37 1068.96,1021.61 1065.22,990.16 C1068.96,972.19 1068.96,963.21 1065.22,945.24 C1068.96,913.79 1112.64,916.03 1118.88,942.99 C1162.56,918.28 1212.48,929.51 1224.96,967.70 Z" fill="#2a2038"/>
<path d="M1250.32,1022.39 C1210.14,1022.33 1184.04,978.32 1194.04,929.14 C1166.47,931.54 1150.84,890.69 1179.59,877.41 C1197.84,875.42 1206.39,872.64 1222.32,863.53 C1253.39,857.37 1264.75,899.61 1241.04,913.87 C1278.04,947.78 1282.78,998.72 1250.32,1022.39 Z" fill="#2a2038"/>
<path d="M1206.14,1063.42 C1193.79,1025.18 1227.57,986.76 1277.44,981.07 C1266.64,955.60 1300.66,928.10 1322.17,951.35 C1329.71,968.09 1334.99,975.36 1348.58,987.69 C1364.04,1015.34 1327.38,1039.19 1306.48,1021.05 C1285.67,1066.72 1238.68,1086.97 1206.14,1063.42 Z" fill="#2a2038"/>
<path d="M1153.47,1034.07 C1186.02,1010.51 1233.01,1030.77 1253.82,1076.43 C1274.71,1058.29 1311.37,1082.15 1295.91,1109.79 C1282.32,1122.13 1277.04,1129.40 1269.51,1146.14 C1247.99,1169.38 1213.97,1141.89 1224.77,1116.42 C1174.91,1110.73 1141.12,1072.30 1153.47,1034.07 Z" fill="#2a2038"/>
<path d="M1165.11,974.92 C1197.57,998.59 1192.83,1049.54 1155.83,1083.44 C1179.54,1097.71 1168.17,1139.94 1137.11,1133.78 C1121.17,1124.67 1112.63,1121.89 1094.38,1119.90 C1065.62,1106.62 1081.26,1065.77 1108.82,1068.17 C1098.82,1018.99 1124.93,974.99 1165.11,974.92 Z" fill="#2a2038"/>
<rect x="813.0" y="688.0" width="774.0" height="649.0" rx="2" fill="none" stroke="#2a2038" stroke-width="1" opacity="0.5"/>
</g>
<rect x="1608.0" y="683.0" width="784.0" height="659.0" rx="3" fill="#c8a8d8"/>
<clipPath id="cl5"><rect x="1608.0" y="683.0" width="784.0" height="659.0" rx="3"/></clipPath>
<g clip-path="url(#cl5)">
<path d="M2024.96,967.70 C2012.48,1005.89 1962.56,1017.12 1918.88,992.41 C1912.64,1019.37 1868.96,1021.61 1865.22,990.16 C1868.96,972.19 1868.96,963.21 1865.22,945.24 C1868.96,913.79 1912.64,916.03 1918.88,942.99 C1962.56,918.28 2012.48,929.51 2024.96,967.70 Z" fill="#2a2038"/>
<path d="M2050.32,1022.39 C2010.14,1022.33 1984.04,978.32 1994.04,929.14 C1966.47,931.54 1950.84,890.69 1979.59,877.41 C1997.84,875.42 2006.39,872.64 2022.32,863.53 C2053.39,857.37 2064.75,899.61 2041.04,913.87 C2078.04,947.78 2082.78,998.72 2050.32,1022.39 Z" fill="#2a2038"/>
<path d="M2006.14,1063.42 C1993.79,1025.18 2027.57,986.76 2077.44,981.07 C2066.64,955.60 2100.66,928.10 2122.17,951.35 C2129.71,968.09 2134.99,975.36 2148.58,987.69 C2164.04,1015.34 2127.38,1039.19 2106.48,1021.05 C2085.67,1066.72 2038.68,1086.97 2006.14,1063.42 Z" fill="#2a2038"/>
<path d="M1953.47,1034.07 C1986.02,1010.51 2033.01,1030.77 2053.82,1076.43 C2074.71,1058.29 2111.37,1082.15 2095.91,1109.79 C2082.32,1122.13 2077.04,1129.40 2069.51,1146.14 C2047.99,1169.38 2013.97,1141.89 2024.77,1116.42 C1974.91,1110.73 1941.12,1072.30 1953.47,1034.07 Z" fill="#2a2038"/>
<path d="M1965.11,974.92 C1997.57,998.59 1992.83,1049.54 1955.83,1083.44 C1979.54,1097.71 1968.17,1139.94 1937.11,1133.78 C1921.17,1124.67 1912.63,1121.89 1894.38,1119.90 C1865.62,1106.62 1881.26,1065.77 1908.82,1068.17 C1898.82,1018.99 1924.93,974.99 1965.11,974.92 Z" fill="#2a2038"/>
<rect x="1613.0" y="688.0" width="774.0" height="649.0" rx="2" fill="none" stroke="#2a2038" stroke-width="1" opacity="0.5"/>
</g>
</svg>