<svg xmlns="http://www.w3.org/2000/svg" width="2400" height="1350" viewBox="0 0 2400 1350">
<rect width="2400" height="1350" fill="#16202e"/>
<rect x="6.0" y="6.0" width="588.0" height="663.0" rx="3" fill="#8aaabb"/>
<clipPath id="cl0"><rect x="6.0" y="6.0" width="588.0" height="663.0" rx="3"/></clipPath>
<g clip-path="url(#cl0)">
<path d="M105.26,337.50 C93.70,368.71 35.90,384.32 -72.48,347.90 C-79.70,340.10 -79.70,334.90 -72.48,327.10 C35.90,290.68 93.70,306.29 105.26,337.50 Z" fill="#16202e"/>
<path d="M260.70,347.89 C241.51,375.09 181.64,375.32 86.26,312.29 C81.28,302.89 82.62,297.87 91.60,292.18 C205.70,284.83 257.55,314.76 260.70,347.89 Z" fill="#16202e"/>
<path d="M417.50,327.11 C414.35,360.24 362.50,390.17 248.40,382.82 C239.42,377.13 238.08,372.11 243.06,362.71 C338.44,299.68 398.31,299.91 417.50,327.11 Z" fill="#16202e"/>
<path d="M575.66,337.50 C564.10,368.71 506.30,384.32 397.93,347.90 C390.70,340.10 390.70,334.90 397.93,327.10 C506.30,290.68 564.10,306.29 575.66,337.50 Z" fill="#16202e"/>
<rect x="11.0" y="11.0" width="578.0" height="653.0" rx="2" fill="none" stroke="#16202e" stroke-width="1" opacity="0.4"/>
<rect x="14.0" y="14.0" width="572.0" height="647.0" rx="1" fill="none" stroke="#16202e" stroke-width="0.5" opacity="0.25"/>
</g>
<rect x="606.0" y="6.0" width="588.0" height="663.0" rx="3" fill="#8aaabb"/>
<clipPath id="cl1"><rect x="606.0" y="6.0" width="588.0" height="663.0" rx="3"/></clipPath>
<g clip-path="url(#cl1)">
<path d="M705.26,432.86 C693.70,464.07 635.90,479.68 527.52,443.26 C520.30,435.46 520.30,430.26 527.52,422.45 C635.90,386.04 693.70,401.65 705.26,432.86 Z" fill="#16202e"/>
<path d="M860.70,252.54 C841.51,279.73 781.64,279.96 686.26,216.93 C681.28,207.53 682.62,202.51 691.60,196.82 C805.70,189.47 857.55,219.40 860.70,252.54 Z" fill="#16202e"/>
<path d="M1017.50,422.46 C1014.35,455.60 962.50,485.53 848.40,478.18 C839.42,472.49 838.08,467.47 843.06,458.07 C938.44,395.04 998.31,395.27 1017.50,422.46 Z" fill="#16202e"/>
<path d="M1175.66,242.14 C1164.10,273.35 1106.30,288.96 997.93,252.55 C990.70,244.74 990.70,239.54 997.93,231.74 C1106.30,195.32 1164.10,210.93 1175.66,242.14 Z" fill="#16202e"/>
<rect x="611.0" y="11.0" width="578.0" height="653.0" rx="2" fill="none" stroke="#16202e" stroke-width="1" opacity="0.4"/>
<rect x="614.0" y="14.0" width="572.0" height="647.0" rx="1" fill="none" stroke="#16202e" stroke-width="0.5" opacity="0.25"/>
</g>
<rect x="1206.0" y="6.0" width="588.0" height="663.0" rx="3" fill="#8aaabb"/>
<clipPath id="cl2"><rect x="1206.0" y="6.0" width="588.0" height="663.0" rx="3"/></clipPath>
<g clip-path="url(#cl2)">
<path d="M1305.26,504.87 C1293.70,536.08 1235.90,551.69 1127.52,515.27 C1120.30,507.47 1120.30,502.27 1127.52,494.46 C1235.90,458.05 1293.70,473.66 1305.26,504.87 Z" fill="#16202e"/>
<path d="M1460.70,180.53 C1441.51,207.72 1381.64,207.95 1286.26,144.92 C1281.28,135.52 1282.62,130.50 1291.60,124.81 C1405.70,117.46 1457.55,147.39 1460.70,180.53 Z" fill="#16202e"/>
<path d="M1617.50,494.47 C1614.35,527.61 1562.50,557.54 1448.40,550.19 C1439.42,544.50 1438.08,539.48 1443.06,530.08 C1538.44,467.05 1598.31,467.28 1617.50,494.47 Z" fill="#16202e"/>
<path d="M1775.66,170.13 C1764.10,201.34 1706.30,216.95 1597.92,180.54 C1590.70,172.73 1590.70,167.53 1597.92,159.73 C1706.30,123.31 1764.10,138.92 1775.66,170.13 Z" fill="#16202e"/>
<rect x="1211.0" y="11.0" width="578.0" height="653.0" rx="2" fill="none" stroke="#16202e" stroke-width="1" opacity="0.4"/>
<rect x="1214.0" y="14.0" width="572.0" height="647.0" rx="1" fill="none" stroke="#16202e" stroke-width="0.5" opacity="0.25"/>
</g>
<rect x="1806.0" y="6.0" width="588.0" height="663.0" rx="3" fill="#8aaabb"/>
<clipPath id="cl3"><rect x="1806.0" y="6.0" width="588.0" height="663.0" rx="3"/></clipPath>
<g clip-path="url(#cl3)">
<path d="M1905.26,535.90 C1893.70,567.11 1835.90,582.72 1727.52,546.31 C1720.30,538.50 1720.30,533.30 1727.52,525.50 C1835.90,489.08 1893.70,504.69 1905.26,535.90 Z" fill="#16202e"/>
<path d="M2060.70,149.49 C2041.51,176.69 1981.64,176.92 1886.26,113.89 C1881.28,104.49 1882.62,99.46 1891.60,93.78 C2005.70,86.43 2057.55,116.36 2060.70,149.49 Z" fill="#16202e"/>
<path d="M2217.50,525.51 C2214.35,558.64 2162.50,588.57 2048.40,581.22 C2039.42,575.54 2038.08,570.51 2043.06,561.11 C2138.44,498.08 2198.31,498.31 2217.50,525.51 Z" fill="#16202e"/>
<path d="M2375.66,139.10 C2364.10,170.31 2306.30,185.92 2197.92,149.50 C2190.70,141.70 2190.70,136.50 2197.92,128.69 C2306.30,92.28 2364.10,107.89 2375.66,139.10 Z" fill="#16202e"/>
<rect x="1811.0" y="11.0" width="578.0" height="653.0" rx="2" fill="none" stroke="#16202e" stroke-width="1" opacity="0.4"/>
<rect x="1814.0" y="14.0" width="572.0" height="647.0" rx="1" fill="none" stroke="#16202e" stroke-width="0.5" opacity="0.25"/>
</g>
<rect x="6.0" y="681.0" width="588.0" height="663.0" rx="3" fill="#8aaabb"/>
<clipPath id="cl4"><rect x="6.0" y="681.0" width="588.0" height="663.0" rx="3"/></clipPath>
<g clip-path="url(#cl4)">
<path d="M105.26,1193.36 C93.70,1224.57 35.90,1240.18 -72.48,1203.76 C-79.70,1195.96 -79.70,1190.76 -72.48,1182.96 C35.90,1146.54 93.70,1162.15 105.26,1193.36 Z" fill="#16202e"/>
<path d="M260.70,842.03 C241.51,869.23 181.64,869.46 86.26,806.43 C81.28,797.03 82.62,792.01 91.60,786.32 C205.70,778.97 257.55,808.90 260.70,842.03 Z" fill="#16202e"/>
<path d="M417.50,1182.97 C414.35,1216.10 362.50,1246.03 248.40,1238.68 C239.42,1232.99 238.08,1227.97 243.06,1218.57 C338.44,1155.54 398.31,1155.77 417.50,1182.97 Z" fill="#16202e"/>
<path d="M575.66,831.64 C564.10,862.85 506.30,878.46 397.93,842.04 C390.70,834.24 390.70,829.04 397.93,821.24 C506.30,784.82 564.10,800.43 575.66,831.64 Z" fill="#16202e"/>
<rect x="11.0" y="686.0" width="578.0" height="653.0" rx="2" fill="none" stroke="#16202e" stroke-width="1" opacity="0.4"/>
<rect x="14.0" y="689.0" width="572.0" height="647.0" rx="1" fill="none" stroke="#16202e" stroke-width="0.5" opacity="0.25"/>
</g>
<rect x="606.0" y="681.0" width="588.0" height="663.0" rx="3" fill="#8aaabb"/>
<clipPath id="cl5"><rect x="606.0" y="681.0" width="588.0" height="663.0" rx="3"/></clipPath>
<g clip-path="url(#cl5)">
<path d="M705.26,1131.54 C693.70,1162.75 635.90,1178.35 527.52,1141.94 C520.30,1134.14 520.30,1128.94 527.52,1121.13 C635.90,1084.72 693.70,1100.32 705.26,1131.54 Z" fill="#16202e"/>
<path d="M860.70,903.86 C841.51,931.05 781.64,931.29 686.26,868.25 C681.28,858.86 682.62,853.83 691.60,848.14 C805.70,840.79 857.55,870.72 860.70,903.86 Z" fill="#16202e"/>
<path d="M1017.50,1121.14 C1014.35,1154.28 962.50,1184.21 848.40,1176.86 C839.42,1171.17 838.08,1166.14 843.06,1156.75 C938.44,1093.71 998.31,1093.95 1017.50,1121.14 Z" fill="#16202e"/>
<path d="M1175.66,893.46 C1164.10,924.68 1106.30,940.28 997.93,903.87 C990.70,896.06 990.70,890.86 997.93,883.06 C1106.30,846.65 1164.10,862.25 1175.66,893.46 Z" fill="#16202e"/>
<rect x="611.0" y="686.0" width="578.0" height="653.0" rx="2" fill="none" stroke="#16202e" stroke-width="1" opacity="0.4"/>
<rect x="614.0" y="689.0" width="572.0" height="647.0" rx="1" fill="none" stroke="#16202e" stroke-width="0.5" opacity="0.25"/>
</g>
<rect x="1206.0" y="681.0" width="588.0" height="663.0" rx="3" fill="#8aaabb"/>
<clipPath id="cl6"><rect x="1206.0" y="681.0" width="588.0" height="663.0" rx="3"/></clipPath>
<g clip-path="url(#cl6)">
<path d="M1305.26,1040.57 C1293.70,1071.78 1235.90,1087.39 1127.52,1050.97 C1120.30,1043.17 1120.30,1037.97 1127.52,1030.16 C1235.90,993.75 1293.70,1009.36 1305.26,1040.57 Z" fill="#16202e"/>
<path d="M1460.70,994.83 C1441.51,1022.02 1381.64,1022.25 1286.26,959.22 C1281.28,949.82 1282.62,944.80 1291.60,939.11 C1405.70,931.76 1457.55,961.69 1460.70,994.83 Z" fill="#16202e"/>
<path d="M1617.50,1030.17 C1614.35,1063.31 1562.50,1093.24 1448.40,1085.89 C1439.42,1080.20 1438.08,1075.18 1443.06,1065.78 C1538.44,1002.75 1598.31,1002.98 1617.50,1030.17 Z" fill="#16202e"/>
<path d="M1775.66,984.43 C1764.10,1015.64 1706.30,1031.25 1597.92,994.84 C1590.70,987.03 1590.70,981.83 1597.92,974.03 C1706.30,937.61 1764.10,953.22 1775.66,984.43 Z" fill="#16202e"/>
<rect x="1211.0" y="686.0" width="578.0" height="653.0" rx="2" fill="none" stroke="#16202e" stroke-width="1" opacity="0.4"/>
<rect x="1214.0" y="689.0" width="572.0" height="647.0" rx="1" fill="none" stroke="#16202e" stroke-width="0.5" opacity="0.25"/>
</g>
<rect x="1806.0" y="681.0" width="588.0" height="663.0" rx="3" fill="#8aaabb"/>
<clipPath id="cl7"><rect x="1806.0" y="681.0" width="588.0" height="663.0" rx="3"/></clipPath>
<g clip-path="url(#cl7)">
<path d="M1905.26,942.73 C1893.70,973.94 1835.90,989.55 1727.52,953.13 C1720.30,945.33 1720.30,940.13 1727.52,932.33 C1835.90,895.91 1893.70,911.52 1905.26,942.73 Z" fill="#16202e"/>
<path d="M2060.70,1092.66 C2041.51,1119.86 1981.64,1120.09 1886.26,1057.06 C1881.28,1047.66 1882.62,1042.64 1891.60,1036.95 C2005.70,1029.60 2057.55,1059.53 2060.70,1092.66 Z" fill="#16202e"/>
<path d="M2217.50,932.34 C2214.35,965.47 2162.50,995.40 2048.40,988.05 C2039.42,982.36 2038.08,977.34 2043.06,967.94 C2138.44,904.91 2198.31,905.14 2217.50,932.34 Z" fill="#16202e"/>
<path d="M2375.66,1082.27 C2364.10,1113.48 2306.30,1129.09 2197.92,1092.67 C2190.70,1084.87 2190.70,1079.67 2197.92,1071.87 C2306.30,1035.45 2364.10,1051.06 2375.66,1082.27 Z" fill="#16202e"/>
<rect x="1811.0" y="686.0" width="578.0" height="653.0" rx="2" fill="none" stroke="#16202e" stroke-width="1" opacity="0.4"/>
<rect x="1814.0" y="689.0" width="572.0" height="647.0" rx="1" fill="none" stroke="#16202e" stroke-width="0.5" opacity="0.25"/>
</g>
</svg>