<svg xmlns="http://www.w3.org/2000/svg" width="1920" height="1080" viewBox="0 0 1920 1080">
<rect width="1920" height="1080" fill="#dde0d8"/>
<rect x="5.0" y="5.0" width="310.0" height="350.0" rx="3" fill="#3a5040"/>
<clipPath id="cl0"><rect x="5.0" y="5.0" width="310.0" height="350.0" rx="3"/></clipPath>
<g clip-path="url(#cl0)">
<path d="M131.88,152.18 L133.20,142.24L124.52,137.22 L134.38,135.40L136.49,125.59 L141.26,134.41L151.24,133.38 L144.33,140.64L148.39,149.81 L139.34,145.49 Z" fill="#dde0d8"/>
<path d="M153.61,146.30 L147.56,138.90L138.40,141.65 L143.57,133.61L138.13,125.75 L147.37,128.19L153.17,120.58 L153.71,130.13L162.73,133.28 L153.82,136.75 Z" fill="#dde0d8"/>
<path d="M179.73,218.84 L190.52,222.11L197.68,213.40 L197.90,224.67L208.40,228.80 L197.75,232.49L197.07,243.75 L190.27,234.76L179.35,237.59 L185.80,228.34 Z" fill="#dde0d8"/>
</g>
<rect x="325.0" y="5.0" width="310.0" height="350.0" rx="3" fill="#3a5040"/>
<clipPath id="cl1"><rect x="325.0" y="5.0" width="310.0" height="350.0" rx="3"/></clipPath>
<g clip-path="url(#cl1)">
<path d="M484.88,179.93 L475.07,181.54L472.79,191.22 L468.23,182.39L458.32,183.22 L465.31,176.14L461.46,166.97 L470.35,171.44L477.88,164.94 L476.38,174.77 Z" fill="#dde0d8"/>
<path d="M460.67,124.86 L471.88,128.38L479.43,119.38 L479.54,131.13L490.43,135.53 L479.30,139.27L478.48,150.98 L471.48,141.55L460.08,144.39 L466.90,134.82 Z" fill="#dde0d8"/>
<path d="M493.95,156.67 L483.46,160.26L482.75,171.33 L476.09,162.46L465.34,165.21 L471.72,156.13L465.79,146.76 L476.39,150.02L483.47,141.49 L483.64,152.58 Z" fill="#dde0d8"/>
</g>
<rect x="645.0" y="5.0" width="310.0" height="350.0" rx="3" fill="#3a5040"/>
<clipPath id="cl2"><rect x="645.0" y="5.0" width="310.0" height="350.0" rx="3"/></clipPath>
<g clip-path="url(#cl2)">
<path d="M802.19,201.00 L806.54,209.85L816.39,209.22 L809.32,216.10L812.95,225.26 L804.23,220.66L796.63,226.96 L798.31,217.24L789.98,211.96 L799.74,210.55 Z" fill="#dde0d8"/>
<path d="M811.73,137.57 L802.66,140.14L801.56,149.51 L796.31,141.68L787.07,143.53 L792.89,136.11L788.27,127.90 L797.12,131.14L803.51,124.21 L803.16,133.63 Z" fill="#dde0d8"/>
<path d="M751.34,190.83 L757.64,181.93L751.85,172.69 L762.26,175.94L769.25,167.57 L769.38,178.48L779.50,182.54 L769.17,186.03L768.43,196.92 L761.91,188.17 Z" fill="#dde0d8"/>
</g>
<rect x="965.0" y="5.0" width="310.0" height="350.0" rx="3" fill="#3a5040"/>
<clipPath id="cl3"><rect x="965.0" y="5.0" width="310.0" height="350.0" rx="3"/></clipPath>
<g clip-path="url(#cl3)">
<path d="M1123.43,159.86 L1130.58,153.18L1127.15,144.02 L1135.71,148.75L1143.36,142.66 L1141.51,152.26L1149.67,157.66 L1139.96,158.87L1137.35,168.29 L1133.20,159.43 Z" fill="#dde0d8"/>
<path d="M1108.65,146.00 L1116.24,137.21L1111.04,126.82 L1121.74,131.33L1130.01,123.17 L1129.04,134.75L1139.35,140.09 L1128.04,142.73L1126.15,154.19 L1120.13,144.26 Z" fill="#dde0d8"/>
<path d="M1141.84,193.66 L1141.92,204.38L1151.85,208.42 L1141.68,211.80L1140.91,222.50 L1134.54,213.87L1124.13,216.44 L1130.37,207.72L1124.70,198.62 L1134.93,201.85 Z" fill="#dde0d8"/>
</g>
<rect x="1285.0" y="5.0" width="310.0" height="350.0" rx="3" fill="#3a5040"/>
<clipPath id="cl4"><rect x="1285.0" y="5.0" width="310.0" height="350.0" rx="3"/></clipPath>
<g clip-path="url(#cl4)">
<path d="M1477.52,202.69 L1469.12,197.83L1461.41,203.72 L1463.44,194.23L1455.46,188.72 L1465.10,187.72L1467.88,178.42 L1471.81,187.29L1481.51,187.05 L1474.30,193.54 Z" fill="#dde0d8"/>
<path d="M1453.78,127.93 L1452.57,137.15L1460.61,141.81 L1451.47,143.50L1449.53,152.58 L1445.10,144.42L1435.85,145.38 L1442.25,138.64L1438.48,130.14 L1446.87,134.15 Z" fill="#dde0d8"/>
<path d="M1426.59,150.08 L1420.36,141.58L1410.13,144.06 L1416.29,135.52L1410.76,126.55 L1420.79,129.77L1427.62,121.74 L1427.65,132.28L1437.40,136.28 L1427.39,139.58 Z" fill="#dde0d8"/>
</g>
<rect x="1605.0" y="5.0" width="310.0" height="350.0" rx="3" fill="#3a5040"/>
<clipPath id="cl5"><rect x="1605.0" y="5.0" width="310.0" height="350.0" rx="3"/></clipPath>
<g clip-path="url(#cl5)">
<path d="M1808.82,120.39 L1806.63,129.75L1814.43,135.37 L1804.85,136.18L1801.92,145.34 L1798.19,136.47L1788.57,136.52 L1795.85,130.23L1792.84,121.10 L1801.06,126.08 Z" fill="#dde0d8"/>
<path d="M1773.82,157.26 L1768.83,146.92L1757.36,147.56 L1765.65,139.62L1761.49,128.91 L1771.61,134.34L1780.50,127.08 L1778.47,138.38L1788.13,144.59 L1776.75,146.15 Z" fill="#dde0d8"/>
<path d="M1783.62,152.48 L1793.46,155.69L1800.19,147.82 L1800.19,158.18L1809.75,162.15 L1799.90,165.34L1799.07,175.66 L1792.99,167.28L1782.92,169.69 L1789.01,161.32 Z" fill="#dde0d8"/>
</g>
<rect x="5.0" y="365.0" width="310.0" height="350.0" rx="3" fill="#3a5040"/>
<clipPath id="cl6"><rect x="5.0" y="365.0" width="310.0" height="350.0" rx="3"/></clipPath>
<g clip-path="url(#cl6)">
<path d="M126.45,519.85 L137.42,518.08L140.00,507.27 L145.06,517.16L156.14,516.27 L148.30,524.15L152.57,534.41 L142.66,529.39L134.22,536.62 L135.93,525.64 Z" fill="#dde0d8"/>
<path d="M160.07,528.47 L165.04,537.06L174.87,535.77 L168.24,543.14L172.51,552.10 L163.45,548.07L156.25,554.90 L157.28,545.03L148.56,540.29 L158.26,538.23 Z" fill="#dde0d8"/>
<path d="M158.96,548.22 L168.53,542.08L166.53,530.89 L175.32,538.09L185.34,532.73 L181.21,543.32L189.41,551.19 L178.06,550.54L173.10,560.76 L170.22,549.77 Z" fill="#dde0d8"/>
</g>
<rect x="325.0" y="365.0" width="310.0" height="350.0" rx="3" fill="#3a5040"/>
<clipPath id="cl7"><rect x="325.0" y="365.0" width="310.0" height="350.0" rx="3"/></clipPath>
<g clip-path="url(#cl7)">
<path d="M476.00,576.03 L471.16,566.12L460.15,566.79 L468.08,559.12L464.05,548.86 L473.79,554.04L482.30,547.02 L480.39,557.89L489.69,563.82 L478.77,565.36 Z" fill="#dde0d8"/>
<path d="M498.77,556.34 L487.94,550.90L478.77,558.82 L480.60,546.84L470.24,540.57 L482.19,538.60L484.96,526.81 L490.52,537.57L502.59,536.56 L494.07,545.17 Z" fill="#dde0d8"/>
<path d="M471.03,558.78 L466.92,569.18L474.95,576.96 L463.80,576.27L458.88,586.31 L456.09,575.49L445.02,573.92 L454.45,567.91L452.53,556.90 L461.15,564.02 Z" fill="#dde0d8"/>
</g>
<rect x="645.0" y="365.0" width="310.0" height="350.0" rx="3" fill="#3a5040"/>
<clipPath id="cl8"><rect x="645.0" y="365.0" width="310.0" height="350.0" rx="3"/></clipPath>
<g clip-path="url(#cl8)">
<path d="M821.30,494.17 L813.28,501.62L817.09,511.89 L807.52,506.56L798.93,513.35 L801.04,502.61L791.93,496.54 L802.80,495.23L805.75,484.69 L810.36,494.62 Z" fill="#dde0d8"/>
<path d="M798.22,542.07 L807.94,540.94L810.62,531.52 L814.70,540.42L824.48,540.06 L817.28,546.69L820.65,555.88 L812.12,551.09L804.41,557.13 L806.34,547.53 Z" fill="#dde0d8"/>
<path d="M831.46,513.86 L828.75,503.21L817.87,501.62 L827.17,495.75L825.32,484.91 L833.78,491.95L843.51,486.84 L839.44,497.05L847.30,504.73 L836.33,504.01 Z" fill="#dde0d8"/>
</g>
<rect x="965.0" y="365.0" width="310.0" height="350.0" rx="3" fill="#3a5040"/>
<clipPath id="cl9"><rect x="965.0" y="365.0" width="310.0" height="350.0" rx="3"/></clipPath>
<g clip-path="url(#cl9)">
<path d="M1129.79,525.88 L1139.17,531.35L1147.83,524.78 L1145.52,535.40L1154.45,541.60 L1143.64,542.69L1140.50,553.09 L1136.12,543.15L1125.26,543.38 L1133.36,536.14 Z" fill="#dde0d8"/>
<path d="M1152.24,541.14 L1143.06,548.83L1146.65,560.26 L1136.49,553.90L1126.73,560.84 L1129.64,549.22L1120.02,542.08 L1131.97,541.26L1135.79,529.90 L1140.27,541.01 Z" fill="#dde0d8"/>
<path d="M1111.32,510.93 L1119.60,517.87L1129.20,512.89 L1125.15,522.91L1132.85,530.50 L1122.07,529.74L1117.23,539.41 L1114.62,528.93L1103.93,527.32 L1113.10,521.59 Z" fill="#dde0d8"/>
</g>
<rect x="1285.0" y="365.0" width="310.0" height="350.0" rx="3" fill="#3a5040"/>
<clipPath id="cl10"><rect x="1285.0" y="365.0" width="310.0" height="350.0" rx="3"/></clipPath>
<g clip-path="url(#cl10)">
<path d="M1463.67,588.07 L1466.17,577.58L1457.43,571.26 L1468.18,570.38L1471.50,560.12 L1475.65,570.08L1486.43,570.06 L1478.25,577.08L1481.60,587.33 L1472.39,581.72 Z" fill="#dde0d8"/>
<path d="M1452.67,559.27 L1455.45,550.02L1447.98,543.91 L1457.63,543.69L1461.14,534.70 L1464.32,543.81L1473.96,544.37 L1466.28,550.21L1468.73,559.55 L1460.80,554.05 Z" fill="#dde0d8"/>
<path d="M1418.40,556.26 L1407.80,555.48L1403.02,564.96 L1400.49,554.64L1389.99,553.02 L1399.02,547.43L1397.32,536.94 L1405.43,543.80L1414.88,538.94 L1410.86,548.78 Z" fill="#dde0d8"/>
</g>
<rect x="1605.0" y="365.0" width="310.0" height="350.0" rx="3" fill="#3a5040"/>
<clipPath id="cl11"><rect x="1605.0" y="365.0" width="310.0" height="350.0" rx="3"/></clipPath>
<g clip-path="url(#cl11)">
<path d="M1732.39,519.36 L1721.71,520.01L1718.21,530.13 L1714.29,520.17L1703.59,519.98 L1711.85,513.17L1708.73,502.93 L1717.75,508.68L1726.52,502.55 L1723.85,512.91 Z" fill="#dde0d8"/>
<path d="M1786.59,533.15 L1789.97,544.50L1801.75,545.73 L1792.00,552.46L1794.46,564.04 L1785.06,556.84L1774.80,562.77 L1778.74,551.60L1769.93,543.67 L1781.78,543.97 Z" fill="#dde0d8"/>
<path d="M1762.84,578.73 L1771.74,573.27L1770.11,562.96 L1778.05,569.73L1787.36,564.99 L1783.37,574.64L1790.75,582.03 L1780.34,581.21L1775.60,590.51 L1773.15,580.37 Z" fill="#dde0d8"/>
</g>
<rect x="5.0" y="725.0" width="310.0" height="350.0" rx="3" fill="#3a5040"/>
<clipPath id="cl12"><rect x="5.0" y="725.0" width="310.0" height="350.0" rx="3"/></clipPath>
<g clip-path="url(#cl12)">
<path d="M143.58,888.96 L148.89,899.93L161.07,899.24 L152.27,907.68L156.70,919.05 L145.94,913.29L136.50,921.01 L138.66,909.01L128.40,902.41 L140.48,900.75 Z" fill="#dde0d8"/>
<path d="M175.84,867.64 L172.18,858.03L161.91,857.72 L169.92,851.28L167.04,841.41 L175.64,847.03L184.14,841.25 L181.45,851.17L189.58,857.46 L179.31,857.97 Z" fill="#dde0d8"/>
<path d="M149.28,875.35 L150.82,864.00L140.93,858.22 L152.20,856.18L154.64,844.99 L160.06,855.08L171.46,853.94 L163.54,862.21L168.15,872.70 L157.83,867.73 Z" fill="#dde0d8"/>
</g>
<rect x="325.0" y="725.0" width="310.0" height="350.0" rx="3" fill="#3a5040"/>
<clipPath id="cl13"><rect x="325.0" y="725.0" width="310.0" height="350.0" rx="3"/></clipPath>
<g clip-path="url(#cl13)">
<path d="M461.97,950.29 L470.87,942.08L466.69,930.71 L477.26,936.63L486.78,929.15 L484.41,941.03L494.47,947.78 L482.44,949.19L479.13,960.84 L474.07,949.84 Z" fill="#dde0d8"/>
<path d="M490.48,839.95 L500.59,847.26L511.21,840.73 L507.38,852.60L516.88,860.69 L504.41,860.72L499.65,872.24 L495.77,860.39L483.33,859.43 L493.41,852.08 Z" fill="#dde0d8"/>
<path d="M440.55,871.06 L445.85,881.00L457.06,879.93 L449.24,888.04L453.73,898.37 L443.60,893.44L435.16,900.91 L436.72,889.75L427.01,884.02 L438.11,882.06 Z" fill="#dde0d8"/>
</g>
<rect x="645.0" y="725.0" width="310.0" height="350.0" rx="3" fill="#3a5040"/>
<clipPath id="cl14"><rect x="645.0" y="725.0" width="310.0" height="350.0" rx="3"/></clipPath>
<g clip-path="url(#cl14)">
<path d="M821.16,896.55 L810.78,890.46L801.18,897.70 L803.76,885.95L793.91,879.06 L805.88,877.89L809.39,866.38 L814.20,877.40L826.23,877.19 L817.23,885.17 Z" fill="#dde0d8"/>
<path d="M838.16,861.70 L828.02,861.24L823.71,870.43 L821.01,860.65L810.94,859.39 L819.41,853.80L817.49,843.83 L825.43,850.16L834.31,845.26 L830.75,854.76 Z" fill="#dde0d8"/>
<path d="M826.12,924.04 L816.17,919.15L807.84,926.46 L809.42,915.49L799.89,909.83 L810.81,907.94L813.26,897.13 L818.43,906.93L829.47,905.92 L821.74,913.86 Z" fill="#dde0d8"/>
</g>
<rect x="965.0" y="725.0" width="310.0" height="350.0" rx="3" fill="#3a5040"/>
<clipPath id="cl15"><rect x="965.0" y="725.0" width="310.0" height="350.0" rx="3"/></clipPath>
<g clip-path="url(#cl15)">
<path d="M1152.35,906.95 L1149.55,918.57L1159.20,925.61 L1147.29,926.53L1143.58,937.89 L1139.01,926.85L1127.06,926.83 L1136.16,919.07L1132.48,907.70 L1142.67,913.96 Z" fill="#dde0d8"/>
<path d="M1132.36,860.81 L1142.97,854.50L1141.21,842.29 L1150.49,850.42L1161.56,844.98 L1156.69,856.32L1165.29,865.16 L1153.00,864.03L1147.24,874.95 L1144.52,862.91 Z" fill="#dde0d8"/>
<path d="M1085.97,935.63 L1096.72,933.82L1099.17,923.20 L1104.21,932.86L1115.07,931.90 L1107.44,939.69L1111.70,949.71 L1101.94,944.87L1093.72,952.02 L1095.32,941.24 Z" fill="#dde0d8"/>
</g>
<rect x="1285.0" y="725.0" width="310.0" height="350.0" rx="3" fill="#3a5040"/>
<clipPath id="cl16"><rect x="1285.0" y="725.0" width="310.0" height="350.0" rx="3"/></clipPath>
<g clip-path="url(#cl16)">
<path d="M1459.43,855.72 L1471.28,855.03L1475.19,843.83 L1479.51,854.88L1491.37,855.14 L1482.19,862.66L1485.62,874.02 L1475.63,867.61L1465.88,874.38 L1468.88,862.90 Z" fill="#dde0d8"/>
<path d="M1484.38,849.34 L1480.00,858.35L1486.63,865.85 L1476.71,864.47L1471.63,873.10 L1469.88,863.24L1460.10,861.07 L1468.94,856.36L1467.98,846.38 L1475.19,853.34 Z" fill="#dde0d8"/>
<path d="M1487.47,859.89 L1479.94,867.51L1484.09,877.38 L1474.52,872.58L1466.41,879.58 L1468.02,868.99L1458.86,863.44 L1469.43,861.70L1471.87,851.27 L1476.80,860.78 Z" fill="#dde0d8"/>
</g>
<rect x="1605.0" y="725.0" width="310.0" height="350.0" rx="3" fill="#3a5040"/>
<clipPath id="cl17"><rect x="1605.0" y="725.0" width="310.0" height="350.0" rx="3"/></clipPath>
<g clip-path="url(#cl17)">
<path d="M1721.24,914.92 L1717.17,903.85L1705.39,903.37 L1714.65,896.08L1711.48,884.73 L1721.27,891.29L1731.08,884.76 L1727.87,896.10L1737.12,903.41 L1725.34,903.87 Z" fill="#dde0d8"/>
<path d="M1794.89,877.50 L1793.33,865.39L1781.55,862.19 L1792.58,856.96L1791.98,844.77 L1800.36,853.65L1811.78,849.31 L1805.92,860.03L1813.57,869.54 L1801.57,867.28 Z" fill="#dde0d8"/>
<path d="M1752.29,905.14 L1753.92,894.73L1744.94,889.24 L1755.33,887.58L1757.78,877.34 L1762.58,886.71L1773.07,885.87 L1765.64,893.33L1769.68,903.05 L1760.29,898.29 Z" fill="#dde0d8"/>
</g>
</svg>