<svg xmlns="http://www.w3.org/2000/svg" width="1920" height="1080" viewBox="0 0 1920 1080">
<rect width="1920" height="1080" fill="#2a2038"/>
<rect x="4.0" y="4.0" width="472.0" height="352.0" rx="3" fill="#c8a8d8"/>
<clipPath id="cl0"><rect x="4.0" y="4.0" width="472.0" height="352.0" rx="3"/></clipPath>
<g clip-path="url(#cl0)">
<path d="M245.62,169.92 C242.81,178.51 231.58,181.04 221.75,175.48 C220.34,181.55 210.52,182.05 209.67,174.97 C210.52,170.93 210.52,168.91 209.67,164.87 C210.52,157.79 220.34,158.29 221.75,164.36 C231.58,158.80 242.81,161.33 245.62,169.92 Z" fill="#2a2038"/>
<path d="M250.08,185.62 C241.49,182.81 238.96,171.58 244.52,161.75 C238.45,160.34 237.95,150.52 245.03,149.67 C249.07,150.52 251.09,150.52 255.13,149.67 C262.21,150.52 261.71,160.34 255.64,161.75 C261.20,171.58 258.67,182.81 250.08,185.62 Z" fill="#2a2038"/>
<path d="M234.38,190.08 C237.19,181.49 248.42,178.96 258.25,184.52 C259.66,178.45 269.48,177.95 270.33,185.03 C269.48,189.07 269.48,191.09 270.33,195.13 C269.48,202.21 259.66,201.71 258.25,195.64 C248.42,201.20 237.19,198.67 234.38,190.08 Z" fill="#2a2038"/>
<path d="M229.92,174.38 C238.51,177.19 241.04,188.42 235.48,198.25 C241.55,199.66 242.05,209.48 234.97,210.33 C230.93,209.48 228.91,209.48 224.87,210.33 C217.79,209.48 218.29,199.66 224.36,198.25 C218.80,188.42 221.33,177.19 229.92,174.38 Z" fill="#2a2038"/>
<rect x="9.0" y="9.0" width="462.0" height="342.0" rx="2" fill="none" stroke="#2a2038" stroke-width="1" opacity="0.5"/>
</g>
<rect x="484.0" y="4.0" width="472.0" height="352.0" rx="3" fill="#c8a8d8"/>
<clipPath id="cl1"><rect x="484.0" y="4.0" width="472.0" height="352.0" rx="3"/></clipPath>
<g clip-path="url(#cl1)">
<path d="M725.62,169.92 C722.81,178.51 711.58,181.04 701.75,175.48 C700.34,181.55 690.52,182.05 689.67,174.97 C690.52,170.93 690.52,168.91 689.67,164.87 C690.52,157.79 700.34,158.29 701.75,164.36 C711.58,158.80 722.81,161.33 725.62,169.92 Z" fill="#2a2038"/>
<path d="M730.08,185.62 C721.49,182.81 718.96,171.58 724.52,161.75 C718.45,160.34 717.95,150.52 725.03,149.67 C729.07,150.52 731.09,150.52 735.13,149.67 C742.21,150.52 741.71,160.34 735.64,161.75 C741.20,171.58 738.67,182.81 730.08,185.62 Z" fill="#2a2038"/>
<path d="M714.38,190.08 C717.19,181.49 728.42,178.96 738.25,184.52 C739.66,178.45 749.48,177.95 750.33,185.03 C749.48,189.07 749.48,191.09 750.33,195.13 C749.48,202.21 739.66,201.71 738.25,195.64 C728.42,201.20 717.19,198.67 714.38,190.08 Z" fill="#2a2038"/>
<path d="M709.92,174.38 C718.51,177.19 721.04,188.42 715.48,198.25 C721.55,199.66 722.05,209.48 714.97,210.33 C710.93,209.48 708.91,209.48 704.87,210.33 C697.79,209.48 698.29,199.66 704.36,198.25 C698.80,188.42 701.33,177.19 709.92,174.38 Z" fill="#2a2038"/>
<rect x="489.0" y="9.0" width="462.0" height="342.0" rx="2" fill="none" stroke="#2a2038" stroke-width="1" opacity="0.5"/>
</g>
<rect x="964.0" y="4.0" width="472.0" height="352.0" rx="3" fill="#c8a8d8"/>
<clipPath id="cl2"><rect x="964.0" y="4.0" width="472.0" height="352.0" rx="3"/></clipPath>
<g clip-path="url(#cl2)">
<path d="M1205.62,169.92 C1202.81,178.51 1191.58,181.04 1181.75,175.48 C1180.34,181.55 1170.52,182.05 1169.67,174.97 C1170.52,170.93 1170.52,168.91 1169.67,164.87 C1170.52,157.79 1180.34,158.29 1181.75,164.36 C1191.58,158.80 1202.81,161.33 1205.62,169.92 Z" fill="#2a2038"/>
<path d="M1210.08,185.62 C1201.49,182.81 1198.96,171.58 1204.52,161.75 C1198.45,160.34 1197.95,150.52 1205.03,149.67 C1209.07,150.52 1211.09,150.52 1215.13,149.67 C1222.21,150.52 1221.71,160.34 1215.64,161.75 C1221.20,171.58 1218.67,182.81 1210.08,185.62 Z" fill="#2a2038"/>
<path d="M1194.38,190.08 C1197.19,181.49 1208.42,178.96 1218.25,184.52 C1219.66,178.45 1229.48,177.95 1230.33,185.03 C1229.48,189.07 1229.48,191.09 1230.33,195.13 C1229.48,202.21 1219.66,201.71 1218.25,195.64 C1208.42,201.20 1197.19,198.67 1194.38,190.08 Z" fill="#2a2038"/>
<path d="M1189.92,174.38 C1198.51,177.19 1201.04,188.42 1195.48,198.25 C1201.55,199.66 1202.05,209.48 1194.97,210.33 C1190.93,209.48 1188.91,209.48 1184.87,210.33 C1177.79,209.48 1178.29,199.66 1184.36,198.25 C1178.80,188.42 1181.33,177.19 1189.92,174.38 Z" fill="#2a2038"/>
<rect x="969.0" y="9.0" width="462.0" height="342.0" rx="2" fill="none" stroke="#2a2038" stroke-width="1" opacity="0.5"/>
</g>
<rect x="1444.0" y="4.0" width="472.0" height="352.0" rx="3" fill="#c8a8d8"/>
<clipPath id="cl3"><rect x="1444.0" y="4.0" width="472.0" height="352.0" rx="3"/></clipPath>
<g clip-path="url(#cl3)">
<path d="M1685.62,169.92 C1682.81,178.51 1671.58,181.04 1661.75,175.48 C1660.34,181.55 1650.52,182.05 1649.67,174.97 C1650.52,170.93 1650.52,168.91 1649.67,164.87 C1650.52,157.79 1660.34,158.29 1661.75,164.36 C1671.58,158.80 1682.81,161.33 1685.62,169.92 Z" fill="#2a2038"/>
<path d="M1690.08,185.62 C1681.49,182.81 1678.96,171.58 1684.52,161.75 C1678.45,160.34 1677.95,150.52 1685.03,149.67 C1689.07,150.52 1691.09,150.52 1695.13,149.67 C1702.21,150.52 1701.71,160.34 1695.64,161.75 C1701.20,171.58 1698.67,182.81 1690.08,185.62 Z" fill="#2a2038"/>
<path d="M1674.38,190.08 C1677.19,181.49 1688.42,178.96 1698.25,184.52 C1699.66,178.45 1709.48,177.95 1710.33,185.03 C1709.48,189.07 1709.48,191.09 1710.33,195.13 C1709.48,202.21 1699.66,201.71 1698.25,195.64 C1688.42,201.20 1677.19,198.67 1674.38,190.08 Z" fill="#2a2038"/>
<path d="M1669.92,174.38 C1678.51,177.19 1681.04,188.42 1675.48,198.25 C1681.55,199.66 1682.05,209.48 1674.97,210.33 C1670.93,209.48 1668.91,209.48 1664.87,210.33 C1657.79,209.48 1658.29,199.66 1664.36,198.25 C1658.80,188.42 1661.33,177.19 1669.92,174.38 Z" fill="#2a2038"/>
<rect x="1449.0" y="9.0" width="462.0" height="342.0" rx="2" fill="none" stroke="#2a2038" stroke-width="1" opacity="0.5"/>
</g>
<rect x="244.0" y="364.0" width="472.0" height="352.0" rx="3" fill="#c8a8d8"/>
<clipPath id="cl4"><rect x="244.0" y="364.0" width="472.0" height="352.0" rx="3"/></clipPath>
<g clip-path="url(#cl4)">
<path d="M485.62,529.92 C482.81,538.51 471.58,541.04 461.75,535.48 C460.34,541.55 450.52,542.05 449.67,534.97 C450.52,530.93 450.52,528.91 449.67,524.87 C450.52,517.79 460.34,518.29 461.75,524.36 C471.58,518.80 482.81,521.33 485.62,529.92 Z" fill="#2a2038"/>
<path d="M490.08,545.62 C481.49,542.81 478.96,531.58 484.52,521.75 C478.45,520.34 477.95,510.52 485.03,509.67 C489.07,510.52 491.09,510.52 495.13,509.67 C502.21,510.52 501.71,520.34 495.64,521.75 C501.20,531.58 498.67,542.81 490.08,545.62 Z" fill="#2a2038"/>
<path d="M474.38,550.08 C477.19,541.49 488.42,538.96 498.25,544.52 C499.66,538.45 509.48,537.95 510.33,545.03 C509.48,549.07 509.48,551.09 510.33,555.13 C509.48,562.21 499.66,561.71 498.25,555.64 C488.42,561.20 477.19,558.67 474.38,550.08 Z" fill="#2a2038"/>
<path d="M469.92,534.38 C478.51,537.19 481.04,548.42 475.48,558.25 C481.55,559.66 482.05,569.48 474.97,570.33 C470.93,569.48 468.91,569.48 464.87,570.33 C457.79,569.48 458.29,559.66 464.36,558.25 C458.80,548.42 461.33,537.19 469.92,534.38 Z" fill="#2a2038"/>
<rect x="249.0" y="369.0" width="462.0" height="342.0" rx="2" fill="none" stroke="#2a2038" stroke-width="1" opacity="0.5"/>
</g>
<rect x="724.0" y="364.0" width="472.0" height="352.0" rx="3" fill="#c8a8d8"/>
<clipPath id="cl5"><rect x="724.0" y="364.0" width="472.0" height="352.0" rx="3"/></clipPath>
<g clip-path="url(#cl5)">
<path d="M965.62,529.92 C962.81,538.51 951.58,541.04 941.75,535.48 C940.34,541.55 930.52,542.05 929.67,534.97 C930.52,530.93 930.52,528.91 929.67,524.87 C930.52,517.79 940.34,518.29 941.75,524.36 C951.58,518.80 962.81,521.33 965.62,529.92 Z" fill="#2a2038"/>
<path d="M970.08,545.62 C961.49,542.81 958.96,531.58 964.52,521.75 C958.45,520.34 957.95,510.52 965.03,509.67 C969.07,510.52 971.09,510.52 975.13,509.67 C982.21,510.52 981.71,520.34 975.64,521.75 C981.20,531.58 978.67,542.81 970.08,545.62 Z" fill="#2a2038"/>
<path d="M954.38,550.08 C957.19,541.49 968.42,538.96 978.25,544.52 C979.66,538.45 989.48,537.95 990.33,545.03 C989.48,549.07 989.48,551.09 990.33,555.13 C989.48,562.21 979.66,561.71 978.25,555.64 C968.42,561.20 957.19,558.67 954.38,550.08 Z" fill="#2a2038"/>
<path d="M949.92,534.38 C958.51,537.19 961.04,548.42 955.48,558.25 C961.55,559.66 962.05,569.48 954.97,570.33 C950.93,569.48 948.91,569.48 944.87,570.33 C937.79,569.48 938.29,559.66 944.36,558.25 C938.80,548.42 941.33,537.19 949.92,534.38 Z" fill="#2a2038"/>
<rect x="729.0" y="369.0" width="462.0" height="342.0" rx="2" fill="none" stroke="#2a2038" stroke-width="1" opacity="0.5"/>
</g>
<rect x="1204.0" y="364.0" width="472.0" height="352.0" rx="3" fill="#c8a8d8"/>
<clipPath id="cl6"><rect x="1204.0" y="364.0" width="472.0" height="352.0" rx="3"/></clipPath>
<g clip-path="url(#cl6)">
<path d="M1445.62,529.92 C1442.81,538.51 1431.58,541.04 1421.75,535.48 C1420.34,541.55 1410.52,542.05 1409.67,534.97 C1410.52,530.93 1410.52,528.91 1409.67,524.87 C1410.52,517.79 1420.34,518.29 1421.75,524.36 C1431.58,518.80 1442.81,521.33 1445.62,529.92 Z" fill="#2a2038"/>
<path d="M1450.08,545.62 C1441.49,542.81 1438.96,531.58 1444.52,521.75 C1438.45,520.34 1437.95,510.52 1445.03,509.67 C1449.07,510.52 1451.09,510.52 1455.13,509.67 C1462.21,510.52 1461.71,520.34 1455.64,521.75 C1461.20,531.58 1458.67,542.81 1450.08,545.62 Z" fill="#2a2038"/>
<path d="M1434.38,550.08 C1437.19,541.49 1448.42,538.96 1458.25,544.52 C1459.66,538.45 1469.48,537.95 1470.33,545.03 C1469.48,549.07 1469.48,551.09 1470.33,555.13 C1469.48,562.21 1459.66,561.71 1458.25,555.64 C1448.42,561.20 1437.19,558.67 1434.38,550.08 Z" fill="#2a2038"/>
<path d="M1429.92,534.38 C1438.51,537.19 1441.04,548.42 1435.48,558.25 C1441.55,559.66 1442.05,569.48 1434.97,570.33 C1430.93,569.48 1428.91,569.48 1424.87,570.33 C1417.79,569.48 1418.29,559.66 1424.36,558.25 C1418.80,548.42 1421.33,537.19 1429.92,534.38 Z" fill="#2a2038"/>
<rect x="1209.0" y="369.0" width="462.0" height="342.0" rx="2" fill="none" stroke="#2a2038" stroke-width="1" opacity="0.5"/>
</g>
<rect x="1684.0" y="364.0" width="472.0" height="352.0" rx="3" fill="#c8a8d8"/>
<clipPath id="cl7"><rect x="1684.0" y="364.0" width="472.0" height="352.0" rx="3"/></clipPath>
<g clip-path="url(#cl7)">
<path d="M1925.62,529.92 C1922.81,538.51 1911.58,541.04 1901.75,535.48 C1900.34,541.55 1890.52,542.05 1889.67,534.97 C1890.52,530.93 1890.52,528.91 1889.67,524.87 C1890.52,517.79 1900.34,518.29 1901.75,524.36 C1911.58,518.80 1922.81,521.33 1925.62,529.92 Z" fill="#2a2038"/>
<path d="M1930.08,545.62 C1921.49,542.81 1918.96,531.58 1924.52,521.75 C1918.45,520.34 1917.95,510.52 1925.03,509.67 C1929.07,510.52 1931.09,510.52 1935.13,509.67 C1942.21,510.52 1941.71,520.34 1935.64,521.75 C1941.20,531.58 1938.67,542.81 1930.08,545.62 Z" fill="#2a2038"/>
<path d="M1914.38,550.08 C1917.19,541.49 1928.42,538.96 1938.25,544.52 C1939.66,538.45 1949.48,537.95 1950.33,545.03 C1949.48,549.07 1949.48,551.09 1950.33,555.13 C1949.48,562.21 1939.66,561.71 1938.25,555.64 C1928.42,561.20 1917.19,558.67 1914.38,550.08 Z" fill="#2a2038"/>
<path d="M1909.92,534.38 C1918.51,537.19 1921.04,548.42 1915.48,558.25 C1921.55,559.66 1922.05,569.48 1914.97,570.33 C1910.93,569.48 1908.91,569.48 1904.87,570.33 C1897.79,569.48 1898.29,559.66 1904.36,558.25 C1898.80,548.42 1901.33,537.19 1909.92,534.38 Z" fill="#2a2038"/>
<rect x="1689.0" y="369.0" width="462.0" height="342.0" rx="2" fill="none" stroke="#2a2038" stroke-width="1" opacity="0.5"/>
</g>
<rect x="4.0" y="724.0" width="472.0" height="352.0" rx="3" fill="#c8a8d8"/>
<clipPath id="cl8"><rect x="4.0" y="724.0" width="472.0" height="352.0" rx="3"/></clipPath>
<g clip-path="url(#cl8)">
<path d="M245.62,889.92 C242.81,898.51 231.58,901.04 221.75,895.48 C220.34,901.55 210.52,902.05 209.67,894.97 C210.52,890.93 210.52,888.91 209.67,884.87 C210.52,877.79 220.34,878.29 221.75,884.36 C231.58,878.80 242.81,881.33 245.62,889.92 Z" fill="#2a2038"/>
<path d="M250.08,905.62 C241.49,902.81 238.96,891.58 244.52,881.75 C238.45,880.34 237.95,870.52 245.03,869.67 C249.07,870.52 251.09,870.52 255.13,869.67 C262.21,870.52 261.71,880.34 255.64,881.75 C261.20,891.58 258.67,902.81 250.08,905.62 Z" fill="#2a2038"/>
<path d="M234.38,910.08 C237.19,901.49 248.42,898.96 258.25,904.52 C259.66,898.45 269.48,897.95 270.33,905.03 C269.48,909.07 269.48,911.09 270.33,915.13 C269.48,922.21 259.66,921.71 258.25,915.64 C248.42,921.20 237.19,918.67 234.38,910.08 Z" fill="#2a2038"/>
<path d="M229.92,894.38 C238.51,897.19 241.04,908.42 235.48,918.25 C241.55,919.66 242.05,929.48 234.97,930.33 C230.93,929.48 228.91,929.48 224.87,930.33 C217.79,929.48 218.29,919.66 224.36,918.25 C218.80,908.42 221.33,897.19 229.92,894.38 Z" fill="#2a2038"/>
<rect x="9.0" y="729.0" width="462.0" height="342.0" rx="2" fill="none" stroke="#2a2038" stroke-width="1" opacity="0.5"/>
</g>
<rect x="484.0" y="724.0" width="472.0" height="352.0" rx="3" fill="#c8a8d8"/>
<clipPath id="cl9"><rect x="484.0" y="724.0" width="472.0" height="352.0" rx="3"/></clipPath>
<g clip-path="url(#cl9)">
<path d="M725.62,889.92 C722.81,898.51 711.58,901.04 701.75,895.48 C700.34,901.55 690.52,902.05 689.67,894.97 C690.52,890.93 690.52,888.91 689.67,884.87 C690.52,877.79 700.34,878.29 701.75,884.36 C711.58,878.80 722.81,881.33 725.62,889.92 Z" fill="#2a2038"/>
<path d="M730.08,905.62 C721.49,902.81 718.96,891.58 724.52,881.75 C718.45,880.34 717.95,870.52 725.03,869.67 C729.07,870.52 731.09,870.52 735.13,869.67 C742.21,870.52 741.71,880.34 735.64,881.75 C741.20,891.58 738.67,902.81 730.08,905.62 Z" fill="#2a2038"/>
<path d="M714.38,910.08 C717.19,901.49 728.42,898.96 738.25,904.52 C739.66,898.45 749.48,897.95 750.33,905.03 C749.48,909.07 749.48,911.09 750.33,915.13 C749.48,922.21 739.66,921.71 738.25,915.64 C728.42,921.20 717.19,918.67 714.38,910.08 Z" fill="#2a2038"/>
<path d="M709.92,894.38 C718.51,897.19 721.04,908.42 715.48,918.25 C721.55,919.66 722.05,929.48 714.97,930.33 C710.93,929.48 708.91,929.48 704.87,930.33 C697.79,929.48 698.29,919.66 704.36,918.25 C698.80,908.42 701.33,897.19 709.92,894.38 Z" fill="#2a2038"/>
<rect x="489.0" y="729.0" width="462.0" height="342.0" rx="2" fill="none" stroke="#2a2038" stroke-width="1" opacity="0.5"/>
</g>
<rect x="964.0" y="724.0" width="472.0" height="352.0" rx="3" fill="#c8a8d8"/>
<clipPath id="cl10"><rect x="964.0" y="724.0" width="472.0" height="352.0" rx="3"/></clipPath>
<g clip-path="url(#cl10)">
<path d="M1205.62,889.92 C1202.81,898.51 1191.58,901.04 1181.75,895.48 C1180.34,901.55 1170.52,902.05 1169.67,894.97 C1170.52,890.93 1170.52,888.91 1169.67,884.87 C1170.52,877.79 1180.34,878.29 1181.75,884.36 C1191.58,878.80 1202.81,881.33 1205.62,889.92 Z" fill="#2a2038"/>
<path d="M1210.08,905.62 C1201.49,902.81 1198.96,891.58 1204.52,881.75 C1198.45,880.34 1197.95,870.52 1205.03,869.67 C1209.07,870.52 1211.09,870.52 1215.13,869.67 C1222.21,870.52 1221.71,880.34 1215.64,881.75 C1221.20,891.58 1218.67,902.81 1210.08,905.62 Z" fill="#2a2038"/>
<path d="M1194.38,910.08 C1197.19,901.49 1208.42,898.96 1218.25,904.52 C1219.66,898.45 1229.48,897.95 1230.33,905.03 C1229.48,909.07 1229.48,911.09 1230.33,915.13 C1229.48,922.21 1219.66,921.71 1218.25,915.64 C1208.42,921.20 1197.19,918.67 1194.38,910.08 Z" fill="#2a2038"/>
<path d="M1189.92,894.38 C1198.51,897.19 1201.04,908.42 1195.48,918.25 C1201.55,919.66 1202.05,929.48 1194.97,930.33 C1190.93,929.48 1188.91,929.48 1184.87,930.33 C1177.79,929.48 1178.29,919.66 1184.36,918.25 C1178.80,908.42 1181.33,897.19 1189.92,894.38 Z" fill="#2a2038"/>
<rect x="969.0" y="729.0" width="462.0" height="342.0" rx="2" fill="none" stroke="#2a2038" stroke-width="1" opacity="0.5"/>
</g>
<rect x="1444.0" y="724.0" width="472.0" height="352.0" rx="3" fill="#c8a8d8"/>
<clipPath id="cl11"><rect x="1444.0" y="724.0" width="472.0" height="352.0" rx="3"/></clipPath>
<g clip-path="url(#cl11)">
<path d="M1685.62,889.92 C1682.81,898.51 1671.58,901.04 1661.75,895.48 C1660.34,901.55 1650.52,902.05 1649.67,894.97 C1650.52,890.93 1650.52,888.91 1649.67,884.87 C1650.52,877.79 1660.34,878.29 1661.75,884.36 C1671.58,878.80 1682.81,881.33 1685.62,889.92 Z" fill="#2a2038"/>
<path d="M1690.08,905.62 C1681.49,902.81 1678.96,891.58 1684.52,881.75 C1678.45,880.34 1677.95,870.52 1685.03,869.67 C1689.07,870.52 1691.09,870.52 1695.13,869.67 C1702.21,870.52 1701.71,880.34 1695.64,881.75 C1701.20,891.58 1698.67,902.81 1690.08,905.62 Z" fill="#2a2038"/>
<path d="M1674.38,910.08 C1677.19,901.49 1688.42,898.96 1698.25,904.52 C1699.66,898.45 1709.48,897.95 1710.33,905.03 C1709.48,909.07 1709.48,911.09 1710.33,915.13 C1709.48,922.21 1699.66,921.71 1698.25,915.64 C1688.42,921.20 1677.19,918.67 1674.38,910.08 Z" fill="#2a2038"/>
<path d="M1669.92,894.38 C1678.51,897.19 1681.04,908.42 1675.48,918.25 C1681.55,919.66 1682.05,929.48 1674.97,930.33 C1670.93,929.48 1668.91,929.48 1664.87,930.33 C1657.79,929.48 1658.29,919.66 1664.36,918.25 C1658.80,908.42 1661.33,897.19 1669.92,894.38 Z" fill="#2a2038"/>
<rect x="1449.0" y="729.0" width="462.0" height="342.0" rx="2" fill="none" stroke="#2a2038" stroke-width="1" opacity="0.5"/>
</g>
</svg>