<svg xmlns="http://www.w3.org/2000/svg" width="1920" height="1080" viewBox="0 0 1920 1080">
<rect width="1920" height="1080" fill="#e4d4c0"/>
<rect x="3.5" y="3.5" width="473.0" height="263.0" rx="3" fill="#5a3420"/>
<clipPath id="cl0"><rect x="3.5" y="3.5" width="473.0" height="263.0" rx="3"/></clipPath>
<g clip-path="url(#cl0)">
<path d="M237.28,135.00 C252.24,123.03 257.68,128.47 248.16,135.00 C257.68,141.53 252.24,146.97 237.28,135.00 L226.40,135.00 Z" fill="#e4d4c0"/>
<path d="M223.83,163.01 C226.71,181.95 219.28,183.94 218.39,172.44 C207.97,177.42 205.98,169.98 223.83,163.01 L229.27,153.59 Z" fill="#e4d4c0"/>
<path d="M206.29,76.62 C188.45,69.65 190.44,62.22 200.85,67.20 C201.75,55.69 209.18,57.68 206.29,76.62 L211.73,86.04 Z" fill="#e4d4c0"/>
<rect x="6.5" y="6.5" width="467.0" height="257.0" rx="2" fill="none" stroke="#e4d4c0" stroke-width="1" opacity="0.4"/>
<rect x="10.5" y="10.5" width="459.0" height="249.0" rx="1" fill="none" stroke="#e4d4c0" stroke-width="0.5" opacity="0.25"/>
</g>
<rect x="483.5" y="3.5" width="473.0" height="263.0" rx="3" fill="#5a3420"/>
<clipPath id="cl1"><rect x="483.5" y="3.5" width="473.0" height="263.0" rx="3"/></clipPath>
<g clip-path="url(#cl1)">
<path d="M717.61,133.70 C736.48,130.37 738.65,137.75 727.16,138.91 C732.39,149.21 725.00,151.37 717.61,133.70 L708.06,128.48 Z" fill="#e4d4c0"/>
<path d="M692.38,151.83 C685.83,169.83 678.35,168.02 683.09,157.49 C671.56,156.87 673.37,149.39 692.38,151.83 L701.67,146.17 Z" fill="#e4d4c0"/>
<path d="M718.41,67.61 C706.09,52.93 711.40,47.37 718.15,56.73 C724.45,47.06 730.02,52.37 718.41,67.61 L718.67,78.48 Z" fill="#e4d4c0"/>
<rect x="486.5" y="6.5" width="467.0" height="257.0" rx="2" fill="none" stroke="#e4d4c0" stroke-width="1" opacity="0.4"/>
<rect x="490.5" y="10.5" width="459.0" height="249.0" rx="1" fill="none" stroke="#e4d4c0" stroke-width="0.5" opacity="0.25"/>
</g>
<rect x="963.5" y="3.5" width="473.0" height="263.0" rx="3" fill="#5a3420"/>
<clipPath id="cl2"><rect x="963.5" y="3.5" width="473.0" height="263.0" rx="3"/></clipPath>
<g clip-path="url(#cl2)">
<path d="M1198.53,132.71 C1216.68,138.83 1215.05,146.35 1204.41,141.87 C1204.06,153.40 1196.54,151.77 1198.53,132.71 L1192.65,123.56 Z" fill="#e4d4c0"/>
<path d="M1167.69,136.53 C1153.31,149.19 1147.62,144.01 1156.82,137.04 C1147.00,130.97 1152.18,125.28 1167.69,136.53 L1178.56,136.01 Z" fill="#e4d4c0"/>
<path d="M1230.91,75.09 C1227.14,56.31 1234.47,53.97 1235.90,65.42 C1246.07,59.96 1248.41,67.29 1230.91,75.09 L1225.93,84.76 Z" fill="#e4d4c0"/>
<rect x="966.5" y="6.5" width="467.0" height="257.0" rx="2" fill="none" stroke="#e4d4c0" stroke-width="1" opacity="0.4"/>
<rect x="970.5" y="10.5" width="459.0" height="249.0" rx="1" fill="none" stroke="#e4d4c0" stroke-width="0.5" opacity="0.25"/>
</g>
<rect x="1443.5" y="3.5" width="473.0" height="263.0" rx="3" fill="#5a3420"/>
<clipPath id="cl3"><rect x="1443.5" y="3.5" width="473.0" height="263.0" rx="3"/></clipPath>
<g clip-path="url(#cl3)">
<path d="M1679.81,132.29 C1692.80,146.36 1687.76,152.17 1680.58,143.14 C1674.74,153.10 1668.93,148.06 1679.81,132.29 L1679.04,121.43 Z" fill="#e4d4c0"/>
<path d="M1650.91,120.85 C1632.22,125.07 1629.71,117.79 1641.13,116.09 C1635.42,106.05 1642.70,103.54 1650.91,120.85 L1660.70,125.61 Z" fill="#e4d4c0"/>
<path d="M1735.85,97.25 C1741.54,78.95 1749.10,80.42 1744.87,91.16 C1756.41,91.23 1754.95,98.79 1735.85,97.25 L1726.84,103.34 Z" fill="#e4d4c0"/>
<rect x="1446.5" y="6.5" width="467.0" height="257.0" rx="2" fill="none" stroke="#e4d4c0" stroke-width="1" opacity="0.4"/>
<rect x="1450.5" y="10.5" width="459.0" height="249.0" rx="1" fill="none" stroke="#e4d4c0" stroke-width="0.5" opacity="0.25"/>
</g>
<rect x="243.5" y="273.5" width="473.0" height="263.0" rx="3" fill="#5a3420"/>
<clipPath id="cl4"><rect x="243.5" y="273.5" width="473.0" height="263.0" rx="3"/></clipPath>
<g clip-path="url(#cl4)">
<path d="M481.13,402.53 C485.79,421.11 478.58,423.79 476.60,412.42 C466.71,418.36 464.02,411.15 481.13,402.53 L485.66,392.63 Z" fill="#e4d4c0"/>
<path d="M461.26,378.64 C442.84,373.38 444.12,365.79 454.95,369.77 C454.76,358.23 462.34,359.51 461.26,378.64 L467.56,387.50 Z" fill="#e4d4c0"/>
<path d="M547.11,398.65 C560.88,385.32 566.81,390.22 557.94,397.62 C568.04,403.22 563.13,409.15 547.11,398.65 L536.28,399.67 Z" fill="#e4d4c0"/>
<rect x="246.5" y="276.5" width="467.0" height="257.0" rx="2" fill="none" stroke="#e4d4c0" stroke-width="1" opacity="0.4"/>
<rect x="250.5" y="280.5" width="459.0" height="249.0" rx="1" fill="none" stroke="#e4d4c0" stroke-width="0.5" opacity="0.25"/>
</g>
<rect x="723.5" y="273.5" width="473.0" height="263.0" rx="3" fill="#5a3420"/>
<clipPath id="cl5"><rect x="723.5" y="273.5" width="473.0" height="263.0" rx="3"/></clipPath>
<g clip-path="url(#cl5)">
<path d="M962.18,403.37 C957.36,421.91 949.74,420.81 953.46,409.88 C941.93,410.35 943.03,402.74 962.18,403.37 L970.90,396.86 Z" fill="#e4d4c0"/>
<path d="M956.19,372.88 C942.55,359.43 947.31,353.39 954.91,362.07 C960.27,351.85 966.32,356.61 956.19,372.88 L957.47,383.68 Z" fill="#e4d4c0"/>
<path d="M1021.94,431.60 C1040.41,426.51 1043.26,433.65 1031.94,435.89 C1038.11,445.65 1030.97,448.50 1021.94,431.60 L1011.95,427.31 Z" fill="#e4d4c0"/>
<rect x="726.5" y="276.5" width="467.0" height="257.0" rx="2" fill="none" stroke="#e4d4c0" stroke-width="1" opacity="0.4"/>
<rect x="730.5" y="280.5" width="459.0" height="249.0" rx="1" fill="none" stroke="#e4d4c0" stroke-width="0.5" opacity="0.25"/>
</g>
<rect x="1203.5" y="273.5" width="473.0" height="263.0" rx="3" fill="#5a3420"/>
<clipPath id="cl6"><rect x="1203.5" y="273.5" width="473.0" height="263.0" rx="3"/></clipPath>
<g clip-path="url(#cl6)">
<path d="M1442.69,404.62 C1429.57,418.58 1423.42,413.96 1431.92,406.15 C1421.58,401.03 1426.19,394.88 1442.69,404.62 L1453.46,403.08 Z" fill="#e4d4c0"/>
<path d="M1452.06,374.98 C1446.53,356.64 1453.61,353.62 1456.11,364.89 C1465.72,358.49 1468.74,365.56 1452.06,374.98 L1448.00,385.08 Z" fill="#e4d4c0"/>
<path d="M1481.61,458.04 C1500.26,462.42 1499.34,470.06 1488.32,466.60 C1489.06,478.12 1481.43,477.20 1481.61,458.04 L1474.89,449.48 Z" fill="#e4d4c0"/>
<rect x="1206.5" y="276.5" width="467.0" height="257.0" rx="2" fill="none" stroke="#e4d4c0" stroke-width="1" opacity="0.4"/>
<rect x="1210.5" y="280.5" width="459.0" height="249.0" rx="1" fill="none" stroke="#e4d4c0" stroke-width="0.5" opacity="0.25"/>
</g>
<rect x="1683.5" y="273.5" width="473.0" height="263.0" rx="3" fill="#5a3420"/>
<clipPath id="cl7"><rect x="1683.5" y="273.5" width="473.0" height="263.0" rx="3"/></clipPath>
<g clip-path="url(#cl7)">
<path d="M1922.55,405.95 C1904.34,411.91 1901.15,404.91 1912.36,402.14 C1905.73,392.68 1912.74,389.50 1922.55,405.95 L1932.74,409.77 Z" fill="#e4d4c0"/>
<path d="M1944.97,384.44 C1948.91,365.69 1956.57,366.43 1953.37,377.52 C1964.87,376.51 1964.13,384.17 1944.97,384.44 L1936.57,391.36 Z" fill="#e4d4c0"/>
<path d="M1931.09,471.50 C1945.35,484.28 1940.88,490.54 1932.87,482.23 C1928.00,492.69 1921.74,488.22 1931.09,471.50 L1929.30,460.76 Z" fill="#e4d4c0"/>
<rect x="1686.5" y="276.5" width="467.0" height="257.0" rx="2" fill="none" stroke="#e4d4c0" stroke-width="1" opacity="0.4"/>
<rect x="1690.5" y="280.5" width="459.0" height="249.0" rx="1" fill="none" stroke="#e4d4c0" stroke-width="0.5" opacity="0.25"/>
</g>
<rect x="3.5" y="543.5" width="473.0" height="263.0" rx="3" fill="#5a3420"/>
<clipPath id="cl8"><rect x="3.5" y="543.5" width="473.0" height="263.0" rx="3"/></clipPath>
<g clip-path="url(#cl8)">
<path d="M241.78,677.06 C222.94,673.56 223.50,665.89 234.67,668.82 C233.38,657.35 241.06,657.91 241.78,677.06 L248.89,685.29 Z" fill="#e4d4c0"/>
<path d="M271.77,668.93 C284.22,654.37 290.58,658.69 282.46,666.89 C293.03,671.51 288.71,677.88 271.77,668.93 L261.09,670.97 Z" fill="#e4d4c0"/>
<path d="M217.85,738.67 C224.24,756.73 217.31,760.08 214.27,748.95 C204.98,755.79 201.63,748.87 217.85,738.67 L221.42,728.39 Z" fill="#e4d4c0"/>
<rect x="6.5" y="546.5" width="467.0" height="257.0" rx="2" fill="none" stroke="#e4d4c0" stroke-width="1" opacity="0.4"/>
<rect x="10.5" y="550.5" width="459.0" height="249.0" rx="1" fill="none" stroke="#e4d4c0" stroke-width="0.5" opacity="0.25"/>
</g>
<rect x="483.5" y="543.5" width="473.0" height="263.0" rx="3" fill="#5a3420"/>
<clipPath id="cl9"><rect x="483.5" y="543.5" width="473.0" height="263.0" rx="3"/></clipPath>
<g clip-path="url(#cl9)">
<path d="M720.57,677.66 C705.72,665.56 709.89,659.09 718.28,667.02 C722.65,656.34 729.12,660.51 720.57,677.66 L722.87,688.29 Z" fill="#e4d4c0"/>
<path d="M750.79,684.90 C768.70,678.09 772.21,684.94 761.15,688.24 C768.21,697.37 761.37,700.88 750.79,684.90 L740.44,681.57 Z" fill="#e4d4c0"/>
<path d="M670.04,720.26 C666.98,739.17 659.30,738.79 661.97,727.56 C650.53,729.11 650.91,721.43 670.04,720.26 L678.10,712.95 Z" fill="#e4d4c0"/>
<rect x="486.5" y="546.5" width="467.0" height="257.0" rx="2" fill="none" stroke="#e4d4c0" stroke-width="1" opacity="0.4"/>
<rect x="490.5" y="550.5" width="459.0" height="249.0" rx="1" fill="none" stroke="#e4d4c0" stroke-width="0.5" opacity="0.25"/>
</g>
<rect x="963.5" y="543.5" width="473.0" height="263.0" rx="3" fill="#5a3420"/>
<clipPath id="cl10"><rect x="963.5" y="543.5" width="473.0" height="263.0" rx="3"/></clipPath>
<g clip-path="url(#cl10)">
<path d="M1199.23,677.61 C1192.00,659.87 1198.76,656.19 1202.31,667.18 C1211.28,659.90 1214.95,666.66 1199.23,677.61 L1196.14,688.04 Z" fill="#e4d4c0"/>
<path d="M1222.27,698.46 C1241.25,701.06 1241.06,708.75 1229.77,706.34 C1231.59,717.74 1223.90,717.54 1222.27,698.46 L1214.78,690.57 Z" fill="#e4d4c0"/>
<path d="M1134.46,690.76 C1122.71,705.90 1116.15,701.88 1123.88,693.31 C1113.09,689.18 1117.11,682.62 1134.46,690.76 L1145.03,688.22 Z" fill="#e4d4c0"/>
<rect x="966.5" y="546.5" width="467.0" height="257.0" rx="2" fill="none" stroke="#e4d4c0" stroke-width="1" opacity="0.4"/>
<rect x="970.5" y="550.5" width="459.0" height="249.0" rx="1" fill="none" stroke="#e4d4c0" stroke-width="0.5" opacity="0.25"/>
</g>
<rect x="1443.5" y="543.5" width="473.0" height="263.0" rx="3" fill="#5a3420"/>
<clipPath id="cl11"><rect x="1443.5" y="543.5" width="473.0" height="263.0" rx="3"/></clipPath>
<g clip-path="url(#cl11)">
<path d="M1678.07,676.92 C1680.23,657.88 1687.92,657.90 1685.78,669.24 C1697.14,667.15 1697.12,674.85 1678.07,676.92 L1670.36,684.60 Z" fill="#e4d4c0"/>
<path d="M1688.30,706.26 C1703.71,717.65 1699.85,724.30 1691.10,716.78 C1687.23,727.66 1680.58,723.79 1688.30,706.26 L1685.51,695.75 Z" fill="#e4d4c0"/>
<path d="M1614.92,657.41 C1597.36,665.06 1593.53,658.39 1604.42,654.57 C1596.93,645.78 1603.60,641.95 1614.92,657.41 L1625.43,660.25 Z" fill="#e4d4c0"/>
<rect x="1446.5" y="546.5" width="467.0" height="257.0" rx="2" fill="none" stroke="#e4d4c0" stroke-width="1" opacity="0.4"/>
<rect x="1450.5" y="550.5" width="459.0" height="249.0" rx="1" fill="none" stroke="#e4d4c0" stroke-width="0.5" opacity="0.25"/>
</g>
<rect x="243.5" y="813.5" width="473.0" height="263.0" rx="3" fill="#5a3420"/>
<clipPath id="cl12"><rect x="243.5" y="813.5" width="473.0" height="263.0" rx="3"/></clipPath>
<g clip-path="url(#cl12)">
<path d="M477.39,945.76 C488.41,930.09 495.15,933.79 487.83,942.72 C498.80,946.33 495.10,953.07 477.39,945.76 L466.94,948.80 Z" fill="#e4d4c0"/>
<path d="M472.30,976.42 C480.36,993.80 473.78,997.78 469.71,986.98 C461.10,994.68 457.11,988.10 472.30,976.42 L474.89,965.85 Z" fill="#e4d4c0"/>
<path d="M431.32,898.36 C412.24,896.65 412.08,888.96 423.47,890.83 C421.11,879.53 428.80,879.37 431.32,898.36 L439.18,905.89 Z" fill="#e4d4c0"/>
<rect x="246.5" y="816.5" width="467.0" height="257.0" rx="2" fill="none" stroke="#e4d4c0" stroke-width="1" opacity="0.4"/>
<rect x="250.5" y="820.5" width="459.0" height="249.0" rx="1" fill="none" stroke="#e4d4c0" stroke-width="0.5" opacity="0.25"/>
</g>
<rect x="723.5" y="813.5" width="473.0" height="263.0" rx="3" fill="#5a3420"/>
<clipPath id="cl13"><rect x="723.5" y="813.5" width="473.0" height="263.0" rx="3"/></clipPath>
<g clip-path="url(#cl13)">
<path d="M957.34,944.41 C974.53,935.95 978.67,942.43 967.97,946.76 C975.86,955.18 969.38,959.32 957.34,944.41 L946.72,942.07 Z" fill="#e4d4c0"/>
<path d="M938.18,968.88 C936.92,987.99 929.24,988.34 930.84,976.91 C919.60,979.53 919.25,971.85 938.18,968.88 L945.52,960.85 Z" fill="#e4d4c0"/>
<path d="M939.64,880.73 C923.71,870.09 927.26,863.26 936.36,870.36 C939.70,859.32 946.53,862.86 939.64,880.73 L942.93,891.11 Z" fill="#e4d4c0"/>
<rect x="726.5" y="816.5" width="467.0" height="257.0" rx="2" fill="none" stroke="#e4d4c0" stroke-width="1" opacity="0.4"/>
<rect x="730.5" y="820.5" width="459.0" height="249.0" rx="1" fill="none" stroke="#e4d4c0" stroke-width="0.5" opacity="0.25"/>
</g>
<rect x="1203.5" y="813.5" width="473.0" height="263.0" rx="3" fill="#5a3420"/>
<clipPath id="cl14"><rect x="1203.5" y="813.5" width="473.0" height="263.0" rx="3"/></clipPath>
<g clip-path="url(#cl14)">
<path d="M1437.95,943.21 C1457.09,944.02 1457.62,951.69 1446.15,950.36 C1449.04,961.54 1441.36,962.06 1437.95,943.21 L1429.75,936.06 Z" fill="#e4d4c0"/>
<path d="M1409.40,955.49 C1399.13,971.67 1392.22,968.29 1399.11,959.02 C1387.99,955.94 1391.37,949.03 1409.40,955.49 L1419.69,951.96 Z" fill="#e4d4c0"/>
<path d="M1452.94,878.84 C1444.07,861.86 1450.46,857.57 1455.03,868.16 C1463.27,860.07 1467.56,866.46 1452.94,878.84 L1450.86,889.52 Z" fill="#e4d4c0"/>
<rect x="1206.5" y="816.5" width="467.0" height="257.0" rx="2" fill="none" stroke="#e4d4c0" stroke-width="1" opacity="0.4"/>
<rect x="1210.5" y="820.5" width="459.0" height="249.0" rx="1" fill="none" stroke="#e4d4c0" stroke-width="0.5" opacity="0.25"/>
</g>
<rect x="1683.5" y="813.5" width="473.0" height="263.0" rx="3" fill="#5a3420"/>
<clipPath id="cl15"><rect x="1683.5" y="813.5" width="473.0" height="263.0" rx="3"/></clipPath>
<g clip-path="url(#cl15)">
<path d="M1919.06,942.45 C1935.47,952.33 1932.25,959.32 1922.83,952.65 C1920.01,963.85 1913.02,960.63 1919.06,942.45 L1915.29,932.24 Z" fill="#e4d4c0"/>
<path d="M1888.12,939.54 C1871.35,948.81 1866.91,942.53 1877.39,937.70 C1869.11,929.66 1875.39,925.22 1888.12,939.54 L1898.84,941.38 Z" fill="#e4d4c0"/>
<path d="M1963.08,893.15 C1963.43,873.99 1971.09,873.28 1970.03,884.78 C1981.14,881.63 1981.84,889.29 1963.08,893.15 L1956.13,901.51 Z" fill="#e4d4c0"/>
<rect x="1686.5" y="816.5" width="467.0" height="257.0" rx="2" fill="none" stroke="#e4d4c0" stroke-width="1" opacity="0.4"/>
<rect x="1690.5" y="820.5" width="459.0" height="249.0" rx="1" fill="none" stroke="#e4d4c0" stroke-width="0.5" opacity="0.25"/>
</g>
</svg>