<svg xmlns="http://www.w3.org/2000/svg" width="1920" height="1080" viewBox="0 0 1920 1080">
<rect width="1920" height="1080" fill="#d8d4ce"/>
<rect x="6.0" y="6.0" width="308.0" height="348.0" rx="3" fill="#282420"/>
<clipPath id="cl0"><rect x="6.0" y="6.0" width="308.0" height="348.0" rx="3"/></clipPath>
<g clip-path="url(#cl0)">
<path d="M44.28,180.00 C40.88,194.21 33.40,196.15 24.90,190.98 C19.80,194.21 8.92,186.46 8.92,181.94 C1.10,185.17 4.50,180.00 1.10,174.83 C8.92,178.06 8.92,173.54 19.80,165.79 C24.90,169.02 33.40,163.85 40.88,165.79 44.28,180.00 Z" fill="#d8d4ce"/>
<path d="M290.68,180.00 C287.28,194.21 279.80,196.15 271.30,190.98 C266.20,194.21 255.32,186.46 255.32,181.94 C247.50,185.17 250.90,180.00 247.50,174.83 C255.32,178.06 255.32,173.54 266.20,165.79 C271.30,169.02 279.80,163.85 287.28,165.79 290.68,180.00 Z" fill="#d8d4ce"/>
</g>
<rect x="326.0" y="6.0" width="308.0" height="348.0" rx="3" fill="#282420"/>
<clipPath id="cl1"><rect x="326.0" y="6.0" width="308.0" height="348.0" rx="3"/></clipPath>
<g clip-path="url(#cl1)">
<path d="M364.28,230.05 C360.88,244.26 353.40,246.20 344.90,241.03 C339.80,244.26 328.92,236.51 328.92,231.99 C321.10,235.22 324.50,230.05 321.10,224.88 C328.92,228.11 328.92,223.59 339.80,215.84 C344.90,219.07 353.40,213.90 360.88,215.84 364.28,230.05 Z" fill="#d8d4ce"/>
<path d="M610.68,129.95 C607.28,144.16 599.80,146.10 591.30,140.93 C586.20,144.16 575.32,136.41 575.32,131.89 C567.50,135.12 570.90,129.95 567.50,124.78 C575.32,128.01 575.32,123.49 586.20,115.74 C591.30,118.97 599.80,113.80 607.28,115.74 610.68,129.95 Z" fill="#d8d4ce"/>
</g>
<rect x="646.0" y="6.0" width="308.0" height="348.0" rx="3" fill="#282420"/>
<clipPath id="cl2"><rect x="646.0" y="6.0" width="308.0" height="348.0" rx="3"/></clipPath>
<g clip-path="url(#cl2)">
<path d="M684.28,267.85 C680.88,282.06 673.40,284.00 664.90,278.83 C659.80,282.06 648.92,274.31 648.92,269.79 C641.10,273.02 644.50,267.85 641.10,262.68 C648.92,265.91 648.92,261.39 659.80,253.64 C664.90,256.87 673.40,251.70 680.88,253.64 684.28,267.85 Z" fill="#d8d4ce"/>
<path d="M930.68,92.15 C927.28,106.36 919.80,108.30 911.30,103.13 C906.20,106.36 895.32,98.61 895.32,94.09 C887.50,97.32 890.90,92.15 887.50,86.98 C895.32,90.21 895.32,85.69 906.20,77.94 C911.30,81.17 919.80,76.00 927.28,77.94 930.68,92.15 Z" fill="#d8d4ce"/>
</g>
<rect x="966.0" y="6.0" width="308.0" height="348.0" rx="3" fill="#282420"/>
<clipPath id="cl3"><rect x="966.0" y="6.0" width="308.0" height="348.0" rx="3"/></clipPath>
<g clip-path="url(#cl3)">
<path d="M1004.28,284.14 C1000.88,298.35 993.40,300.29 984.90,295.12 C979.80,298.35 968.92,290.60 968.92,286.08 C961.10,289.31 964.50,284.14 961.10,278.97 C968.92,282.20 968.92,277.68 979.80,269.93 C984.90,273.16 993.40,267.99 1000.88,269.93 1004.28,284.14 Z" fill="#d8d4ce"/>
<path d="M1250.68,75.86 C1247.28,90.07 1239.80,92.01 1231.30,86.84 C1226.20,90.07 1215.32,82.32 1215.32,77.80 C1207.50,81.03 1210.90,75.86 1207.50,70.69 C1215.32,73.92 1215.32,69.40 1226.20,61.65 C1231.30,64.88 1239.80,59.71 1247.28,61.65 1250.68,75.86 Z" fill="#d8d4ce"/>
</g>
<rect x="1286.0" y="6.0" width="308.0" height="348.0" rx="3" fill="#282420"/>
<clipPath id="cl4"><rect x="1286.0" y="6.0" width="308.0" height="348.0" rx="3"/></clipPath>
<g clip-path="url(#cl4)">
<path d="M1324.28,274.93 C1320.88,289.14 1313.40,291.08 1304.90,285.91 C1299.80,289.14 1288.92,281.39 1288.92,276.87 C1281.10,280.10 1284.50,274.93 1281.10,269.76 C1288.92,272.99 1288.92,268.47 1299.80,260.72 C1304.90,263.95 1313.40,258.78 1320.88,260.72 1324.28,274.93 Z" fill="#d8d4ce"/>
<path d="M1570.68,85.07 C1567.28,99.28 1559.80,101.22 1551.30,96.05 C1546.20,99.28 1535.32,91.53 1535.32,87.01 C1527.50,90.24 1530.90,85.07 1527.50,79.90 C1535.32,83.13 1535.32,78.61 1546.20,70.86 C1551.30,74.09 1559.80,68.92 1567.28,70.86 1570.68,85.07 Z" fill="#d8d4ce"/>
</g>
<rect x="1606.0" y="6.0" width="308.0" height="348.0" rx="3" fill="#282420"/>
<clipPath id="cl5"><rect x="1606.0" y="6.0" width="308.0" height="348.0" rx="3"/></clipPath>
<g clip-path="url(#cl5)">
<path d="M1644.28,242.48 C1640.88,256.69 1633.40,258.63 1624.90,253.46 C1619.80,256.69 1608.92,248.94 1608.92,244.42 C1601.10,247.65 1604.50,242.48 1601.10,237.31 C1608.92,240.54 1608.92,236.02 1619.80,228.27 C1624.90,231.50 1633.40,226.33 1640.88,228.27 1644.28,242.48 Z" fill="#d8d4ce"/>
<path d="M1890.68,117.52 C1887.28,131.73 1879.80,133.67 1871.30,128.50 C1866.20,131.73 1855.32,123.98 1855.32,119.46 C1847.50,122.69 1850.90,117.52 1847.50,112.35 C1855.32,115.58 1855.32,111.06 1866.20,103.31 C1871.30,106.54 1879.80,101.37 1887.28,103.31 1890.68,117.52 Z" fill="#d8d4ce"/>
</g>
<rect x="6.0" y="366.0" width="308.0" height="348.0" rx="3" fill="#282420"/>
<clipPath id="cl6"><rect x="6.0" y="366.0" width="308.0" height="348.0" rx="3"/></clipPath>
<g clip-path="url(#cl6)">
<path d="M44.28,554.73 C40.88,568.94 33.40,570.88 24.90,565.71 C19.80,568.94 8.92,561.19 8.92,556.67 C1.10,559.90 4.50,554.73 1.10,549.56 C8.92,552.79 8.92,548.27 19.80,540.52 C24.90,543.75 33.40,538.58 40.88,540.52 44.28,554.73 Z" fill="#d8d4ce"/>
<path d="M290.68,525.27 C287.28,539.48 279.80,541.42 271.30,536.25 C266.20,539.48 255.32,531.73 255.32,527.21 C247.50,530.44 250.90,525.27 247.50,520.10 C255.32,523.33 255.32,518.81 266.20,511.06 C271.30,514.29 279.80,509.12 287.28,511.06 290.68,525.27 Z" fill="#d8d4ce"/>
</g>
<rect x="326.0" y="366.0" width="308.0" height="348.0" rx="3" fill="#282420"/>
<clipPath id="cl7"><rect x="326.0" y="366.0" width="308.0" height="348.0" rx="3"/></clipPath>
<g clip-path="url(#cl7)">
<path d="M364.28,503.38 C360.88,517.59 353.40,519.53 344.90,514.36 C339.80,517.59 328.92,509.84 328.92,505.32 C321.10,508.55 324.50,503.38 321.10,498.21 C328.92,501.44 328.92,496.92 339.80,489.17 C344.90,492.40 353.40,487.23 360.88,489.17 364.28,503.38 Z" fill="#d8d4ce"/>
<path d="M610.68,576.62 C607.28,590.83 599.80,592.77 591.30,587.60 C586.20,590.83 575.32,583.08 575.32,578.56 C567.50,581.79 570.90,576.62 567.50,571.45 C575.32,574.68 575.32,570.16 586.20,562.41 C591.30,565.64 599.80,560.47 607.28,562.41 610.68,576.62 Z" fill="#d8d4ce"/>
</g>
<rect x="646.0" y="366.0" width="308.0" height="348.0" rx="3" fill="#282420"/>
<clipPath id="cl8"><rect x="646.0" y="366.0" width="308.0" height="348.0" rx="3"/></clipPath>
<g clip-path="url(#cl8)">
<path d="M684.28,460.99 C680.88,475.20 673.40,477.14 664.90,471.97 C659.80,475.20 648.92,467.45 648.92,462.93 C641.10,466.16 644.50,460.99 641.10,455.82 C648.92,459.05 648.92,454.53 659.80,446.78 C664.90,450.01 673.40,444.84 680.88,446.78 684.28,460.99 Z" fill="#d8d4ce"/>
<path d="M930.68,619.01 C927.28,633.22 919.80,635.16 911.30,629.99 C906.20,633.22 895.32,625.47 895.32,620.95 C887.50,624.18 890.90,619.01 887.50,613.84 C895.32,617.07 895.32,612.55 906.20,604.80 C911.30,608.03 919.80,602.86 927.28,604.80 930.68,619.01 Z" fill="#d8d4ce"/>
</g>
<rect x="966.0" y="366.0" width="308.0" height="348.0" rx="3" fill="#282420"/>
<clipPath id="cl9"><rect x="966.0" y="366.0" width="308.0" height="348.0" rx="3"/></clipPath>
<g clip-path="url(#cl9)">
<path d="M1004.28,437.95 C1000.88,452.16 993.40,454.10 984.90,448.93 C979.80,452.16 968.92,444.41 968.92,439.88 C961.10,443.11 964.50,437.95 961.10,432.78 C968.92,436.01 968.92,431.49 979.80,423.73 C984.90,426.96 993.40,421.80 1000.88,423.73 1004.28,437.95 Z" fill="#d8d4ce"/>
<path d="M1250.68,642.05 C1247.28,656.27 1239.80,658.20 1231.30,653.04 C1226.20,656.27 1215.32,648.51 1215.32,643.99 C1207.50,647.22 1210.90,642.05 1207.50,636.89 C1215.32,640.12 1215.32,635.59 1226.20,627.84 C1231.30,631.07 1239.80,625.90 1247.28,627.84 1250.68,642.05 Z" fill="#d8d4ce"/>
</g>
<rect x="1286.0" y="366.0" width="308.0" height="348.0" rx="3" fill="#282420"/>
<clipPath id="cl10"><rect x="1286.0" y="366.0" width="308.0" height="348.0" rx="3"/></clipPath>
<g clip-path="url(#cl10)">
<path d="M1324.28,439.89 C1320.88,454.10 1313.40,456.04 1304.90,450.87 C1299.80,454.10 1288.92,446.35 1288.92,441.83 C1281.10,445.06 1284.50,439.89 1281.10,434.72 C1288.92,437.95 1288.92,433.43 1299.80,425.68 C1304.90,428.91 1313.40,423.74 1320.88,425.68 1324.28,439.89 Z" fill="#d8d4ce"/>
<path d="M1570.68,640.11 C1567.28,654.32 1559.80,656.26 1551.30,651.09 C1546.20,654.32 1535.32,646.57 1535.32,642.05 C1527.50,645.28 1530.90,640.11 1527.50,634.94 C1535.32,638.17 1535.32,633.65 1546.20,625.90 C1551.30,629.13 1559.80,623.96 1567.28,625.90 1570.68,640.11 Z" fill="#d8d4ce"/>
</g>
<rect x="1606.0" y="366.0" width="308.0" height="348.0" rx="3" fill="#282420"/>
<clipPath id="cl11"><rect x="1606.0" y="366.0" width="308.0" height="348.0" rx="3"/></clipPath>
<g clip-path="url(#cl11)">
<path d="M1644.28,466.34 C1640.88,480.55 1633.40,482.49 1624.90,477.32 C1619.80,480.55 1608.92,472.80 1608.92,468.28 C1601.10,471.51 1604.50,466.34 1601.10,461.17 C1608.92,464.40 1608.92,459.88 1619.80,452.13 C1624.90,455.36 1633.40,450.19 1640.88,452.13 1644.28,466.34 Z" fill="#d8d4ce"/>
<path d="M1890.68,613.66 C1887.28,627.87 1879.80,629.81 1871.30,624.64 C1866.20,627.87 1855.32,620.12 1855.32,615.60 C1847.50,618.83 1850.90,613.66 1847.50,608.49 C1855.32,611.72 1855.32,607.20 1866.20,599.45 C1871.30,602.68 1879.80,597.51 1887.28,599.45 1890.68,613.66 Z" fill="#d8d4ce"/>
</g>
<rect x="6.0" y="726.0" width="308.0" height="348.0" rx="3" fill="#282420"/>
<clipPath id="cl12"><rect x="6.0" y="726.0" width="308.0" height="348.0" rx="3"/></clipPath>
<g clip-path="url(#cl12)">
<path d="M44.28,870.83 C40.88,885.04 33.40,886.98 24.90,881.81 C19.80,885.04 8.92,877.29 8.92,872.77 C1.10,876.00 4.50,870.83 1.10,865.66 C8.92,868.89 8.92,864.37 19.80,856.62 C24.90,859.85 33.40,854.68 40.88,856.62 44.28,870.83 Z" fill="#d8d4ce"/>
<path d="M290.68,929.17 C287.28,943.38 279.80,945.32 271.30,940.15 C266.20,943.38 255.32,935.63 255.32,931.11 C247.50,934.34 250.90,929.17 247.50,924.00 C255.32,927.23 255.32,922.71 266.20,914.96 C271.30,918.19 279.80,913.02 287.28,914.96 290.68,929.17 Z" fill="#d8d4ce"/>
</g>
<rect x="326.0" y="726.0" width="308.0" height="348.0" rx="3" fill="#282420"/>
<clipPath id="cl13"><rect x="326.0" y="726.0" width="308.0" height="348.0" rx="3"/></clipPath>
<g clip-path="url(#cl13)">
<path d="M364.28,922.46 C360.88,936.67 353.40,938.61 344.90,933.44 C339.80,936.67 328.92,928.92 328.92,924.40 C321.10,927.63 324.50,922.46 321.10,917.29 C328.92,920.52 328.92,916.00 339.80,908.25 C344.90,911.48 353.40,906.31 360.88,908.25 364.28,922.46 Z" fill="#d8d4ce"/>
<path d="M610.68,877.54 C607.28,891.75 599.80,893.69 591.30,888.52 C586.20,891.75 575.32,884.00 575.32,879.48 C567.50,882.71 570.90,877.54 567.50,872.37 C575.32,875.60 575.32,871.08 586.20,863.33 C591.30,866.56 599.80,861.39 607.28,863.33 610.68,877.54 Z" fill="#d8d4ce"/>
</g>
<rect x="646.0" y="726.0" width="308.0" height="348.0" rx="3" fill="#282420"/>
<clipPath id="cl14"><rect x="646.0" y="726.0" width="308.0" height="348.0" rx="3"/></clipPath>
<g clip-path="url(#cl14)">
<path d="M684.28,968.59 C680.88,982.80 673.40,984.74 664.90,979.57 C659.80,982.80 648.92,975.05 648.92,970.53 C641.10,973.76 644.50,968.59 641.10,963.42 C648.92,966.65 648.92,962.13 659.80,954.38 C664.90,957.61 673.40,952.44 680.88,954.38 684.28,968.59 Z" fill="#d8d4ce"/>
<path d="M930.68,831.41 C927.28,845.62 919.80,847.56 911.30,842.39 C906.20,845.62 895.32,837.87 895.32,833.35 C887.50,836.58 890.90,831.41 887.50,826.24 C895.32,829.47 895.32,824.95 906.20,817.20 C911.30,820.43 919.80,815.26 927.28,817.20 930.68,831.41 Z" fill="#d8d4ce"/>
</g>
<rect x="966.0" y="726.0" width="308.0" height="348.0" rx="3" fill="#282420"/>
<clipPath id="cl15"><rect x="966.0" y="726.0" width="308.0" height="348.0" rx="3"/></clipPath>
<g clip-path="url(#cl15)">
<path d="M1004.28,997.93 C1000.88,1012.14 993.40,1014.08 984.90,1008.91 C979.80,1012.14 968.92,1004.39 968.92,999.87 C961.10,1003.10 964.50,997.93 961.10,992.76 C968.92,995.99 968.92,991.47 979.80,983.72 C984.90,986.95 993.40,981.78 1000.88,983.72 1004.28,997.93 Z" fill="#d8d4ce"/>
<path d="M1250.68,802.07 C1247.28,816.28 1239.80,818.22 1231.30,813.05 C1226.20,816.28 1215.32,808.53 1215.32,804.01 C1207.50,807.24 1210.90,802.07 1207.50,796.90 C1215.32,800.13 1215.32,795.61 1226.20,787.86 C1231.30,791.09 1239.80,785.92 1247.28,787.86 1250.68,802.07 Z" fill="#d8d4ce"/>
</g>
<rect x="1286.0" y="726.0" width="308.0" height="348.0" rx="3" fill="#282420"/>
<clipPath id="cl16"><rect x="1286.0" y="726.0" width="308.0" height="348.0" rx="3"/></clipPath>
<g clip-path="url(#cl16)">
<path d="M1324.28,1003.29 C1320.88,1017.50 1313.40,1019.44 1304.90,1014.27 C1299.80,1017.50 1288.92,1009.75 1288.92,1005.23 C1281.10,1008.46 1284.50,1003.29 1281.10,998.12 C1288.92,1001.35 1288.92,996.83 1299.80,989.08 C1304.90,992.31 1313.40,987.14 1320.88,989.08 1324.28,1003.29 Z" fill="#d8d4ce"/>
<path d="M1570.68,796.71 C1567.28,810.92 1559.80,812.86 1551.30,807.69 C1546.20,810.92 1535.32,803.17 1535.32,798.65 C1527.50,801.88 1530.90,796.71 1527.50,791.54 C1535.32,794.77 1535.32,790.25 1546.20,782.50 C1551.30,785.73 1559.80,780.56 1567.28,782.50 1570.68,796.71 Z" fill="#d8d4ce"/>
</g>
<rect x="1606.0" y="726.0" width="308.0" height="348.0" rx="3" fill="#282420"/>
<clipPath id="cl17"><rect x="1606.0" y="726.0" width="308.0" height="348.0" rx="3"/></clipPath>
<g clip-path="url(#cl17)">
<path d="M1644.28,983.36 C1640.88,997.57 1633.40,999.51 1624.90,994.34 C1619.80,997.57 1608.92,989.82 1608.92,985.30 C1601.10,988.53 1604.50,983.36 1601.10,978.19 C1608.92,981.42 1608.92,976.90 1619.80,969.15 C1624.90,972.38 1633.40,967.21 1640.88,969.15 1644.28,983.36 Z" fill="#d8d4ce"/>
<path d="M1890.68,816.64 C1887.28,830.85 1879.80,832.79 1871.30,827.62 C1866.20,830.85 1855.32,823.10 1855.32,818.58 C1847.50,821.81 1850.90,816.64 1847.50,811.47 C1855.32,814.70 1855.32,810.18 1866.20,802.43 C1871.30,805.66 1879.80,800.49 1887.28,802.43 1890.68,816.64 Z" fill="#d8d4ce"/>
</g>
</svg>