<svg xmlns="http://www.w3.org/2000/svg" width="2400" height="1350" viewBox="0 0 2400 1350">
<rect width="2400" height="1350" fill="#e8d8cc"/>
<rect x="8.0" y="8.0" width="784.0" height="434.0" rx="3" fill="#7a3020"/>
<clipPath id="cl0"><rect x="8.0" y="8.0" width="784.0" height="434.0" rx="3"/></clipPath>
<g clip-path="url(#cl0)">
<path d="M371.84,225.00 C393.60,183.53 440.96,178.92 508.80,225.00 C440.96,271.08 393.60,266.47 371.84,225.00 Z" fill="#e8d8cc"/>
<path d="M400.00,240.24 C441.47,262.00 446.08,309.36 400.00,377.20 C353.92,309.36 358.53,262.00 400.00,240.24 Z" fill="#e8d8cc"/>
<path d="M341.36,225.00 C319.60,266.47 272.24,271.08 204.40,225.00 C272.24,178.92 319.60,183.53 341.36,225.00 Z" fill="#e8d8cc"/>
<path d="M400.00,122.96 C358.53,101.20 353.92,53.84 400.00,-14.00 C446.08,53.84 441.47,101.20 400.00,122.96 Z" fill="#e8d8cc"/>
<rect x="11.0" y="11.0" width="778.0" height="428.0" rx="2" fill="none" stroke="#e8d8cc" stroke-width="1" opacity="0.4"/>
<rect x="15.0" y="15.0" width="770.0" height="420.0" rx="1" fill="none" stroke="#e8d8cc" stroke-width="0.5" opacity="0.25"/>
</g>
<rect x="808.0" y="8.0" width="784.0" height="434.0" rx="3" fill="#7a3020"/>
<clipPath id="cl1"><rect x="808.0" y="8.0" width="784.0" height="434.0" rx="3"/></clipPath>
<g clip-path="url(#cl1)">
<path d="M1175.29,211.50 C1214.27,185.54 1258.04,204.20 1295.48,277.16 C1213.85,285.08 1174.50,258.33 1175.29,211.50 Z" fill="#e8d8cc"/>
<path d="M1192.69,238.37 C1218.66,277.35 1199.99,321.12 1127.03,358.57 C1119.12,276.94 1145.87,237.59 1192.69,238.37 Z" fill="#e8d8cc"/>
<path d="M1148.54,196.89 C1109.56,222.85 1065.79,204.19 1028.34,131.22 C1109.97,123.31 1149.33,150.06 1148.54,196.89 Z" fill="#e8d8cc"/>
<path d="M1248.92,135.45 C1222.96,96.47 1241.62,52.70 1314.58,15.26 C1322.50,96.88 1295.75,136.24 1248.92,135.45 Z" fill="#e8d8cc"/>
<rect x="811.0" y="11.0" width="778.0" height="428.0" rx="2" fill="none" stroke="#e8d8cc" stroke-width="1" opacity="0.4"/>
<rect x="815.0" y="15.0" width="770.0" height="420.0" rx="1" fill="none" stroke="#e8d8cc" stroke-width="0.5" opacity="0.25"/>
</g>
<rect x="1608.0" y="8.0" width="784.0" height="434.0" rx="3" fill="#7a3020"/>
<clipPath id="cl2"><rect x="1608.0" y="8.0" width="784.0" height="434.0" rx="3"/></clipPath>
<g clip-path="url(#cl2)">
<path d="M1984.79,201.30 C2031.44,197.21 2060.91,234.57 2058.78,316.55 C1983.36,284.36 1961.64,242.02 1984.79,201.30 Z" fill="#e8d8cc"/>
<path d="M1987.18,233.23 C1991.27,279.89 1953.91,309.35 1871.93,307.23 C1904.12,231.80 1946.46,210.09 1987.18,233.23 Z" fill="#e8d8cc"/>
<path d="M1968.32,175.66 C1921.66,179.75 1892.20,142.39 1894.32,60.41 C1969.75,92.60 1991.46,134.94 1968.32,175.66 Z" fill="#e8d8cc"/>
<path d="M2085.86,169.87 C2081.77,123.21 2119.13,93.75 2201.11,95.87 C2168.92,171.30 2126.58,193.01 2085.86,169.87 Z" fill="#e8d8cc"/>
<rect x="1611.0" y="11.0" width="778.0" height="428.0" rx="2" fill="none" stroke="#e8d8cc" stroke-width="1" opacity="0.4"/>
<rect x="1615.0" y="15.0" width="770.0" height="420.0" rx="1" fill="none" stroke="#e8d8cc" stroke-width="0.5" opacity="0.25"/>
</g>
<rect x="408.0" y="458.0" width="784.0" height="434.0" rx="3" fill="#7a3020"/>
<clipPath id="cl3"><rect x="408.0" y="458.0" width="784.0" height="434.0" rx="3"/></clipPath>
<g clip-path="url(#cl3)">
<path d="M798.01,646.91 C840.92,665.68 848.86,712.60 807.70,783.53 C756.93,719.12 758.18,671.55 798.01,646.91 Z" fill="#e8d8cc"/>
<path d="M784.80,676.08 C766.03,718.99 719.11,726.93 648.18,685.77 C712.59,635.00 760.16,636.25 784.80,676.08 Z" fill="#e8d8cc"/>
<path d="M795.85,616.51 C752.94,597.74 745.00,550.82 786.16,479.89 C836.93,544.30 835.68,591.87 795.85,616.51 Z" fill="#e8d8cc"/>
<path d="M901.78,667.78 C920.56,624.87 967.47,616.93 1038.40,658.09 C973.99,708.86 926.42,707.61 901.78,667.78 Z" fill="#e8d8cc"/>
<rect x="411.0" y="461.0" width="778.0" height="428.0" rx="2" fill="none" stroke="#e8d8cc" stroke-width="1" opacity="0.4"/>
<rect x="415.0" y="465.0" width="770.0" height="420.0" rx="1" fill="none" stroke="#e8d8cc" stroke-width="0.5" opacity="0.25"/>
</g>
<rect x="1208.0" y="458.0" width="784.0" height="434.0" rx="3" fill="#7a3020"/>
<clipPath id="cl4"><rect x="1208.0" y="458.0" width="784.0" height="434.0" rx="3"/></clipPath>
<g clip-path="url(#cl4)">
<path d="M1611.72,649.39 C1640.37,686.44 1624.86,731.42 1554.72,773.93 C1541.05,693.07 1564.95,651.92 1611.72,649.39 Z" fill="#e8d8cc"/>
<path d="M1586.14,668.66 C1549.10,697.31 1504.12,681.79 1461.60,611.66 C1542.47,597.99 1583.61,621.89 1586.14,668.66 Z" fill="#e8d8cc"/>
<path d="M1624.40,621.68 C1595.75,584.63 1611.27,539.65 1681.40,497.14 C1695.07,578.00 1671.17,619.15 1624.40,621.68 Z" fill="#e8d8cc"/>
<path d="M1692.78,717.46 C1729.83,688.81 1774.81,704.33 1817.32,774.46 C1736.46,788.13 1695.31,764.23 1692.78,717.46 Z" fill="#e8d8cc"/>
<rect x="1211.0" y="461.0" width="778.0" height="428.0" rx="2" fill="none" stroke="#e8d8cc" stroke-width="1" opacity="0.4"/>
<rect x="1215.0" y="465.0" width="770.0" height="420.0" rx="1" fill="none" stroke="#e8d8cc" stroke-width="0.5" opacity="0.25"/>
</g>
<rect x="2008.0" y="458.0" width="784.0" height="434.0" rx="3" fill="#7a3020"/>
<clipPath id="cl5"><rect x="2008.0" y="458.0" width="784.0" height="434.0" rx="3"/></clipPath>
<g clip-path="url(#cl5)">
<path d="M2422.56,658.15 C2429.95,704.39 2394.76,736.43 2312.84,740.11 C2339.61,662.60 2380.31,637.94 2422.56,658.15 Z" fill="#e8d8cc"/>
<path d="M2390.88,662.79 C2344.63,670.18 2312.60,634.99 2308.91,553.07 C2386.43,579.84 2411.08,620.54 2390.88,662.79 Z" fill="#e8d8cc"/>
<path d="M2446.98,639.91 C2439.59,593.66 2474.78,561.62 2556.70,557.94 C2529.93,635.46 2489.23,660.11 2446.98,639.91 Z" fill="#e8d8cc"/>
<path d="M2461.07,756.75 C2507.32,749.36 2539.35,784.55 2543.03,866.47 C2465.52,839.70 2440.87,799.00 2461.07,756.75 Z" fill="#e8d8cc"/>
<rect x="2011.0" y="461.0" width="778.0" height="428.0" rx="2" fill="none" stroke="#e8d8cc" stroke-width="1" opacity="0.4"/>
<rect x="2015.0" y="465.0" width="770.0" height="420.0" rx="1" fill="none" stroke="#e8d8cc" stroke-width="0.5" opacity="0.25"/>
</g>
<rect x="8.0" y="908.0" width="784.0" height="434.0" rx="3" fill="#7a3020"/>
<clipPath id="cl6"><rect x="8.0" y="908.0" width="784.0" height="434.0" rx="3"/></clipPath>
<g clip-path="url(#cl6)">
<path d="M427.88,1121.03 C412.19,1165.15 365.95,1176.40 292.29,1140.35 C352.95,1085.16 400.48,1083.04 427.88,1121.03 Z" fill="#e8d8cc"/>
<path d="M397.85,1109.91 C353.72,1094.22 342.48,1047.99 378.52,974.32 C433.71,1034.98 435.84,1082.52 397.85,1109.91 Z" fill="#e8d8cc"/>
<path d="M458.05,1116.72 C473.74,1072.60 519.98,1061.35 593.64,1097.40 C532.98,1152.59 485.45,1154.71 458.05,1116.72 Z" fill="#e8d8cc"/>
<path d="M414.40,1226.02 C458.53,1241.71 469.77,1287.94 433.73,1361.61 C378.54,1300.95 376.41,1253.41 414.40,1226.02 Z" fill="#e8d8cc"/>
<rect x="11.0" y="911.0" width="778.0" height="428.0" rx="2" fill="none" stroke="#e8d8cc" stroke-width="1" opacity="0.4"/>
<rect x="15.0" y="915.0" width="770.0" height="420.0" rx="1" fill="none" stroke="#e8d8cc" stroke-width="0.5" opacity="0.25"/>
</g>
<rect x="808.0" y="908.0" width="784.0" height="434.0" rx="3" fill="#7a3020"/>
<clipPath id="cl7"><rect x="808.0" y="908.0" width="784.0" height="434.0" rx="3"/></clipPath>
<g clip-path="url(#cl7)">
<path d="M1226.37,1134.88 C1191.45,1166.08 1145.48,1153.78 1098.11,1086.83 C1177.81,1067.48 1220.54,1088.41 1226.37,1134.88 Z" fill="#e8d8cc"/>
<path d="M1205.35,1110.73 C1174.14,1075.80 1186.44,1029.84 1253.39,982.47 C1272.74,1062.16 1251.82,1104.90 1205.35,1110.73 Z" fill="#e8d8cc"/>
<path d="M1254.91,1145.57 C1289.84,1114.37 1335.81,1126.66 1383.17,1193.61 C1303.48,1212.97 1260.74,1192.04 1254.91,1145.57 Z" fill="#e8d8cc"/>
<path d="M1164.21,1220.56 C1195.41,1255.48 1183.11,1301.45 1116.16,1348.81 C1096.81,1269.12 1117.74,1226.39 1164.21,1220.56 Z" fill="#e8d8cc"/>
<rect x="811.0" y="911.0" width="778.0" height="428.0" rx="2" fill="none" stroke="#e8d8cc" stroke-width="1" opacity="0.4"/>
<rect x="815.0" y="915.0" width="770.0" height="420.0" rx="1" fill="none" stroke="#e8d8cc" stroke-width="0.5" opacity="0.25"/>
</g>
<rect x="1608.0" y="908.0" width="784.0" height="434.0" rx="3" fill="#7a3020"/>
<clipPath id="cl8"><rect x="1608.0" y="908.0" width="784.0" height="434.0" rx="3"/></clipPath>
<g clip-path="url(#cl8)">
<path d="M2018.41,1146.31 C1972.80,1156.95 1938.35,1124.12 1928.88,1042.66 C2008.10,1063.88 2035.57,1102.74 2018.41,1146.31 Z" fill="#e8d8cc"/>
<path d="M2011.53,1115.04 C2000.89,1069.43 2033.72,1034.99 2115.19,1025.52 C2093.96,1104.73 2055.11,1132.20 2011.53,1115.04 Z" fill="#e8d8cc"/>
<path d="M2038.33,1169.38 C2083.94,1158.74 2118.38,1191.57 2127.85,1273.03 C2048.64,1251.81 2021.17,1212.95 2038.33,1169.38 Z" fill="#e8d8cc"/>
<path d="M1922.78,1191.70 C1933.42,1237.31 1900.59,1271.75 1819.12,1281.22 C1840.35,1202.00 1879.20,1174.53 1922.78,1191.70 Z" fill="#e8d8cc"/>
<rect x="1611.0" y="911.0" width="778.0" height="428.0" rx="2" fill="none" stroke="#e8d8cc" stroke-width="1" opacity="0.4"/>
<rect x="1615.0" y="915.0" width="770.0" height="420.0" rx="1" fill="none" stroke="#e8d8cc" stroke-width="0.5" opacity="0.25"/>
</g>
</svg>