<svg xmlns="http://www.w3.org/2000/svg" width="1920" height="1080" viewBox="0 0 1920 1080">
<rect width="1920" height="1080" fill="#d8d4ce"/>
<rect x="4.5" y="4.5" width="375.0" height="351.0" rx="3" fill="#282420"/>
<clipPath id="cl0"><rect x="4.5" y="4.5" width="375.0" height="351.0" rx="3"/></clipPath>
<g clip-path="url(#cl0)">
<path d="M167.74,136.22 C171.54,142.45 169.86,151.41 160.50,158.57 C169.70,155.55 170.05,147.29 159.81,154.55 C158.81,165.28 155.26,165.38 155.73,162.81 C153.45,163.30 155.73,162.81 152.56,161.14 C150.71,162.98 148.78,159.99 157.08,153.11 C157.29,140.56 150.68,145.51 153.37,154.81 C154.00,143.04 160.45,136.59 167.74,136.22 Z" fill="#d8d4ce"/>
<path d="M177.79,130.02 C184.60,131.44 189.72,138.46 188.60,149.63 C192.50,141.27 186.99,135.63 185.35,147.49 C192.16,155.18 189.91,157.71 188.43,155.71 C187.28,157.61 188.43,155.71 185.20,156.82 C185.26,159.31 181.94,158.70 182.57,148.45 C173.99,140.11 173.11,147.93 181.33,152.13 C173.57,144.01 173.29,135.33 177.79,130.02 Z" fill="#d8d4ce"/>
<path d="M234.60,231.15 C226.99,234.24 217.35,230.73 211.11,219.04 C212.79,229.80 221.89,231.70 215.70,219.01 C203.97,215.94 204.51,211.98 207.27,212.97 C207.15,210.35 207.27,212.97 209.71,209.76 C208.01,207.37 211.67,205.78 217.80,216.24 C231.69,218.76 227.40,210.52 216.58,211.81 C229.53,214.66 235.51,222.99 234.60,231.15 Z" fill="#d8d4ce"/>
</g>
<rect x="388.5" y="4.5" width="375.0" height="351.0" rx="3" fill="#282420"/>
<clipPath id="cl1"><rect x="388.5" y="4.5" width="375.0" height="351.0" rx="3"/></clipPath>
<g clip-path="url(#cl1)">
<path d="M561.56,176.55 C566.37,171.14 575.37,170.16 584.86,176.98 C579.34,169.12 571.40,171.16 581.24,178.79 C591.71,176.65 592.83,179.99 590.26,180.29 C591.37,182.31 590.26,180.29 589.58,183.78 C591.86,185.01 589.58,187.69 580.66,181.80 C568.68,185.21 575.29,190.07 583.34,184.83 C571.99,187.62 564.01,183.36 561.56,176.55 Z" fill="#d8d4ce"/>
<path d="M571.98,137.58 C564.03,140.71 554.03,136.96 547.64,124.72 C549.28,135.95 558.74,138.02 552.42,124.74 C540.24,121.42 540.84,117.31 543.71,118.36 C543.61,115.63 543.71,118.36 546.28,115.04 C544.53,112.53 548.36,110.92 554.63,121.87 C569.08,124.65 564.69,116.01 553.42,117.25 C566.87,120.35 573.02,129.09 571.98,137.58 Z" fill="#d8d4ce"/>
<path d="M569.77,156.12 C574.06,149.29 583.77,146.55 595.47,152.28 C587.95,144.66 579.59,148.38 591.83,154.95 C602.95,150.65 604.80,154.12 602.02,154.92 C603.63,156.94 602.02,154.92 601.93,158.88 C604.66,159.82 602.65,163.19 591.75,158.37 C579.21,164.33 587.37,168.45 595.26,161.20 C583.29,166.37 573.73,163.16 569.77,156.12 Z" fill="#d8d4ce"/>
</g>
<rect x="772.5" y="4.5" width="375.0" height="351.0" rx="3" fill="#282420"/>
<clipPath id="cl2"><rect x="772.5" y="4.5" width="375.0" height="351.0" rx="3"/></clipPath>
<g clip-path="url(#cl2)">
<path d="M964.77,218.63 C958.25,215.62 954.74,207.36 958.47,196.39 C952.60,203.89 956.83,210.84 961.23,199.30 C956.19,189.98 959.04,187.96 960.06,190.32 C961.66,188.67 960.06,190.32 963.57,189.95 C964.08,187.44 967.28,188.83 964.26,198.99 C970.94,209.37 973.65,201.71 966.36,195.57 C972.27,205.54 970.53,214.34 964.77,218.63 Z" fill="#d8d4ce"/>
<path d="M954.60,136.15 C958.55,130.54 966.91,128.65 976.59,134.04 C970.54,127.24 963.29,130.02 973.38,136.14 C983.01,132.99 984.41,136.02 982.03,136.57 C983.30,138.36 982.03,136.57 981.77,139.93 C984.04,140.85 982.19,143.62 973.15,139.04 C962.24,143.54 968.99,147.39 976.01,141.60 C965.62,145.45 957.65,142.30 954.60,136.15 Z" fill="#d8d4ce"/>
<path d="M919.89,179.82 C920.39,187.75 914.22,195.51 901.59,197.66 C911.97,199.41 916.50,191.65 902.96,193.44 C896.56,203.26 893.09,201.55 894.85,199.32 C892.41,198.63 894.85,199.32 892.65,196.10 C889.93,196.93 889.59,193.08 901.06,190.67 C907.64,178.70 898.76,180.11 896.63,190.42 C903.21,179.42 912.69,176.48 919.89,179.82 Z" fill="#d8d4ce"/>
</g>
<rect x="1156.5" y="4.5" width="375.0" height="351.0" rx="3" fill="#282420"/>
<clipPath id="cl3"><rect x="1156.5" y="4.5" width="375.0" height="351.0" rx="3"/></clipPath>
<g clip-path="url(#cl3)">
<path d="M1366.94,153.02 C1365.96,160.07 1359.14,165.78 1347.65,165.39 C1356.46,168.80 1361.84,162.80 1349.62,161.93 C1342.22,169.40 1339.49,167.28 1341.43,165.64 C1339.41,164.59 1341.43,165.64 1340.08,162.41 C1337.54,162.65 1337.94,159.21 1348.45,159.15 C1356.38,149.82 1348.33,149.46 1344.60,158.14 C1352.36,149.66 1361.22,148.79 1366.94,153.02 Z" fill="#d8d4ce"/>
<path d="M1351.46,135.84 C1351.19,144.30 1343.86,151.90 1330.24,152.89 C1341.08,155.81 1346.67,148.04 1332.13,148.56 C1324.34,158.32 1320.85,156.16 1322.93,153.97 C1320.41,152.99 1322.93,153.97 1320.92,150.33 C1317.96,150.93 1318.00,146.82 1330.40,145.43 C1338.59,133.41 1329.03,134.00 1325.73,144.72 C1333.82,133.72 1344.17,131.57 1351.46,135.84 Z" fill="#d8d4ce"/>
<path d="M1362.83,211.76 C1357.87,205.73 1358.33,195.99 1367.18,187.01 C1357.89,191.58 1358.73,200.38 1368.50,191.17 C1367.97,179.66 1371.71,179.03 1371.60,181.82 C1373.94,180.97 1371.60,181.82 1375.20,183.12 C1376.90,180.90 1379.37,183.78 1371.61,192.29 C1373.25,205.62 1379.52,199.39 1375.29,189.94 C1376.36,202.50 1370.49,210.28 1362.83,211.76 Z" fill="#d8d4ce"/>
</g>
<rect x="1540.5" y="4.5" width="375.0" height="351.0" rx="3" fill="#282420"/>
<clipPath id="cl4"><rect x="1540.5" y="4.5" width="375.0" height="351.0" rx="3"/></clipPath>
<g clip-path="url(#cl4)">
<path d="M1760.48,189.38 C1767.45,188.28 1774.84,193.11 1777.78,204.12 C1778.48,194.78 1771.23,191.41 1773.93,203.25 C1783.14,208.12 1781.92,211.32 1779.80,209.95 C1779.38,212.17 1779.80,209.95 1777.13,212.17 C1778.08,214.51 1774.70,215.12 1771.62,205.16 C1760.49,200.32 1762.46,208.06 1771.77,209.10 C1761.49,204.18 1758.11,196.03 1760.48,189.38 Z" fill="#d8d4ce"/>
<path d="M1735.64,142.51 C1732.11,136.74 1733.67,128.44 1742.34,121.79 C1733.82,124.60 1733.49,132.25 1742.98,125.52 C1743.90,115.57 1747.19,115.48 1746.76,117.86 C1748.87,117.41 1746.76,117.86 1749.70,119.41 C1751.42,117.71 1753.20,120.47 1745.51,126.85 C1745.32,138.49 1751.45,133.90 1748.95,125.28 C1748.37,136.18 1742.40,142.16 1735.64,142.51 Z" fill="#d8d4ce"/>
<path d="M1705.75,131.84 C1713.17,133.81 1718.39,141.84 1716.50,154.08 C1721.28,145.09 1715.55,138.57 1713.05,151.52 C1720.09,160.40 1717.47,163.05 1715.96,160.76 C1714.58,162.78 1715.96,160.76 1712.34,161.79 C1712.26,164.53 1708.63,163.66 1709.93,152.41 C1700.97,142.73 1699.55,151.29 1708.35,156.40 C1700.28,147.00 1700.49,137.43 1705.75,131.84 Z" fill="#d8d4ce"/>
</g>
<rect x="196.5" y="364.5" width="375.0" height="351.0" rx="3" fill="#282420"/>
<clipPath id="cl5"><rect x="196.5" y="364.5" width="375.0" height="351.0" rx="3"/></clipPath>
<g clip-path="url(#cl5)">
<path d="M366.14,523.63 C360.73,529.66 350.69,530.71 340.10,523.07 C346.24,531.86 355.12,529.61 344.15,521.05 C332.44,523.41 331.21,519.67 334.09,519.35 C332.85,517.08 334.09,519.35 334.85,515.45 C332.31,514.07 334.87,511.08 344.81,517.69 C358.21,513.93 350.84,508.48 341.83,514.30 C354.52,511.23 363.42,516.02 366.14,523.63 Z" fill="#d8d4ce"/>
<path d="M387.59,545.95 C380.85,543.36 376.77,535.32 379.78,524.06 C374.40,531.98 379.10,538.67 382.75,526.80 C377.06,517.78 379.78,515.56 380.96,517.86 C382.46,516.10 380.96,517.86 384.46,517.26 C384.80,514.70 388.11,515.88 385.76,526.28 C393.17,536.25 395.37,528.37 387.64,522.71 C394.24,532.32 393.08,541.26 387.59,545.95 Z" fill="#d8d4ce"/>
<path d="M405.88,543.86 C403.27,551.71 394.28,556.81 381.24,553.97 C390.59,559.71 397.99,553.97 384.21,550.43 C374.19,557.42 371.51,554.42 374.08,552.95 C371.99,551.33 374.08,552.95 373.20,548.98 C370.26,548.72 371.43,544.87 383.46,547.00 C394.47,538.00 385.35,535.90 379.27,545.04 C389.92,536.98 400.21,537.83 405.88,543.86 Z" fill="#d8d4ce"/>
</g>
<rect x="580.5" y="364.5" width="375.0" height="351.0" rx="3" fill="#282420"/>
<clipPath id="cl6"><rect x="580.5" y="364.5" width="375.0" height="351.0" rx="3"/></clipPath>
<g clip-path="url(#cl6)">
<path d="M760.86,556.48 C768.14,559.87 772.04,569.11 767.82,581.37 C774.41,573.00 769.72,565.22 764.74,578.10 C770.35,588.55 767.16,590.79 766.03,588.15 C764.23,589.99 766.03,588.15 762.10,588.55 C761.52,591.36 757.94,589.79 761.36,578.44 C753.92,566.81 750.87,575.37 759.00,582.26 C752.42,571.09 754.41,561.25 760.86,556.48 Z" fill="#d8d4ce"/>
<path d="M773.47,540.54 C782.08,538.66 791.64,544.13 796.12,557.63 C796.30,545.94 787.02,542.27 791.25,556.83 C803.10,562.22 801.81,566.30 799.07,564.75 C798.72,567.55 799.07,564.75 795.90,567.71 C797.26,570.55 793.10,571.56 788.52,559.38 C774.29,554.17 777.32,563.68 789.00,564.29 C775.82,558.91 771.01,549.00 773.47,540.54 Z" fill="#d8d4ce"/>
<path d="M741.61,573.77 C739.18,566.00 743.42,556.76 755.47,551.53 C744.70,552.32 742.09,561.16 755.13,556.07 C759.11,544.73 762.97,545.58 761.77,548.23 C764.37,548.32 761.77,548.23 764.75,550.89 C767.25,549.41 768.53,553.15 757.70,558.36 C754.08,571.89 762.58,568.31 762.17,557.52 C758.31,570.08 749.60,575.32 741.61,573.77 Z" fill="#d8d4ce"/>
</g>
<rect x="964.5" y="364.5" width="375.0" height="351.0" rx="3" fill="#282420"/>
<clipPath id="cl7"><rect x="964.5" y="364.5" width="375.0" height="351.0" rx="3"/></clipPath>
<g clip-path="url(#cl7)">
<path d="M1156.71,501.58 C1157.84,493.69 1165.49,487.32 1178.34,487.80 C1168.50,483.95 1162.46,490.65 1176.13,491.66 C1184.43,483.33 1187.49,485.71 1185.31,487.55 C1187.56,488.73 1185.31,487.55 1186.81,491.16 C1189.65,490.90 1189.19,494.75 1177.42,494.78 C1168.51,505.19 1177.53,505.63 1181.73,495.93 C1173.01,505.39 1163.10,506.33 1156.71,501.58 Z" fill="#d8d4ce"/>
<path d="M1169.67,546.21 C1164.68,551.30 1155.80,551.84 1146.78,544.71 C1151.84,552.69 1159.74,551.05 1150.42,543.09 C1140.03,544.71 1139.08,541.38 1141.63,541.21 C1140.62,539.17 1141.63,541.21 1142.45,537.81 C1140.27,536.49 1142.63,533.96 1151.13,540.16 C1163.06,537.36 1156.79,532.28 1148.63,537.06 C1159.92,534.84 1167.57,539.40 1169.67,546.21 Z" fill="#d8d4ce"/>
<path d="M1192.46,494.20 C1198.87,499.00 1200.80,508.81 1194.19,519.91 C1202.32,513.09 1199.32,504.53 1191.85,516.09 C1195.20,527.43 1191.62,528.97 1191.06,526.17 C1188.93,527.59 1191.06,526.17 1187.15,525.75 C1186.01,528.38 1182.84,526.12 1188.48,515.74 C1183.59,502.87 1178.87,510.60 1185.39,518.98 C1181.26,506.74 1185.19,497.55 1192.46,494.20 Z" fill="#d8d4ce"/>
</g>
<rect x="1348.5" y="364.5" width="375.0" height="351.0" rx="3" fill="#282420"/>
<clipPath id="cl8"><rect x="1348.5" y="364.5" width="375.0" height="351.0" rx="3"/></clipPath>
<g clip-path="url(#cl8)">
<path d="M1562.24,540.86 C1554.42,542.06 1546.17,536.63 1542.91,524.28 C1542.10,534.74 1550.20,538.55 1547.22,525.27 C1536.91,519.79 1538.30,516.20 1540.67,517.74 C1541.14,515.26 1540.67,517.74 1543.67,515.27 C1542.61,512.65 1546.39,511.98 1549.81,523.14 C1562.27,528.61 1560.08,519.92 1549.66,518.72 C1561.16,524.28 1564.91,533.42 1562.24,540.86 Z" fill="#d8d4ce"/>
<path d="M1551.50,548.37 C1553.18,539.81 1561.89,533.28 1575.92,534.52 C1565.37,529.76 1558.40,536.75 1573.28,538.62 C1582.82,529.98 1586.02,532.75 1583.54,534.64 C1585.94,536.05 1583.54,534.64 1584.98,538.67 C1588.09,538.55 1587.38,542.73 1574.52,542.09 C1564.20,552.98 1574.03,553.95 1579.16,543.59 C1569.10,553.44 1558.22,553.92 1551.50,548.37 Z" fill="#d8d4ce"/>
<path d="M1536.67,527.66 C1528.80,527.52 1521.63,520.80 1520.52,508.14 C1517.96,518.26 1525.26,523.36 1524.58,509.84 C1515.40,502.73 1517.36,499.44 1519.43,501.35 C1520.30,499.00 1519.43,501.35 1522.78,499.44 C1522.18,496.69 1526.01,496.67 1527.47,508.19 C1538.77,515.65 1538.09,506.76 1528.07,503.83 C1538.41,511.22 1540.55,520.81 1536.67,527.66 Z" fill="#d8d4ce"/>
</g>
<rect x="1732.5" y="364.5" width="375.0" height="351.0" rx="3" fill="#282420"/>
<clipPath id="cl9"><rect x="1732.5" y="364.5" width="375.0" height="351.0" rx="3"/></clipPath>
<g clip-path="url(#cl9)">
<path d="M1961.09,572.13 C1964.48,579.21 1961.70,588.61 1950.91,595.26 C1961.08,593.02 1962.36,584.23 1950.61,590.88 C1948.37,602.25 1944.56,601.97 1945.34,599.27 C1942.85,599.54 1945.34,599.27 1942.13,597.14 C1939.95,598.90 1938.22,595.50 1947.84,589.04 C1949.44,575.63 1941.82,580.21 1943.68,590.45 C1945.65,577.93 1953.25,571.73 1961.09,572.13 Z" fill="#d8d4ce"/>
<path d="M1947.44,545.51 C1950.10,552.02 1947.12,560.28 1937.12,565.65 C1946.33,564.19 1947.94,556.39 1937.09,561.72 C1934.49,571.77 1931.10,571.31 1931.94,568.94 C1929.69,569.05 1931.94,568.94 1929.18,566.87 C1927.14,568.33 1925.77,565.19 1934.71,559.93 C1936.85,548.03 1929.80,551.72 1930.92,560.97 C1933.34,549.89 1940.46,544.75 1947.44,545.51 Z" fill="#d8d4ce"/>
<path d="M1873.72,548.41 C1880.08,544.01 1889.66,545.24 1897.81,554.70 C1894.05,545.16 1885.29,545.29 1893.60,555.68 C1905.01,556.08 1905.33,559.82 1902.59,559.49 C1903.24,561.87 1902.59,559.49 1901.01,562.94 C1903.07,564.79 1900.03,567.01 1892.24,558.66 C1878.95,559.20 1884.60,565.89 1894.27,562.48 C1881.78,562.52 1874.56,556.10 1873.72,548.41 Z" fill="#d8d4ce"/>
</g>
<rect x="4.5" y="724.5" width="375.0" height="351.0" rx="3" fill="#282420"/>
<clipPath id="cl10"><rect x="4.5" y="724.5" width="375.0" height="351.0" rx="3"/></clipPath>
<g clip-path="url(#cl10)">
<path d="M174.59,910.67 C166.56,906.89 162.28,896.66 166.99,883.12 C159.67,892.35 164.84,900.97 170.38,886.75 C164.21,875.18 167.75,872.71 168.99,875.63 C170.99,873.61 168.99,875.63 173.33,875.20 C173.99,872.10 177.94,873.84 174.12,886.38 C182.30,899.27 185.71,889.82 176.75,882.17 C183.98,894.55 181.75,905.41 174.59,910.67 Z" fill="#d8d4ce"/>
<path d="M210.96,849.13 C217.42,852.90 220.26,861.81 215.31,872.83 C222.14,865.62 218.44,858.00 212.73,869.54 C217.06,879.71 213.90,881.52 213.08,878.98 C211.25,880.53 213.08,878.98 209.40,879.01 C208.62,881.57 205.43,879.82 209.56,869.57 C203.64,858.14 200.09,865.83 207.04,872.91 C201.89,861.98 204.56,853.02 210.96,849.13 Z" fill="#d8d4ce"/>
<path d="M190.24,857.16 C194.56,864.29 192.60,874.52 181.89,882.67 C192.41,879.25 192.84,869.82 181.12,878.08 C179.94,890.33 175.88,890.43 176.43,887.50 C173.82,888.04 176.43,887.50 172.81,885.57 C170.69,887.66 168.50,884.25 178.00,876.42 C178.29,862.08 170.72,867.71 173.76,878.35 C174.53,864.91 181.91,857.56 190.24,857.16 Z" fill="#d8d4ce"/>
</g>
<rect x="388.5" y="724.5" width="375.0" height="351.0" rx="3" fill="#282420"/>
<clipPath id="cl11"><rect x="388.5" y="724.5" width="375.0" height="351.0" rx="3"/></clipPath>
<g clip-path="url(#cl11)">
<path d="M577.52,942.16 C576.24,950.88 567.75,957.90 553.53,957.33 C564.41,961.62 571.12,954.23 556.00,953.06 C546.78,962.26 543.41,959.61 545.83,957.58 C543.33,956.27 545.83,957.58 544.17,953.58 C541.03,953.85 541.55,949.60 554.57,949.61 C564.47,938.12 554.50,937.61 549.81,948.33 C559.49,937.89 570.46,936.87 577.52,942.16 Z" fill="#d8d4ce"/>
<path d="M603.16,858.34 C594.09,858.83 585.28,851.69 582.95,837.22 C580.84,849.07 589.67,854.33 587.76,838.84 C576.61,831.41 578.59,827.47 581.13,829.49 C581.95,826.71 581.13,829.49 584.83,827.01 C583.92,823.90 588.32,823.55 590.96,836.70 C604.57,844.34 603.06,834.17 591.28,831.63 C603.79,839.27 607.05,850.13 603.16,858.34 Z" fill="#d8d4ce"/>
<path d="M531.45,890.98 C523.90,887.77 519.58,878.48 523.44,865.81 C517.02,874.59 522.09,882.37 526.70,869.04 C520.60,858.58 523.78,856.17 525.03,858.82 C526.80,856.89 525.03,858.82 529.02,858.28 C529.52,855.39 533.22,856.86 530.15,868.57 C538.16,880.18 540.97,871.33 532.42,864.59 C539.54,875.76 537.87,885.87 531.45,890.98 Z" fill="#d8d4ce"/>
</g>
<rect x="772.5" y="724.5" width="375.0" height="351.0" rx="3" fill="#282420"/>
<clipPath id="cl12"><rect x="772.5" y="724.5" width="375.0" height="351.0" rx="3"/></clipPath>
<g clip-path="url(#cl12)">
<path d="M969.71,879.86 C978.37,878.56 987.49,884.61 991.05,898.29 C991.99,886.71 983.03,882.47 986.28,897.18 C997.68,903.29 996.13,907.25 993.51,905.54 C992.98,908.29 993.51,905.54 990.18,908.26 C991.35,911.17 987.15,911.90 983.41,899.52 C969.63,893.43 972.02,903.06 983.56,904.42 C970.85,898.23 966.72,888.09 969.71,879.86 Z" fill="#d8d4ce"/>
<path d="M986.66,854.53 C992.61,850.15 1001.80,851.06 1009.84,859.87 C1005.98,850.86 997.63,851.22 1005.85,860.91 C1016.76,860.98 1017.17,864.55 1014.54,864.30 C1015.22,866.56 1014.54,864.30 1013.13,867.65 C1015.14,869.36 1012.30,871.56 1004.63,863.80 C991.96,864.68 997.53,870.92 1006.67,867.39 C994.75,867.78 987.68,861.85 986.66,854.53 Z" fill="#d8d4ce"/>
<path d="M975.68,909.72 C983.55,907.94 992.34,912.87 996.54,925.20 C996.62,914.50 988.10,911.21 992.08,924.50 C1002.97,929.34 1001.82,933.09 999.29,931.69 C998.99,934.25 999.29,931.69 996.42,934.42 C997.69,937.01 993.88,937.97 989.61,926.85 C976.54,922.19 979.38,930.87 990.08,931.34 C977.98,926.51 973.50,917.49 975.68,909.72 Z" fill="#d8d4ce"/>
</g>
<rect x="1156.5" y="724.5" width="375.0" height="351.0" rx="3" fill="#282420"/>
<clipPath id="cl13"><rect x="1156.5" y="724.5" width="375.0" height="351.0" rx="3"/></clipPath>
<g clip-path="url(#cl13)">
<path d="M1369.27,924.75 C1365.53,916.89 1368.65,906.49 1380.63,899.16 C1369.35,901.60 1367.91,911.34 1380.95,904.01 C1383.47,891.42 1387.69,891.74 1386.81,894.73 C1389.58,894.44 1386.81,894.73 1390.36,897.11 C1392.79,895.16 1394.69,898.94 1384.01,906.06 C1382.19,920.91 1390.65,915.87 1388.62,904.51 C1386.40,918.37 1377.96,925.22 1369.27,924.75 Z" fill="#d8d4ce"/>
<path d="M1384.24,856.68 C1381.13,865.11 1371.18,870.31 1357.13,866.73 C1367.07,873.31 1375.31,867.36 1360.49,863.00 C1349.36,870.21 1346.56,866.86 1349.40,865.36 C1347.19,863.52 1349.40,865.36 1348.60,861.02 C1345.41,860.63 1346.83,856.50 1359.80,859.26 C1372.09,849.90 1362.26,847.28 1355.33,856.97 C1367.18,848.62 1378.32,849.92 1384.24,856.68 Z" fill="#d8d4ce"/>
<path d="M1325.16,939.36 C1319.90,945.30 1310.06,946.41 1299.62,938.99 C1305.71,947.58 1314.40,945.30 1303.58,936.99 C1292.11,939.38 1290.88,935.73 1293.69,935.39 C1292.46,933.18 1293.69,935.39 1294.42,931.57 C1291.92,930.23 1294.40,927.28 1304.20,933.69 C1317.31,929.89 1310.05,924.61 1301.25,930.38 C1313.67,927.27 1322.44,931.90 1325.16,939.36 Z" fill="#d8d4ce"/>
</g>
<rect x="1540.5" y="724.5" width="375.0" height="351.0" rx="3" fill="#282420"/>
<clipPath id="cl14"><rect x="1540.5" y="724.5" width="375.0" height="351.0" rx="3"/></clipPath>
<g clip-path="url(#cl14)">
<path d="M1775.17,861.79 C1768.78,867.61 1757.99,867.64 1747.57,858.37 C1753.14,868.38 1762.82,866.95 1752.09,856.67 C1739.39,857.90 1738.49,853.80 1741.58,853.77 C1740.50,851.23 1741.58,853.77 1742.81,849.71 C1740.27,847.97 1743.31,845.07 1753.16,853.17 C1767.79,850.62 1760.56,844.03 1750.35,849.24 C1764.17,847.35 1773.11,853.40 1775.17,861.79 Z" fill="#d8d4ce"/>
<path d="M1766.61,861.61 C1764.97,854.51 1769.39,846.55 1780.52,842.71 C1770.85,842.67 1767.91,850.39 1779.91,846.74 C1784.24,836.88 1787.64,837.91 1786.38,840.19 C1788.70,840.45 1786.38,840.19 1788.86,842.78 C1791.20,841.62 1792.08,845.06 1782.04,848.97 C1777.88,860.80 1785.71,858.19 1786.10,848.52 C1781.78,859.48 1773.64,863.56 1766.61,861.61 Z" fill="#d8d4ce"/>
<path d="M1765.20,867.90 C1765.97,860.14 1773.19,853.60 1785.78,853.52 C1775.99,850.17 1770.37,856.98 1783.77,857.39 C1791.54,848.90 1794.63,851.10 1792.57,852.98 C1794.83,854.04 1792.57,852.98 1794.20,856.45 C1796.96,856.09 1796.67,859.87 1785.17,860.38 C1776.90,870.94 1785.73,870.99 1789.43,861.33 C1781.30,870.94 1771.65,872.28 1765.20,867.90 Z" fill="#d8d4ce"/>
</g>
</svg>