<svg xmlns="http://www.w3.org/2000/svg" width="1200" height="660" viewBox="0 0 1200 660">
<rect width="1200" height="660" fill="#e4d4c0"/>
<rect x="2.5" y="2.5" width="395.0" height="160.0" rx="3" fill="#5a3420"/>
<clipPath id="cl0"><rect x="2.5" y="2.5" width="395.0" height="160.0" rx="3"/></clipPath>
<g clip-path="url(#cl0)">
<path d="M197.60,82.50 C210.80,71.94 215.60,76.74 207.20,82.50 C215.60,88.26 210.80,93.06 197.60,82.50 L188.00,82.50 Z" fill="#e4d4c0"/>
<path d="M190.53,98.90 C193.08,115.61 186.52,117.37 185.73,107.21 C176.55,111.61 174.79,105.05 190.53,98.90 L195.33,90.58 Z" fill="#e4d4c0"/>
<path d="M179.87,47.63 C164.12,41.48 165.88,34.92 175.07,39.31 C175.85,29.16 182.41,30.92 179.87,47.63 L184.67,55.94 Z" fill="#e4d4c0"/>
<rect x="5.5" y="5.5" width="389.0" height="154.0" rx="2" fill="none" stroke="#e4d4c0" stroke-width="1" opacity="0.4"/>
<rect x="9.5" y="9.5" width="381.0" height="146.0" rx="1" fill="none" stroke="#e4d4c0" stroke-width="0.5" opacity="0.25"/>
</g>
<rect x="402.5" y="2.5" width="395.0" height="160.0" rx="3" fill="#5a3420"/>
<clipPath id="cl1"><rect x="402.5" y="2.5" width="395.0" height="160.0" rx="3"/></clipPath>
<g clip-path="url(#cl1)">
<path d="M597.89,81.35 C614.54,78.41 616.45,84.92 606.32,85.95 C610.93,95.03 604.42,96.95 597.89,81.35 L589.47,76.75 Z" fill="#e4d4c0"/>
<path d="M583.83,92.35 C578.05,108.24 571.46,106.64 575.63,97.35 C565.46,96.80 567.06,90.20 583.83,92.35 L592.03,87.36 Z" fill="#e4d4c0"/>
<path d="M599.05,42.24 C588.18,29.30 592.87,24.39 598.82,32.65 C604.38,24.11 609.30,28.80 599.05,42.24 L599.28,51.84 Z" fill="#e4d4c0"/>
<rect x="405.5" y="5.5" width="389.0" height="154.0" rx="2" fill="none" stroke="#e4d4c0" stroke-width="1" opacity="0.4"/>
<rect x="409.5" y="9.5" width="381.0" height="146.0" rx="1" fill="none" stroke="#e4d4c0" stroke-width="0.5" opacity="0.25"/>
</g>
<rect x="802.5" y="2.5" width="395.0" height="160.0" rx="3" fill="#5a3420"/>
<clipPath id="cl2"><rect x="802.5" y="2.5" width="395.0" height="160.0" rx="3"/></clipPath>
<g clip-path="url(#cl2)">
<path d="M998.70,80.48 C1014.72,85.88 1013.28,92.51 1003.89,88.56 C1003.58,98.74 996.95,97.29 998.70,80.48 L993.52,72.40 Z" fill="#e4d4c0"/>
<path d="M981.09,83.39 C968.40,94.56 963.38,90.00 971.50,83.85 C962.84,78.49 967.40,73.47 981.09,83.39 L990.68,82.94 Z" fill="#e4d4c0"/>
<path d="M1018.47,46.72 C1015.13,30.14 1021.60,28.08 1022.87,38.19 C1031.84,33.36 1033.90,39.83 1018.47,46.72 L1014.06,55.25 Z" fill="#e4d4c0"/>
<rect x="805.5" y="5.5" width="389.0" height="154.0" rx="2" fill="none" stroke="#e4d4c0" stroke-width="1" opacity="0.4"/>
<rect x="809.5" y="9.5" width="381.0" height="146.0" rx="1" fill="none" stroke="#e4d4c0" stroke-width="0.5" opacity="0.25"/>
</g>
<rect x="202.5" y="167.5" width="395.0" height="160.0" rx="3" fill="#5a3420"/>
<clipPath id="cl3"><rect x="202.5" y="167.5" width="395.0" height="160.0" rx="3"/></clipPath>
<g clip-path="url(#cl3)">
<path d="M399.83,245.11 C411.30,257.53 406.85,262.65 400.51,254.68 C395.36,263.47 390.23,259.02 399.83,245.11 L399.15,235.53 Z" fill="#e4d4c0"/>
<path d="M382.97,239.22 C366.49,242.94 364.27,236.52 374.34,235.02 C369.31,226.16 375.72,223.95 382.97,239.22 L391.61,243.42 Z" fill="#e4d4c0"/>
<path d="M433.36,224.95 C438.38,208.81 445.05,210.10 441.31,219.57 C451.50,219.64 450.21,226.31 433.36,224.95 L425.41,230.33 Z" fill="#e4d4c0"/>
<rect x="205.5" y="170.5" width="389.0" height="154.0" rx="2" fill="none" stroke="#e4d4c0" stroke-width="1" opacity="0.4"/>
<rect x="209.5" y="174.5" width="381.0" height="146.0" rx="1" fill="none" stroke="#e4d4c0" stroke-width="0.5" opacity="0.25"/>
</g>
<rect x="602.5" y="167.5" width="395.0" height="160.0" rx="3" fill="#5a3420"/>
<clipPath id="cl4"><rect x="602.5" y="167.5" width="395.0" height="160.0" rx="3"/></clipPath>
<g clip-path="url(#cl4)">
<path d="M801.00,245.32 C805.11,261.71 798.75,264.08 797.00,254.05 C788.27,259.29 785.90,252.93 801.00,245.32 L804.99,236.59 Z" fill="#e4d4c0"/>
<path d="M789.03,232.07 C772.78,227.43 773.91,220.74 783.47,224.24 C783.30,214.06 789.99,215.19 789.03,232.07 L794.59,239.89 Z" fill="#e4d4c0"/>
<path d="M840.09,243.70 C852.23,231.95 857.46,236.27 849.64,242.80 C858.55,247.74 854.22,252.97 840.09,243.70 L830.53,244.61 Z" fill="#e4d4c0"/>
<rect x="605.5" y="170.5" width="389.0" height="154.0" rx="2" fill="none" stroke="#e4d4c0" stroke-width="1" opacity="0.4"/>
<rect x="609.5" y="174.5" width="381.0" height="146.0" rx="1" fill="none" stroke="#e4d4c0" stroke-width="0.5" opacity="0.25"/>
</g>
<rect x="1002.5" y="167.5" width="395.0" height="160.0" rx="3" fill="#5a3420"/>
<clipPath id="cl5"><rect x="1002.5" y="167.5" width="395.0" height="160.0" rx="3"/></clipPath>
<g clip-path="url(#cl5)">
<path d="M1201.92,246.06 C1197.67,262.42 1190.95,261.45 1194.23,251.81 C1184.05,252.22 1185.03,245.50 1201.92,246.06 L1209.61,240.32 Z" fill="#e4d4c0"/>
<path d="M1197.77,228.70 C1185.73,216.83 1189.93,211.50 1196.64,219.17 C1201.37,210.15 1206.70,214.35 1197.77,228.70 L1198.90,238.23 Z" fill="#e4d4c0"/>
<path d="M1237.00,263.39 C1253.30,258.89 1255.81,265.20 1245.82,267.18 C1251.27,275.78 1244.96,278.30 1237.00,263.39 L1228.18,259.60 Z" fill="#e4d4c0"/>
<rect x="1005.5" y="170.5" width="389.0" height="154.0" rx="2" fill="none" stroke="#e4d4c0" stroke-width="1" opacity="0.4"/>
<rect x="1009.5" y="174.5" width="381.0" height="146.0" rx="1" fill="none" stroke="#e4d4c0" stroke-width="0.5" opacity="0.25"/>
</g>
<rect x="2.5" y="332.5" width="395.0" height="160.0" rx="3" fill="#5a3420"/>
<clipPath id="cl6"><rect x="2.5" y="332.5" width="395.0" height="160.0" rx="3"/></clipPath>
<g clip-path="url(#cl6)">
<path d="M202.38,412.16 C190.80,424.48 185.37,420.40 192.87,413.52 C183.74,409.00 187.82,403.57 202.38,412.16 L211.88,410.81 Z" fill="#e4d4c0"/>
<path d="M207.06,394.93 C202.18,378.75 208.42,376.08 210.64,386.02 C219.11,380.38 221.78,386.62 207.06,394.93 L203.48,403.84 Z" fill="#e4d4c0"/>
<path d="M224.85,444.18 C241.31,448.05 240.49,454.79 230.78,451.74 C231.43,461.90 224.69,461.09 224.85,444.18 L218.93,436.63 Z" fill="#e4d4c0"/>
<rect x="5.5" y="335.5" width="389.0" height="154.0" rx="2" fill="none" stroke="#e4d4c0" stroke-width="1" opacity="0.4"/>
<rect x="9.5" y="339.5" width="381.0" height="146.0" rx="1" fill="none" stroke="#e4d4c0" stroke-width="0.5" opacity="0.25"/>
</g>
<rect x="402.5" y="332.5" width="395.0" height="160.0" rx="3" fill="#5a3420"/>
<clipPath id="cl7"><rect x="402.5" y="332.5" width="395.0" height="160.0" rx="3"/></clipPath>
<g clip-path="url(#cl7)">
<path d="M602.25,413.34 C586.18,418.60 583.37,412.42 593.26,409.97 C587.41,401.63 593.59,398.82 602.25,413.34 L611.24,416.71 Z" fill="#e4d4c0"/>
<path d="M614.62,400.47 C618.10,383.92 624.85,384.58 622.03,394.36 C632.17,393.47 631.52,400.23 614.62,400.47 L607.21,406.57 Z" fill="#e4d4c0"/>
<path d="M606.62,452.22 C619.21,463.50 615.26,469.03 608.20,461.69 C603.90,470.92 598.38,466.98 606.62,452.22 L605.04,442.75 Z" fill="#e4d4c0"/>
<rect x="405.5" y="335.5" width="389.0" height="154.0" rx="2" fill="none" stroke="#e4d4c0" stroke-width="1" opacity="0.4"/>
<rect x="409.5" y="339.5" width="381.0" height="146.0" rx="1" fill="none" stroke="#e4d4c0" stroke-width="0.5" opacity="0.25"/>
</g>
<rect x="802.5" y="332.5" width="395.0" height="160.0" rx="3" fill="#5a3420"/>
<clipPath id="cl8"><rect x="802.5" y="332.5" width="395.0" height="160.0" rx="3"/></clipPath>
<g clip-path="url(#cl8)">
<path d="M1001.57,414.32 C984.95,411.23 985.44,404.46 995.29,407.05 C994.16,396.93 1000.93,397.42 1001.57,414.32 L1007.84,421.58 Z" fill="#e4d4c0"/>
<path d="M1018.60,408.95 C1029.58,396.10 1035.20,399.91 1028.03,407.15 C1037.36,411.23 1033.54,416.84 1018.60,408.95 L1009.17,410.75 Z" fill="#e4d4c0"/>
<path d="M986.77,450.53 C992.41,466.47 986.29,469.42 983.61,459.60 C975.41,465.64 972.46,459.53 986.77,450.53 L989.92,441.46 Z" fill="#e4d4c0"/>
<rect x="805.5" y="335.5" width="389.0" height="154.0" rx="2" fill="none" stroke="#e4d4c0" stroke-width="1" opacity="0.4"/>
<rect x="809.5" y="339.5" width="381.0" height="146.0" rx="1" fill="none" stroke="#e4d4c0" stroke-width="0.5" opacity="0.25"/>
</g>
<rect x="202.5" y="497.5" width="395.0" height="160.0" rx="3" fill="#5a3420"/>
<clipPath id="cl9"><rect x="202.5" y="497.5" width="395.0" height="160.0" rx="3"/></clipPath>
<g clip-path="url(#cl9)">
<path d="M400.51,579.85 C387.40,569.17 391.08,563.46 398.48,570.46 C402.34,561.04 408.05,564.72 400.51,579.85 L402.53,589.23 Z" fill="#e4d4c0"/>
<path d="M418.02,583.30 C433.82,577.29 436.92,583.33 427.16,586.24 C433.40,594.29 427.36,597.39 418.02,583.30 L408.88,580.36 Z" fill="#e4d4c0"/>
<path d="M370.16,604.53 C367.46,621.22 360.68,620.88 363.04,610.98 C352.95,612.35 353.28,605.57 370.16,604.53 L377.27,598.09 Z" fill="#e4d4c0"/>
<rect x="205.5" y="500.5" width="389.0" height="154.0" rx="2" fill="none" stroke="#e4d4c0" stroke-width="1" opacity="0.4"/>
<rect x="209.5" y="504.5" width="381.0" height="146.0" rx="1" fill="none" stroke="#e4d4c0" stroke-width="0.5" opacity="0.25"/>
</g>
<rect x="602.5" y="497.5" width="395.0" height="160.0" rx="3" fill="#5a3420"/>
<clipPath id="cl10"><rect x="602.5" y="497.5" width="395.0" height="160.0" rx="3"/></clipPath>
<g clip-path="url(#cl10)">
<path d="M799.32,579.80 C792.94,564.15 798.90,560.91 802.04,570.60 C809.95,564.17 813.19,570.14 799.32,579.80 L796.60,589.01 Z" fill="#e4d4c0"/>
<path d="M813.04,591.23 C829.78,593.53 829.61,600.31 819.65,598.19 C821.26,608.25 814.47,608.07 813.04,591.23 L806.43,584.27 Z" fill="#e4d4c0"/>
<path d="M760.85,586.91 C750.48,600.27 744.69,596.72 751.52,589.16 C742.00,585.52 745.55,579.73 760.85,586.91 L770.18,584.67 Z" fill="#e4d4c0"/>
<rect x="605.5" y="500.5" width="389.0" height="154.0" rx="2" fill="none" stroke="#e4d4c0" stroke-width="1" opacity="0.4"/>
<rect x="609.5" y="504.5" width="381.0" height="146.0" rx="1" fill="none" stroke="#e4d4c0" stroke-width="0.5" opacity="0.25"/>
</g>
<rect x="1002.5" y="497.5" width="395.0" height="160.0" rx="3" fill="#5a3420"/>
<clipPath id="cl11"><rect x="1002.5" y="497.5" width="395.0" height="160.0" rx="3"/></clipPath>
<g clip-path="url(#cl11)">
<path d="M1198.30,579.19 C1200.20,562.40 1206.99,562.41 1205.10,572.42 C1215.12,570.58 1215.10,577.36 1198.30,579.19 L1191.50,585.97 Z" fill="#e4d4c0"/>
<path d="M1204.86,595.80 C1218.45,605.85 1215.05,611.72 1207.32,605.08 C1203.91,614.67 1198.04,611.27 1204.86,595.80 L1202.40,586.52 Z" fill="#e4d4c0"/>
<path d="M1161.13,566.99 C1145.63,573.74 1142.25,567.86 1151.86,564.49 C1145.26,556.73 1151.14,553.35 1161.13,566.99 L1170.40,569.50 Z" fill="#e4d4c0"/>
<rect x="1005.5" y="500.5" width="389.0" height="154.0" rx="2" fill="none" stroke="#e4d4c0" stroke-width="1" opacity="0.4"/>
<rect x="1009.5" y="504.5" width="381.0" height="146.0" rx="1" fill="none" stroke="#e4d4c0" stroke-width="0.5" opacity="0.25"/>
</g>
</svg>