<svg xmlns="http://www.w3.org/2000/svg" width="1200" height="660" viewBox="0 0 1200 660">
<rect width="1200" height="660" fill="#dde0d8"/>
<rect x="4.0" y="4.0" width="232.0" height="212.0" rx="3" fill="#3a5040"/>
<clipPath id="cl0"><rect x="4.0" y="4.0" width="232.0" height="212.0" rx="3"/></clipPath>
<g clip-path="url(#cl0)">
<path d="M98.34,96.12 L99.44,87.75L92.14,83.51 L100.44,81.98L102.21,73.72 L106.24,81.15L114.64,80.28 L108.82,86.40L112.24,94.12 L104.62,90.48 Z" fill="#dde0d8"/>
<path d="M115.63,92.61 L110.53,86.38L102.82,88.69 L107.18,81.92L102.60,75.31 L110.38,77.36L115.26,70.95 L115.71,78.99L123.31,81.65 L115.81,84.57 Z" fill="#dde0d8"/>
<path d="M133.57,131.25 L142.66,134.00L148.69,126.67 L148.88,136.16L157.72,139.63 L148.75,142.74L148.18,152.22 L142.45,144.65L133.25,147.04 L138.68,139.25 Z" fill="#dde0d8"/>
</g>
<rect x="244.0" y="4.0" width="232.0" height="212.0" rx="3" fill="#3a5040"/>
<clipPath id="cl1"><rect x="244.0" y="4.0" width="232.0" height="212.0" rx="3"/></clipPath>
<g clip-path="url(#cl1)">
<path d="M364.95,110.59 L356.68,111.95L354.77,120.10 L350.92,112.66L342.58,113.36 L348.47,107.40L345.22,99.68 L352.71,103.44L359.05,97.97 L357.79,106.25 Z" fill="#dde0d8"/>
<path d="M344.30,74.20 L353.74,77.16L360.10,69.58 L360.19,79.47L369.37,83.18 L359.99,86.33L359.30,96.20 L353.41,88.25L343.81,90.65 L349.54,82.59 Z" fill="#dde0d8"/>
<path d="M371.91,95.96 L363.07,98.98L362.48,108.31 L356.87,100.83L347.82,103.15 L353.19,95.51L348.20,87.61 L357.12,90.36L363.08,83.17 L363.23,92.51 Z" fill="#dde0d8"/>
</g>
<rect x="484.0" y="4.0" width="232.0" height="212.0" rx="3" fill="#3a5040"/>
<clipPath id="cl2"><rect x="484.0" y="4.0" width="232.0" height="212.0" rx="3"/></clipPath>
<g clip-path="url(#cl2)">
<path d="M601.50,119.44 L605.17,126.89L613.46,126.36 L607.50,132.15L610.57,139.87 L603.22,136.00L596.83,141.30 L598.24,133.11L591.22,128.67 L599.44,127.48 Z" fill="#dde0d8"/>
<path d="M610.02,84.54 L602.39,86.71L601.46,94.59 L597.04,88.00L589.26,89.56 L594.16,83.32L590.27,76.40 L597.72,79.13L603.11,73.29 L602.81,81.23 Z" fill="#dde0d8"/>
<path d="M562.39,118.62 L567.70,111.12L562.82,103.34 L571.58,106.08L577.48,99.03 L577.58,108.22L586.10,111.64 L577.40,114.58L576.78,123.75 L571.29,116.38 Z" fill="#dde0d8"/>
</g>
<rect x="724.0" y="4.0" width="232.0" height="212.0" rx="3" fill="#3a5040"/>
<clipPath id="cl3"><rect x="724.0" y="4.0" width="232.0" height="212.0" rx="3"/></clipPath>
<g clip-path="url(#cl3)">
<path d="M841.37,99.07 L847.39,93.44L844.50,85.73 L851.71,89.71L858.16,84.58 L856.59,92.67L863.47,97.22 L855.29,98.23L853.09,106.17 L849.60,98.71 Z" fill="#dde0d8"/>
<path d="M830.16,91.28 L836.55,83.88L832.17,75.14 L841.18,78.93L848.15,72.06 L847.32,81.81L856.01,86.30 L846.49,88.53L844.89,98.18 L839.83,89.82 Z" fill="#dde0d8"/>
<path d="M856.82,114.90 L856.89,123.93L865.26,127.33 L856.69,130.18L856.04,139.19 L850.68,131.92L841.91,134.09 L847.17,126.74L842.40,119.08 L851.01,121.80 Z" fill="#dde0d8"/>
</g>
<rect x="964.0" y="4.0" width="232.0" height="212.0" rx="3" fill="#3a5040"/>
<clipPath id="cl4"><rect x="964.0" y="4.0" width="232.0" height="212.0" rx="3"/></clipPath>
<g clip-path="url(#cl4)">
<path d="M1108.90,126.24 L1101.83,122.15L1095.34,127.11 L1097.04,119.12L1090.32,114.48 L1098.44,113.63L1100.78,105.81 L1104.09,113.27L1112.26,113.07 L1106.19,118.53 Z" fill="#dde0d8"/>
<path d="M1090.89,75.71 L1089.87,83.47L1096.64,87.39 L1088.94,88.82L1087.31,96.47 L1083.57,89.59L1075.79,90.40 L1081.18,84.73L1078.00,77.57 L1085.07,80.94 Z" fill="#dde0d8"/>
<path d="M1070.35,95.27 L1065.11,88.11L1056.48,90.20 L1061.67,83.00L1057.02,75.45 L1065.47,78.16L1071.21,71.40 L1071.24,80.27L1079.45,83.65 L1071.02,86.42 Z" fill="#dde0d8"/>
</g>
<rect x="4.0" y="224.0" width="232.0" height="212.0" rx="3" fill="#3a5040"/>
<clipPath id="cl5"><rect x="4.0" y="224.0" width="232.0" height="212.0" rx="3"/></clipPath>
<g clip-path="url(#cl5)">
<path d="M93.44,317.08 L102.68,315.59L104.85,306.49 L109.12,314.81L118.45,314.06 L111.85,320.70L115.44,329.34 L107.10,325.11L99.99,331.20 L101.43,321.95 Z" fill="#dde0d8"/>
<path d="M119.83,319.75 L124.01,326.98L132.30,325.89 L126.71,332.10L130.30,339.64 L122.67,336.25L116.61,342.00 L117.48,333.69L110.14,329.70 L118.31,327.96 Z" fill="#dde0d8"/>
<path d="M117.75,335.79 L125.81,330.62L124.12,321.20 L131.53,327.27L139.97,322.75 L136.49,331.67L143.39,338.30 L133.83,337.75L129.66,346.36 L127.23,337.10 Z" fill="#dde0d8"/>
</g>
<rect x="244.0" y="224.0" width="232.0" height="212.0" rx="3" fill="#3a5040"/>
<clipPath id="cl6"><rect x="244.0" y="224.0" width="232.0" height="212.0" rx="3"/></clipPath>
<g clip-path="url(#cl6)">
<path d="M357.15,355.50 L353.08,347.15L343.81,347.71 L350.49,341.26L347.09,332.61 L355.29,336.97L362.46,331.07 L360.85,340.22L368.68,345.21 L359.48,346.51 Z" fill="#dde0d8"/>
<path d="M375.14,342.85 L366.03,338.28L358.31,344.94 L359.84,334.86L351.12,329.58 L361.18,327.92L363.51,317.99 L368.20,327.05L378.36,326.20 L371.19,333.45 Z" fill="#dde0d8"/>
<path d="M354.27,338.59 L350.82,347.35L357.58,353.90 L348.18,353.32L344.04,361.77 L341.69,352.66L332.37,351.33 L340.31,346.28L338.69,337.00 L345.95,343.00 Z" fill="#dde0d8"/>
</g>
<rect x="484.0" y="224.0" width="232.0" height="212.0" rx="3" fill="#3a5040"/>
<clipPath id="cl7"><rect x="484.0" y="224.0" width="232.0" height="212.0" rx="3"/></clipPath>
<g clip-path="url(#cl7)">
<path d="M617.28,300.83 L610.53,307.11L613.73,315.75 L605.68,311.27L598.45,316.98 L600.22,307.94L592.55,302.83 L601.70,301.72L604.19,292.85 L608.07,301.21 Z" fill="#dde0d8"/>
<path d="M597.40,330.48 L605.59,329.53L607.85,321.60 L611.29,329.09L619.52,328.79 L613.46,334.37L616.29,342.12 L609.11,338.08L602.62,343.16 L604.24,335.08 Z" fill="#dde0d8"/>
<path d="M623.39,317.83 L621.11,308.85L611.95,307.51 L619.78,302.57L618.22,293.45 L625.34,299.37L633.54,295.07 L630.11,303.67L636.73,310.13 L627.49,309.53 Z" fill="#dde0d8"/>
</g>
<rect x="724.0" y="224.0" width="232.0" height="212.0" rx="3" fill="#3a5040"/>
<clipPath id="cl8"><rect x="724.0" y="224.0" width="232.0" height="212.0" rx="3"/></clipPath>
<g clip-path="url(#cl8)">
<path d="M846.41,318.64 L854.31,323.25L861.60,317.72 L859.66,326.66L867.18,331.88 L858.07,332.80L855.43,341.56 L851.74,333.19L842.59,333.38 L849.42,327.28 Z" fill="#dde0d8"/>
<path d="M865.63,329.34 L857.90,335.82L860.91,345.44 L852.36,340.09L844.14,345.93 L846.59,336.15L838.49,330.14 L848.55,329.44L851.77,319.88 L855.54,329.23 Z" fill="#dde0d8"/>
<path d="M832.79,309.25 L839.77,315.10L847.85,310.90 L844.44,319.34L850.92,325.73 L841.84,325.10L837.77,333.24 L835.57,324.41L826.57,323.05 L834.29,318.23 Z" fill="#dde0d8"/>
</g>
<rect x="964.0" y="224.0" width="232.0" height="212.0" rx="3" fill="#3a5040"/>
<clipPath id="cl9"><rect x="964.0" y="224.0" width="232.0" height="212.0" rx="3"/></clipPath>
<g clip-path="url(#cl9)">
<path d="M1096.92,362.12 L1099.02,353.29L1091.67,347.96 L1100.72,347.23L1103.51,338.58 L1107.01,346.97L1116.09,346.95 L1109.20,352.87L1112.02,361.50 L1104.26,356.77 Z" fill="#dde0d8"/>
<path d="M1088.71,344.25 L1091.05,336.46L1084.76,331.31 L1092.89,331.14L1095.84,323.56 L1098.52,331.24L1106.64,331.70 L1100.17,336.62L1102.24,344.49 L1095.55,339.86 Z" fill="#dde0d8"/>
<path d="M1065.12,341.32 L1056.19,340.66L1052.16,348.65 L1050.03,339.96L1041.19,338.60 L1048.80,333.89L1047.36,325.05 L1054.19,330.83L1062.15,326.74 L1058.77,335.02 Z" fill="#dde0d8"/>
</g>
<rect x="4.0" y="444.0" width="232.0" height="212.0" rx="3" fill="#3a5040"/>
<clipPath id="cl10"><rect x="4.0" y="444.0" width="232.0" height="212.0" rx="3"/></clipPath>
<g clip-path="url(#cl10)">
<path d="M107.55,539.25 L112.03,548.49L122.28,547.91 L114.87,555.02L118.60,564.59 L109.55,559.74L101.60,566.24 L103.41,556.13L94.77,550.58 L104.94,549.18 Z" fill="#dde0d8"/>
<path d="M131.87,533.84 L128.79,525.75L120.13,525.49 L126.88,520.06L124.46,511.75 L131.70,516.49L138.86,511.61 L136.59,519.97L143.44,525.27 L134.79,525.69 Z" fill="#dde0d8"/>
<path d="M111.26,538.45 L112.56,528.89L104.23,524.03 L113.72,522.31L115.77,512.89 L120.34,521.38L129.94,520.42 L123.27,527.39L127.15,536.22 L118.46,532.03 Z" fill="#dde0d8"/>
</g>
<rect x="244.0" y="444.0" width="232.0" height="212.0" rx="3" fill="#3a5040"/>
<clipPath id="cl11"><rect x="244.0" y="444.0" width="232.0" height="212.0" rx="3"/></clipPath>
<g clip-path="url(#cl11)">
<path d="M345.02,582.01 L352.51,575.09L349.00,565.51 L357.90,570.51L365.92,564.20 L363.92,574.21L372.39,579.89 L362.26,581.08L359.48,590.89 L355.21,581.63 Z" fill="#dde0d8"/>
<path d="M366.92,510.16 L375.43,516.32L384.38,510.82 L381.16,520.82L389.15,527.63 L378.65,527.65L374.64,537.36 L371.38,527.38L360.90,526.56 L369.39,520.37 Z" fill="#dde0d8"/>
<path d="M330.27,528.74 L334.73,537.11L344.18,536.20 L337.59,543.03L341.37,551.74 L332.84,547.58L325.73,553.87 L327.05,544.47L318.87,539.65 L328.22,538.00 Z" fill="#dde0d8"/>
</g>
<rect x="484.0" y="444.0" width="232.0" height="212.0" rx="3" fill="#3a5040"/>
<clipPath id="cl12"><rect x="484.0" y="444.0" width="232.0" height="212.0" rx="3"/></clipPath>
<g clip-path="url(#cl12)">
<path d="M616.84,551.02 L608.11,545.89L600.02,551.99 L602.20,542.10L593.90,536.29 L603.98,535.31L606.94,525.62 L610.99,534.90L621.12,534.72 L613.54,541.45 Z" fill="#dde0d8"/>
<path d="M629.80,528.12 L621.26,527.74L617.63,535.47 L615.36,527.24L606.87,526.18 L614.01,521.47L612.39,513.07 L619.08,518.40L626.56,514.27 L623.56,522.28 Z" fill="#dde0d8"/>
<path d="M620.56,567.25 L612.18,563.13L605.17,569.29 L606.50,560.05L598.47,555.28 L607.67,553.69L609.73,544.59 L614.08,552.84L623.38,551.99 L616.87,558.68 Z" fill="#dde0d8"/>
</g>
<rect x="724.0" y="444.0" width="232.0" height="212.0" rx="3" fill="#3a5040"/>
<clipPath id="cl13"><rect x="724.0" y="444.0" width="232.0" height="212.0" rx="3"/></clipPath>
<g clip-path="url(#cl13)">
<path d="M865.09,550.89 L862.73,560.67L870.86,566.60 L860.83,567.38L857.71,576.95 L853.86,567.65L843.80,567.63 L851.46,561.10L848.36,551.52 L856.94,556.79 Z" fill="#dde0d8"/>
<path d="M847.64,527.01 L856.57,521.70L855.09,511.41 L862.91,518.27L872.23,513.68 L868.13,523.23L875.37,530.68 L865.02,529.73L860.17,538.92 L857.88,528.78 Z" fill="#dde0d8"/>
<path d="M813.12,570.90 L822.17,569.38L824.23,560.43 L828.47,568.57L837.62,567.77 L831.19,574.32L834.78,582.77 L826.56,578.68L819.64,584.71 L820.98,575.63 Z" fill="#dde0d8"/>
</g>
<rect x="964.0" y="444.0" width="232.0" height="212.0" rx="3" fill="#3a5040"/>
<clipPath id="cl14"><rect x="964.0" y="444.0" width="232.0" height="212.0" rx="3"/></clipPath>
<g clip-path="url(#cl14)">
<path d="M1093.04,522.02 L1103.02,521.44L1106.31,512.01 L1109.94,521.32L1119.93,521.53 L1112.20,527.86L1115.09,537.43 L1106.67,532.04L1098.47,537.74 L1101.00,528.07 Z" fill="#dde0d8"/>
<path d="M1114.17,517.00 L1110.48,524.58L1116.07,530.90 L1107.71,529.74L1103.43,537.00 L1101.96,528.70L1093.72,526.87 L1101.17,522.90L1100.36,514.51 L1106.44,520.36 Z" fill="#dde0d8"/>
<path d="M1116.81,524.18 L1110.47,530.60L1113.97,538.92 L1105.91,534.87L1099.08,540.77 L1100.43,531.85L1092.72,527.17 L1101.62,525.71L1103.68,516.93 L1107.82,524.94 Z" fill="#dde0d8"/>
</g>
</svg>