<svg xmlns="http://www.w3.org/2000/svg" width="1200" height="660" viewBox="0 0 1200 660">
<rect width="1200" height="660" fill="#d8d4ce"/>
<rect x="4.5" y="4.5" width="231.0" height="211.0" rx="3" fill="#282420"/>
<clipPath id="cl0"><rect x="4.5" y="4.5" width="231.0" height="211.0" rx="3"/></clipPath>
<g clip-path="url(#cl0)">
<path d="M33.96,110.00 C31.07,122.08 24.71,123.73 17.48,119.33 C13.15,122.08 3.90,115.49 3.90,111.65 C-2.75,114.39 0.14,110.00 -2.75,105.61 C3.90,108.35 3.90,104.51 13.15,97.92 C17.48,100.67 24.71,96.27 31.07,97.92 33.96,110.00 Z" fill="#d8d4ce"/>
<path d="M218.76,110.00 C215.87,122.08 209.51,123.73 202.28,119.33 C197.95,122.08 188.70,115.49 188.70,111.65 C182.06,114.39 184.94,110.00 182.06,105.61 C188.70,108.35 188.70,104.51 197.95,97.92 C202.28,100.67 209.51,96.27 215.87,97.92 218.76,110.00 Z" fill="#d8d4ce"/>
</g>
<rect x="244.5" y="4.5" width="231.0" height="211.0" rx="3" fill="#282420"/>
<clipPath id="cl1"><rect x="244.5" y="4.5" width="231.0" height="211.0" rx="3"/></clipPath>
<g clip-path="url(#cl1)">
<path d="M273.96,140.35 C271.07,152.43 264.71,154.08 257.49,149.68 C253.15,152.43 243.90,145.84 243.90,141.99 C237.26,144.74 240.15,140.35 237.26,135.95 C243.90,138.70 243.90,134.86 253.15,128.27 C257.49,131.01 264.71,126.62 271.07,128.27 273.96,140.35 Z" fill="#d8d4ce"/>
<path d="M458.76,79.65 C455.87,91.73 449.51,93.38 442.28,88.99 C437.95,91.73 428.70,85.14 428.70,81.30 C422.05,84.05 424.94,79.65 422.05,75.26 C428.70,78.01 428.70,74.16 437.95,67.57 C442.28,70.32 449.51,65.92 455.87,67.57 458.76,79.65 Z" fill="#d8d4ce"/>
</g>
<rect x="484.5" y="4.5" width="231.0" height="211.0" rx="3" fill="#282420"/>
<clipPath id="cl2"><rect x="484.5" y="4.5" width="231.0" height="211.0" rx="3"/></clipPath>
<g clip-path="url(#cl2)">
<path d="M513.96,163.27 C511.07,175.35 504.71,176.99 497.49,172.60 C493.15,175.35 483.90,168.76 483.90,164.91 C477.25,167.66 480.15,163.27 477.25,158.87 C483.90,161.62 483.90,157.77 493.15,151.18 C497.49,153.93 504.71,149.54 511.07,151.18 513.96,163.27 Z" fill="#d8d4ce"/>
<path d="M698.76,56.73 C695.87,68.82 689.51,70.46 682.28,66.07 C677.95,68.82 668.70,62.23 668.70,58.38 C662.05,61.13 664.94,56.73 662.05,52.34 C668.70,55.09 668.70,51.24 677.95,44.65 C682.28,47.40 689.51,43.01 695.87,44.65 698.76,56.73 Z" fill="#d8d4ce"/>
</g>
<rect x="724.5" y="4.5" width="231.0" height="211.0" rx="3" fill="#282420"/>
<clipPath id="cl3"><rect x="724.5" y="4.5" width="231.0" height="211.0" rx="3"/></clipPath>
<g clip-path="url(#cl3)">
<path d="M753.96,173.14 C751.07,185.22 744.71,186.87 737.49,182.48 C733.15,185.22 723.90,178.63 723.90,174.79 C717.25,177.53 720.14,173.14 717.25,168.75 C723.90,171.49 723.90,167.65 733.15,161.06 C737.49,163.81 744.71,159.41 751.07,161.06 753.96,173.14 Z" fill="#d8d4ce"/>
<path d="M938.76,46.86 C935.87,58.94 929.51,60.59 922.28,56.19 C917.95,58.94 908.70,52.35 908.70,48.51 C902.05,51.25 904.94,46.86 902.05,42.47 C908.70,45.21 908.70,41.37 917.95,34.78 C922.28,37.52 929.51,33.13 935.87,34.78 938.76,46.86 Z" fill="#d8d4ce"/>
</g>
<rect x="964.5" y="4.5" width="231.0" height="211.0" rx="3" fill="#282420"/>
<clipPath id="cl4"><rect x="964.5" y="4.5" width="231.0" height="211.0" rx="3"/></clipPath>
<g clip-path="url(#cl4)">
<path d="M993.96,167.56 C991.07,179.64 984.71,181.29 977.49,176.89 C973.15,179.64 963.90,173.05 963.90,169.21 C957.25,171.95 960.14,167.56 957.25,163.17 C963.90,165.91 963.90,162.07 973.15,155.48 C977.49,158.22 984.71,153.83 991.07,155.48 993.96,167.56 Z" fill="#d8d4ce"/>
<path d="M1178.76,52.44 C1175.87,64.52 1169.51,66.17 1162.29,61.78 C1157.95,64.52 1148.70,57.93 1148.70,54.09 C1142.06,56.83 1144.95,52.44 1142.06,48.05 C1148.70,50.79 1148.70,46.95 1157.95,40.36 C1162.29,43.11 1169.51,38.71 1175.87,40.36 1178.76,52.44 Z" fill="#d8d4ce"/>
</g>
<rect x="4.5" y="224.5" width="231.0" height="211.0" rx="3" fill="#282420"/>
<clipPath id="cl5"><rect x="4.5" y="224.5" width="231.0" height="211.0" rx="3"/></clipPath>
<g clip-path="url(#cl5)">
<path d="M33.96,367.88 C31.07,379.96 24.71,381.61 17.48,377.22 C13.15,379.96 3.90,373.37 3.90,369.53 C-2.75,372.28 0.14,367.88 -2.75,363.49 C3.90,366.24 3.90,362.39 13.15,355.80 C17.48,358.55 24.71,354.16 31.07,355.80 33.96,367.88 Z" fill="#d8d4ce"/>
<path d="M218.76,292.12 C215.87,304.20 209.51,305.84 202.28,301.45 C197.95,304.20 188.70,297.61 188.70,293.76 C182.06,296.51 184.94,292.12 182.06,287.72 C188.70,290.47 188.70,286.63 197.95,280.04 C202.28,282.78 209.51,278.39 215.87,280.04 218.76,292.12 Z" fill="#d8d4ce"/>
</g>
<rect x="244.5" y="224.5" width="231.0" height="211.0" rx="3" fill="#282420"/>
<clipPath id="cl6"><rect x="244.5" y="224.5" width="231.0" height="211.0" rx="3"/></clipPath>
<g clip-path="url(#cl6)">
<path d="M273.96,338.93 C271.07,351.01 264.71,352.66 257.49,348.27 C253.15,351.01 243.90,344.42 243.90,340.58 C237.26,343.33 240.15,338.93 237.26,334.54 C243.90,337.29 243.90,333.44 253.15,326.85 C257.49,329.60 264.71,325.21 271.07,326.85 273.96,338.93 Z" fill="#d8d4ce"/>
<path d="M458.76,321.07 C455.87,333.15 449.51,334.79 442.28,330.40 C437.95,333.15 428.70,326.56 428.70,322.71 C422.05,325.46 424.94,321.07 422.05,316.67 C428.70,319.42 428.70,315.58 437.95,308.99 C442.28,311.73 449.51,307.34 455.87,308.99 458.76,321.07 Z" fill="#d8d4ce"/>
</g>
<rect x="484.5" y="224.5" width="231.0" height="211.0" rx="3" fill="#282420"/>
<clipPath id="cl7"><rect x="484.5" y="224.5" width="231.0" height="211.0" rx="3"/></clipPath>
<g clip-path="url(#cl7)">
<path d="M513.96,307.80 C511.07,319.88 504.71,321.52 497.49,317.13 C493.15,319.88 483.90,313.29 483.90,309.44 C477.25,312.19 480.15,307.80 477.25,303.40 C483.90,306.15 483.90,302.30 493.15,295.72 C497.49,298.46 504.71,294.07 511.07,295.72 513.96,307.80 Z" fill="#d8d4ce"/>
<path d="M698.76,352.20 C695.87,364.28 689.51,365.93 682.28,361.54 C677.95,364.28 668.70,357.70 668.70,353.85 C662.05,356.60 664.94,352.20 662.05,347.81 C668.70,350.56 668.70,346.71 677.95,340.12 C682.28,342.87 689.51,338.48 695.87,340.12 698.76,352.20 Z" fill="#d8d4ce"/>
</g>
<rect x="724.5" y="224.5" width="231.0" height="211.0" rx="3" fill="#282420"/>
<clipPath id="cl8"><rect x="724.5" y="224.5" width="231.0" height="211.0" rx="3"/></clipPath>
<g clip-path="url(#cl8)">
<path d="M753.96,282.09 C751.07,294.17 744.71,295.82 737.49,291.43 C733.15,294.17 723.90,287.59 723.90,283.74 C717.25,286.49 720.14,282.09 717.25,277.70 C723.90,280.45 723.90,276.60 733.15,270.01 C737.49,272.76 744.71,268.37 751.07,270.01 753.96,282.09 Z" fill="#d8d4ce"/>
<path d="M938.76,377.91 C935.87,389.99 929.51,391.63 922.28,387.24 C917.95,389.99 908.70,383.40 908.70,379.55 C902.05,382.30 904.94,377.91 902.05,373.51 C908.70,376.26 908.70,372.41 917.95,365.83 C922.28,368.57 929.51,364.18 935.87,365.83 938.76,377.91 Z" fill="#d8d4ce"/>
</g>
<rect x="964.5" y="224.5" width="231.0" height="211.0" rx="3" fill="#282420"/>
<clipPath id="cl9"><rect x="964.5" y="224.5" width="231.0" height="211.0" rx="3"/></clipPath>
<g clip-path="url(#cl9)">
<path d="M993.96,268.12 C991.07,280.20 984.71,281.85 977.49,277.46 C973.15,280.20 963.90,273.61 963.90,269.77 C957.25,272.52 960.14,268.12 957.25,263.73 C963.90,266.48 963.90,262.63 973.15,256.04 C977.49,258.79 984.71,254.39 991.07,256.04 993.96,268.12 Z" fill="#d8d4ce"/>
<path d="M1178.76,391.88 C1175.87,403.96 1169.51,405.61 1162.29,401.21 C1157.95,403.96 1148.70,397.37 1148.70,393.52 C1142.06,396.27 1144.95,391.88 1142.06,387.48 C1148.70,390.23 1148.70,386.39 1157.95,379.80 C1162.29,382.54 1169.51,378.15 1175.87,379.80 1178.76,391.88 Z" fill="#d8d4ce"/>
</g>
<rect x="4.5" y="444.5" width="231.0" height="211.0" rx="3" fill="#282420"/>
<clipPath id="cl10"><rect x="4.5" y="444.5" width="231.0" height="211.0" rx="3"/></clipPath>
<g clip-path="url(#cl10)">
<path d="M33.96,489.30 C31.07,501.38 24.71,503.03 17.48,498.63 C13.15,501.38 3.90,494.79 3.90,490.95 C-2.75,493.69 0.14,489.30 -2.75,484.91 C3.90,487.65 3.90,483.81 13.15,477.22 C17.48,479.97 24.71,475.57 31.07,477.22 33.96,489.30 Z" fill="#d8d4ce"/>
<path d="M218.76,610.70 C215.87,622.78 209.51,624.43 202.28,620.03 C197.95,622.78 188.70,616.19 188.70,612.35 C182.06,615.09 184.94,610.70 182.06,606.31 C188.70,609.05 188.70,605.21 197.95,598.62 C202.28,601.37 209.51,596.97 215.87,598.62 218.76,610.70 Z" fill="#d8d4ce"/>
</g>
<rect x="244.5" y="444.5" width="231.0" height="211.0" rx="3" fill="#282420"/>
<clipPath id="cl11"><rect x="244.5" y="444.5" width="231.0" height="211.0" rx="3"/></clipPath>
<g clip-path="url(#cl11)">
<path d="M273.96,505.34 C271.07,517.42 264.71,519.07 257.49,514.67 C253.15,517.42 243.90,510.83 243.90,506.99 C237.26,509.73 240.15,505.34 237.26,500.95 C243.90,503.69 243.90,499.85 253.15,493.26 C257.49,496.00 264.71,491.61 271.07,493.26 273.96,505.34 Z" fill="#d8d4ce"/>
<path d="M458.76,594.66 C455.87,606.74 449.51,608.39 442.28,604.00 C437.95,606.74 428.70,600.15 428.70,596.31 C422.05,599.05 424.94,594.66 422.05,590.27 C428.70,593.01 428.70,589.17 437.95,582.58 C442.28,585.33 449.51,580.93 455.87,582.58 458.76,594.66 Z" fill="#d8d4ce"/>
</g>
<rect x="484.5" y="444.5" width="231.0" height="211.0" rx="3" fill="#282420"/>
<clipPath id="cl12"><rect x="484.5" y="444.5" width="231.0" height="211.0" rx="3"/></clipPath>
<g clip-path="url(#cl12)">
<path d="M513.96,532.31 C511.07,544.39 504.71,546.04 497.49,541.65 C493.15,544.39 483.90,537.80 483.90,533.96 C477.25,536.71 480.15,532.31 477.25,527.92 C483.90,530.67 483.90,526.82 493.15,520.23 C497.49,522.98 504.71,518.59 511.07,520.23 513.96,532.31 Z" fill="#d8d4ce"/>
<path d="M698.76,567.69 C695.87,579.77 689.51,581.41 682.28,577.02 C677.95,579.77 668.70,573.18 668.70,569.33 C662.05,572.08 664.94,567.69 662.05,563.29 C668.70,566.04 668.70,562.20 677.95,555.61 C682.28,558.35 689.51,553.96 695.87,555.61 698.76,567.69 Z" fill="#d8d4ce"/>
</g>
<rect x="724.5" y="444.5" width="231.0" height="211.0" rx="3" fill="#282420"/>
<clipPath id="cl13"><rect x="724.5" y="444.5" width="231.0" height="211.0" rx="3"/></clipPath>
<g clip-path="url(#cl13)">
<path d="M753.96,563.62 C751.07,575.70 744.71,577.34 737.49,572.95 C733.15,575.70 723.90,569.11 723.90,565.26 C717.25,568.01 720.14,563.62 717.25,559.22 C723.90,561.97 723.90,558.13 733.15,551.54 C737.49,554.28 744.71,549.89 751.07,551.54 753.96,563.62 Z" fill="#d8d4ce"/>
<path d="M938.76,536.38 C935.87,548.46 929.51,550.11 922.28,545.72 C917.95,548.46 908.70,541.87 908.70,538.03 C902.05,540.78 904.94,536.38 902.05,531.99 C908.70,534.74 908.70,530.89 917.95,524.30 C922.28,527.05 929.51,522.66 935.87,524.30 938.76,536.38 Z" fill="#d8d4ce"/>
</g>
<rect x="964.5" y="444.5" width="231.0" height="211.0" rx="3" fill="#282420"/>
<clipPath id="cl14"><rect x="964.5" y="444.5" width="231.0" height="211.0" rx="3"/></clipPath>
<g clip-path="url(#cl14)">
<path d="M993.96,591.59 C991.07,603.67 984.71,605.31 977.49,600.92 C973.15,603.67 963.90,597.08 963.90,593.23 C957.25,595.98 960.14,591.59 957.25,587.19 C963.90,589.94 963.90,586.10 973.15,579.51 C977.49,582.25 984.71,577.86 991.07,579.51 993.96,591.59 Z" fill="#d8d4ce"/>
<path d="M1178.76,508.41 C1175.87,520.49 1169.51,522.14 1162.29,517.75 C1157.95,520.49 1148.70,513.90 1148.70,510.06 C1142.06,512.81 1144.95,508.41 1142.06,504.02 C1148.70,506.77 1148.70,502.92 1157.95,496.33 C1162.29,499.08 1169.51,494.69 1175.87,496.33 1178.76,508.41 Z" fill="#d8d4ce"/>
</g>
</svg>