<svg xmlns="http://www.w3.org/2000/svg" width="1920" height="1080" viewBox="0 0 1920 1080">
<rect width="1920" height="1080" fill="#e8d8cc"/>
<rect x="7.0" y="7.0" width="260.3" height="346.0" rx="3" fill="#7a3020"/>
<clipPath id="cl0"><rect x="7.0" y="7.0" width="260.3" height="346.0" rx="3"/></clipPath>
<g clip-path="url(#cl0)">
<path d="M101.65,126.87 C89.46,131.36 78.60,125.04 74.58,109.43 C72.06,100.83 78.78,100.73 81.72,105.77 C83.78,112.00 92.80,117.81 101.65,126.87 Z" fill="#e8d8cc"/>
<path d="M190.11,250.61 C177.14,251.30 168.63,242.05 169.40,225.95 C169.53,216.99 175.99,218.88 177.31,224.56 C177.43,231.13 184.33,239.34 190.11,250.61 Z" fill="#e8d8cc"/>
<rect x="12.0" y="12.0" width="250.3" height="336.0" rx="2" fill="none" stroke="#e8d8cc" stroke-width="1" opacity="0.4"/>
<rect x="15.0" y="15.0" width="244.3" height="330.0" rx="1" fill="none" stroke="#e8d8cc" stroke-width="0.5" opacity="0.25"/>
</g>
<rect x="281.3" y="7.0" width="260.3" height="346.0" rx="3" fill="#7a3020"/>
<clipPath id="cl1"><rect x="281.3" y="7.0" width="260.3" height="346.0" rx="3"/></clipPath>
<g clip-path="url(#cl1)">
<path d="M375.93,126.87 C363.75,131.36 352.89,125.04 348.87,109.43 C346.34,100.83 353.07,100.73 356.01,105.77 C358.06,112.00 367.09,117.81 375.93,126.87 Z" fill="#e8d8cc"/>
<path d="M464.39,250.61 C451.42,251.30 442.91,242.05 443.69,225.95 C443.82,216.99 450.27,218.88 451.59,224.56 C451.71,231.13 458.62,239.34 464.39,250.61 Z" fill="#e8d8cc"/>
<rect x="286.3" y="12.0" width="250.3" height="336.0" rx="2" fill="none" stroke="#e8d8cc" stroke-width="1" opacity="0.4"/>
<rect x="289.3" y="15.0" width="244.3" height="330.0" rx="1" fill="none" stroke="#e8d8cc" stroke-width="0.5" opacity="0.25"/>
</g>
<rect x="555.6" y="7.0" width="260.3" height="346.0" rx="3" fill="#7a3020"/>
<clipPath id="cl2"><rect x="555.6" y="7.0" width="260.3" height="346.0" rx="3"/></clipPath>
<g clip-path="url(#cl2)">
<path d="M650.22,126.87 C638.03,131.36 627.17,125.04 623.15,109.43 C620.63,100.83 627.35,100.73 630.29,105.77 C632.35,112.00 641.37,117.81 650.22,126.87 Z" fill="#e8d8cc"/>
<path d="M738.68,250.61 C725.71,251.30 717.20,242.05 717.97,225.95 C718.10,216.99 724.56,218.88 725.88,224.56 C726.00,231.13 732.90,239.34 738.68,250.61 Z" fill="#e8d8cc"/>
<rect x="560.6" y="12.0" width="250.3" height="336.0" rx="2" fill="none" stroke="#e8d8cc" stroke-width="1" opacity="0.4"/>
<rect x="563.6" y="15.0" width="244.3" height="330.0" rx="1" fill="none" stroke="#e8d8cc" stroke-width="0.5" opacity="0.25"/>
</g>
<rect x="829.9" y="7.0" width="260.3" height="346.0" rx="3" fill="#7a3020"/>
<clipPath id="cl3"><rect x="829.9" y="7.0" width="260.3" height="346.0" rx="3"/></clipPath>
<g clip-path="url(#cl3)">
<path d="M924.51,126.87 C912.32,131.36 901.46,125.04 897.44,109.43 C894.91,100.83 901.64,100.73 904.58,105.77 C906.64,112.00 915.66,117.81 924.51,126.87 Z" fill="#e8d8cc"/>
<path d="M1012.97,250.61 C999.99,251.30 991.49,242.05 992.26,225.95 C992.39,216.99 998.84,218.88 1000.16,224.56 C1000.29,231.13 1007.19,239.34 1012.97,250.61 Z" fill="#e8d8cc"/>
<rect x="834.9" y="12.0" width="250.3" height="336.0" rx="2" fill="none" stroke="#e8d8cc" stroke-width="1" opacity="0.4"/>
<rect x="837.9" y="15.0" width="244.3" height="330.0" rx="1" fill="none" stroke="#e8d8cc" stroke-width="0.5" opacity="0.25"/>
</g>
<rect x="1104.1" y="7.0" width="260.3" height="346.0" rx="3" fill="#7a3020"/>
<clipPath id="cl4"><rect x="1104.1" y="7.0" width="260.3" height="346.0" rx="3"/></clipPath>
<g clip-path="url(#cl4)">
<path d="M1198.79,126.87 C1186.60,131.36 1175.74,125.04 1171.73,109.43 C1169.20,100.83 1175.92,100.73 1178.87,105.77 C1180.92,112.00 1189.94,117.81 1198.79,126.87 Z" fill="#e8d8cc"/>
<path d="M1287.25,250.61 C1274.28,251.30 1265.77,242.05 1266.54,225.95 C1266.67,216.99 1273.13,218.88 1274.45,224.56 C1274.57,231.13 1281.47,239.34 1287.25,250.61 Z" fill="#e8d8cc"/>
<rect x="1109.1" y="12.0" width="250.3" height="336.0" rx="2" fill="none" stroke="#e8d8cc" stroke-width="1" opacity="0.4"/>
<rect x="1112.1" y="15.0" width="244.3" height="330.0" rx="1" fill="none" stroke="#e8d8cc" stroke-width="0.5" opacity="0.25"/>
</g>
<rect x="1378.4" y="7.0" width="260.3" height="346.0" rx="3" fill="#7a3020"/>
<clipPath id="cl5"><rect x="1378.4" y="7.0" width="260.3" height="346.0" rx="3"/></clipPath>
<g clip-path="url(#cl5)">
<path d="M1473.08,126.87 C1460.89,131.36 1450.03,125.04 1446.01,109.43 C1443.48,100.83 1450.21,100.73 1453.15,105.77 C1455.21,112.00 1464.23,117.81 1473.08,126.87 Z" fill="#e8d8cc"/>
<path d="M1561.54,250.61 C1548.56,251.30 1540.06,242.05 1540.83,225.95 C1540.96,216.99 1547.41,218.88 1548.74,224.56 C1548.86,231.13 1555.76,239.34 1561.54,250.61 Z" fill="#e8d8cc"/>
<rect x="1383.4" y="12.0" width="250.3" height="336.0" rx="2" fill="none" stroke="#e8d8cc" stroke-width="1" opacity="0.4"/>
<rect x="1386.4" y="15.0" width="244.3" height="330.0" rx="1" fill="none" stroke="#e8d8cc" stroke-width="0.5" opacity="0.25"/>
</g>
<rect x="1652.7" y="7.0" width="260.3" height="346.0" rx="3" fill="#7a3020"/>
<clipPath id="cl6"><rect x="1652.7" y="7.0" width="260.3" height="346.0" rx="3"/></clipPath>
<g clip-path="url(#cl6)">
<path d="M1747.36,126.87 C1735.18,131.36 1724.31,125.04 1720.30,109.43 C1717.77,100.83 1724.50,100.73 1727.44,105.77 C1729.49,112.00 1738.51,117.81 1747.36,126.87 Z" fill="#e8d8cc"/>
<path d="M1835.82,250.61 C1822.85,251.30 1814.34,242.05 1815.12,225.95 C1815.25,216.99 1821.70,218.88 1823.02,224.56 C1823.14,231.13 1830.04,239.34 1835.82,250.61 Z" fill="#e8d8cc"/>
<rect x="1657.7" y="12.0" width="250.3" height="336.0" rx="2" fill="none" stroke="#e8d8cc" stroke-width="1" opacity="0.4"/>
<rect x="1660.7" y="15.0" width="244.3" height="330.0" rx="1" fill="none" stroke="#e8d8cc" stroke-width="0.5" opacity="0.25"/>
</g>
<rect x="7.0" y="367.0" width="260.3" height="346.0" rx="3" fill="#7a3020"/>
<clipPath id="cl7"><rect x="7.0" y="367.0" width="260.3" height="346.0" rx="3"/></clipPath>
<g clip-path="url(#cl7)">
<path d="M101.65,486.87 C89.46,491.36 78.60,485.04 74.58,469.43 C72.06,460.83 78.78,460.73 81.72,465.77 C83.78,472.00 92.80,477.81 101.65,486.87 Z" fill="#e8d8cc"/>
<path d="M190.11,610.61 C177.14,611.30 168.63,602.05 169.40,585.95 C169.53,576.99 175.99,578.88 177.31,584.56 C177.43,591.13 184.33,599.34 190.11,610.61 Z" fill="#e8d8cc"/>
<rect x="12.0" y="372.0" width="250.3" height="336.0" rx="2" fill="none" stroke="#e8d8cc" stroke-width="1" opacity="0.4"/>
<rect x="15.0" y="375.0" width="244.3" height="330.0" rx="1" fill="none" stroke="#e8d8cc" stroke-width="0.5" opacity="0.25"/>
</g>
<rect x="281.3" y="367.0" width="260.3" height="346.0" rx="3" fill="#7a3020"/>
<clipPath id="cl8"><rect x="281.3" y="367.0" width="260.3" height="346.0" rx="3"/></clipPath>
<g clip-path="url(#cl8)">
<path d="M375.93,486.87 C363.75,491.36 352.89,485.04 348.87,469.43 C346.34,460.83 353.07,460.73 356.01,465.77 C358.06,472.00 367.09,477.81 375.93,486.87 Z" fill="#e8d8cc"/>
<path d="M464.39,610.61 C451.42,611.30 442.91,602.05 443.69,585.95 C443.82,576.99 450.27,578.88 451.59,584.56 C451.71,591.13 458.62,599.34 464.39,610.61 Z" fill="#e8d8cc"/>
<rect x="286.3" y="372.0" width="250.3" height="336.0" rx="2" fill="none" stroke="#e8d8cc" stroke-width="1" opacity="0.4"/>
<rect x="289.3" y="375.0" width="244.3" height="330.0" rx="1" fill="none" stroke="#e8d8cc" stroke-width="0.5" opacity="0.25"/>
</g>
<rect x="555.6" y="367.0" width="260.3" height="346.0" rx="3" fill="#7a3020"/>
<clipPath id="cl9"><rect x="555.6" y="367.0" width="260.3" height="346.0" rx="3"/></clipPath>
<g clip-path="url(#cl9)">
<path d="M650.22,486.87 C638.03,491.36 627.17,485.04 623.15,469.43 C620.63,460.83 627.35,460.73 630.29,465.77 C632.35,472.00 641.37,477.81 650.22,486.87 Z" fill="#e8d8cc"/>
<path d="M738.68,610.61 C725.71,611.30 717.20,602.05 717.97,585.95 C718.10,576.99 724.56,578.88 725.88,584.56 C726.00,591.13 732.90,599.34 738.68,610.61 Z" fill="#e8d8cc"/>
<rect x="560.6" y="372.0" width="250.3" height="336.0" rx="2" fill="none" stroke="#e8d8cc" stroke-width="1" opacity="0.4"/>
<rect x="563.6" y="375.0" width="244.3" height="330.0" rx="1" fill="none" stroke="#e8d8cc" stroke-width="0.5" opacity="0.25"/>
</g>
<rect x="829.9" y="367.0" width="260.3" height="346.0" rx="3" fill="#7a3020"/>
<clipPath id="cl10"><rect x="829.9" y="367.0" width="260.3" height="346.0" rx="3"/></clipPath>
<g clip-path="url(#cl10)">
<path d="M924.51,486.87 C912.32,491.36 901.46,485.04 897.44,469.43 C894.91,460.83 901.64,460.73 904.58,465.77 C906.64,472.00 915.66,477.81 924.51,486.87 Z" fill="#e8d8cc"/>
<path d="M1012.97,610.61 C999.99,611.30 991.49,602.05 992.26,585.95 C992.39,576.99 998.84,578.88 1000.16,584.56 C1000.29,591.13 1007.19,599.34 1012.97,610.61 Z" fill="#e8d8cc"/>
<rect x="834.9" y="372.0" width="250.3" height="336.0" rx="2" fill="none" stroke="#e8d8cc" stroke-width="1" opacity="0.4"/>
<rect x="837.9" y="375.0" width="244.3" height="330.0" rx="1" fill="none" stroke="#e8d8cc" stroke-width="0.5" opacity="0.25"/>
</g>
<rect x="1104.1" y="367.0" width="260.3" height="346.0" rx="3" fill="#7a3020"/>
<clipPath id="cl11"><rect x="1104.1" y="367.0" width="260.3" height="346.0" rx="3"/></clipPath>
<g clip-path="url(#cl11)">
<path d="M1198.79,486.87 C1186.60,491.36 1175.74,485.04 1171.73,469.43 C1169.20,460.83 1175.92,460.73 1178.87,465.77 C1180.92,472.00 1189.94,477.81 1198.79,486.87 Z" fill="#e8d8cc"/>
<path d="M1287.25,610.61 C1274.28,611.30 1265.77,602.05 1266.54,585.95 C1266.67,576.99 1273.13,578.88 1274.45,584.56 C1274.57,591.13 1281.47,599.34 1287.25,610.61 Z" fill="#e8d8cc"/>
<rect x="1109.1" y="372.0" width="250.3" height="336.0" rx="2" fill="none" stroke="#e8d8cc" stroke-width="1" opacity="0.4"/>
<rect x="1112.1" y="375.0" width="244.3" height="330.0" rx="1" fill="none" stroke="#e8d8cc" stroke-width="0.5" opacity="0.25"/>
</g>
<rect x="1378.4" y="367.0" width="260.3" height="346.0" rx="3" fill="#7a3020"/>
<clipPath id="cl12"><rect x="1378.4" y="367.0" width="260.3" height="346.0" rx="3"/></clipPath>
<g clip-path="url(#cl12)">
<path d="M1473.08,486.87 C1460.89,491.36 1450.03,485.04 1446.01,469.43 C1443.48,460.83 1450.21,460.73 1453.15,465.77 C1455.21,472.00 1464.23,477.81 1473.08,486.87 Z" fill="#e8d8cc"/>
<path d="M1561.54,610.61 C1548.56,611.30 1540.06,602.05 1540.83,585.95 C1540.96,576.99 1547.41,578.88 1548.74,584.56 C1548.86,591.13 1555.76,599.34 1561.54,610.61 Z" fill="#e8d8cc"/>
<rect x="1383.4" y="372.0" width="250.3" height="336.0" rx="2" fill="none" stroke="#e8d8cc" stroke-width="1" opacity="0.4"/>
<rect x="1386.4" y="375.0" width="244.3" height="330.0" rx="1" fill="none" stroke="#e8d8cc" stroke-width="0.5" opacity="0.25"/>
</g>
<rect x="1652.7" y="367.0" width="260.3" height="346.0" rx="3" fill="#7a3020"/>
<clipPath id="cl13"><rect x="1652.7" y="367.0" width="260.3" height="346.0" rx="3"/></clipPath>
<g clip-path="url(#cl13)">
<path d="M1747.36,486.87 C1735.18,491.36 1724.31,485.04 1720.30,469.43 C1717.77,460.83 1724.50,460.73 1727.44,465.77 C1729.49,472.00 1738.51,477.81 1747.36,486.87 Z" fill="#e8d8cc"/>
<path d="M1835.82,610.61 C1822.85,611.30 1814.34,602.05 1815.12,585.95 C1815.25,576.99 1821.70,578.88 1823.02,584.56 C1823.14,591.13 1830.04,599.34 1835.82,610.61 Z" fill="#e8d8cc"/>
<rect x="1657.7" y="372.0" width="250.3" height="336.0" rx="2" fill="none" stroke="#e8d8cc" stroke-width="1" opacity="0.4"/>
<rect x="1660.7" y="375.0" width="244.3" height="330.0" rx="1" fill="none" stroke="#e8d8cc" stroke-width="0.5" opacity="0.25"/>
</g>
<rect x="7.0" y="727.0" width="260.3" height="346.0" rx="3" fill="#7a3020"/>
<clipPath id="cl14"><rect x="7.0" y="727.0" width="260.3" height="346.0" rx="3"/></clipPath>
<g clip-path="url(#cl14)">
<path d="M101.65,846.87 C89.46,851.36 78.60,845.04 74.58,829.43 C72.06,820.83 78.78,820.73 81.72,825.77 C83.78,832.00 92.80,837.81 101.65,846.87 Z" fill="#e8d8cc"/>
<path d="M190.11,970.61 C177.14,971.30 168.63,962.05 169.40,945.95 C169.53,936.99 175.99,938.88 177.31,944.56 C177.43,951.13 184.33,959.34 190.11,970.61 Z" fill="#e8d8cc"/>
<rect x="12.0" y="732.0" width="250.3" height="336.0" rx="2" fill="none" stroke="#e8d8cc" stroke-width="1" opacity="0.4"/>
<rect x="15.0" y="735.0" width="244.3" height="330.0" rx="1" fill="none" stroke="#e8d8cc" stroke-width="0.5" opacity="0.25"/>
</g>
<rect x="281.3" y="727.0" width="260.3" height="346.0" rx="3" fill="#7a3020"/>
<clipPath id="cl15"><rect x="281.3" y="727.0" width="260.3" height="346.0" rx="3"/></clipPath>
<g clip-path="url(#cl15)">
<path d="M375.93,846.87 C363.75,851.36 352.89,845.04 348.87,829.43 C346.34,820.83 353.07,820.73 356.01,825.77 C358.06,832.00 367.09,837.81 375.93,846.87 Z" fill="#e8d8cc"/>
<path d="M464.39,970.61 C451.42,971.30 442.91,962.05 443.69,945.95 C443.82,936.99 450.27,938.88 451.59,944.56 C451.71,951.13 458.62,959.34 464.39,970.61 Z" fill="#e8d8cc"/>
<rect x="286.3" y="732.0" width="250.3" height="336.0" rx="2" fill="none" stroke="#e8d8cc" stroke-width="1" opacity="0.4"/>
<rect x="289.3" y="735.0" width="244.3" height="330.0" rx="1" fill="none" stroke="#e8d8cc" stroke-width="0.5" opacity="0.25"/>
</g>
<rect x="555.6" y="727.0" width="260.3" height="346.0" rx="3" fill="#7a3020"/>
<clipPath id="cl16"><rect x="555.6" y="727.0" width="260.3" height="346.0" rx="3"/></clipPath>
<g clip-path="url(#cl16)">
<path d="M650.22,846.87 C638.03,851.36 627.17,845.04 623.15,829.43 C620.63,820.83 627.35,820.73 630.29,825.77 C632.35,832.00 641.37,837.81 650.22,846.87 Z" fill="#e8d8cc"/>
<path d="M738.68,970.61 C725.71,971.30 717.20,962.05 717.97,945.95 C718.10,936.99 724.56,938.88 725.88,944.56 C726.00,951.13 732.90,959.34 738.68,970.61 Z" fill="#e8d8cc"/>
<rect x="560.6" y="732.0" width="250.3" height="336.0" rx="2" fill="none" stroke="#e8d8cc" stroke-width="1" opacity="0.4"/>
<rect x="563.6" y="735.0" width="244.3" height="330.0" rx="1" fill="none" stroke="#e8d8cc" stroke-width="0.5" opacity="0.25"/>
</g>
<rect x="829.9" y="727.0" width="260.3" height="346.0" rx="3" fill="#7a3020"/>
<clipPath id="cl17"><rect x="829.9" y="727.0" width="260.3" height="346.0" rx="3"/></clipPath>
<g clip-path="url(#cl17)">
<path d="M924.51,846.87 C912.32,851.36 901.46,845.04 897.44,829.43 C894.91,820.83 901.64,820.73 904.58,825.77 C906.64,832.00 915.66,837.81 924.51,846.87 Z" fill="#e8d8cc"/>
<path d="M1012.97,970.61 C999.99,971.30 991.49,962.05 992.26,945.95 C992.39,936.99 998.84,938.88 1000.16,944.56 C1000.29,951.13 1007.19,959.34 1012.97,970.61 Z" fill="#e8d8cc"/>
<rect x="834.9" y="732.0" width="250.3" height="336.0" rx="2" fill="none" stroke="#e8d8cc" stroke-width="1" opacity="0.4"/>
<rect x="837.9" y="735.0" width="244.3" height="330.0" rx="1" fill="none" stroke="#e8d8cc" stroke-width="0.5" opacity="0.25"/>
</g>
<rect x="1104.1" y="727.0" width="260.3" height="346.0" rx="3" fill="#7a3020"/>
<clipPath id="cl18"><rect x="1104.1" y="727.0" width="260.3" height="346.0" rx="3"/></clipPath>
<g clip-path="url(#cl18)">
<path d="M1198.79,846.87 C1186.60,851.36 1175.74,845.04 1171.73,829.43 C1169.20,820.83 1175.92,820.73 1178.87,825.77 C1180.92,832.00 1189.94,837.81 1198.79,846.87 Z" fill="#e8d8cc"/>
<path d="M1287.25,970.61 C1274.28,971.30 1265.77,962.05 1266.54,945.95 C1266.67,936.99 1273.13,938.88 1274.45,944.56 C1274.57,951.13 1281.47,959.34 1287.25,970.61 Z" fill="#e8d8cc"/>
<rect x="1109.1" y="732.0" width="250.3" height="336.0" rx="2" fill="none" stroke="#e8d8cc" stroke-width="1" opacity="0.4"/>
<rect x="1112.1" y="735.0" width="244.3" height="330.0" rx="1" fill="none" stroke="#e8d8cc" stroke-width="0.5" opacity="0.25"/>
</g>
<rect x="1378.4" y="727.0" width="260.3" height="346.0" rx="3" fill="#7a3020"/>
<clipPath id="cl19"><rect x="1378.4" y="727.0" width="260.3" height="346.0" rx="3"/></clipPath>
<g clip-path="url(#cl19)">
<path d="M1473.08,846.87 C1460.89,851.36 1450.03,845.04 1446.01,829.43 C1443.48,820.83 1450.21,820.73 1453.15,825.77 C1455.21,832.00 1464.23,837.81 1473.08,846.87 Z" fill="#e8d8cc"/>
<path d="M1561.54,970.61 C1548.56,971.30 1540.06,962.05 1540.83,945.95 C1540.96,936.99 1547.41,938.88 1548.74,944.56 C1548.86,951.13 1555.76,959.34 1561.54,970.61 Z" fill="#e8d8cc"/>
<rect x="1383.4" y="732.0" width="250.3" height="336.0" rx="2" fill="none" stroke="#e8d8cc" stroke-width="1" opacity="0.4"/>
<rect x="1386.4" y="735.0" width="244.3" height="330.0" rx="1" fill="none" stroke="#e8d8cc" stroke-width="0.5" opacity="0.25"/>
</g>
<rect x="1652.7" y="727.0" width="260.3" height="346.0" rx="3" fill="#7a3020"/>
<clipPath id="cl20"><rect x="1652.7" y="727.0" width="260.3" height="346.0" rx="3"/></clipPath>
<g clip-path="url(#cl20)">
<path d="M1747.36,846.87 C1735.18,851.36 1724.31,845.04 1720.30,829.43 C1717.77,820.83 1724.50,820.73 1727.44,825.77 C1729.49,832.00 1738.51,837.81 1747.36,846.87 Z" fill="#e8d8cc"/>
<path d="M1835.82,970.61 C1822.85,971.30 1814.34,962.05 1815.12,945.95 C1815.25,936.99 1821.70,938.88 1823.02,944.56 C1823.14,951.13 1830.04,959.34 1835.82,970.61 Z" fill="#e8d8cc"/>
<rect x="1657.7" y="732.0" width="250.3" height="336.0" rx="2" fill="none" stroke="#e8d8cc" stroke-width="1" opacity="0.4"/>
<rect x="1660.7" y="735.0" width="244.3" height="330.0" rx="1" fill="none" stroke="#e8d8cc" stroke-width="0.5" opacity="0.25"/>
</g>
</svg>