<svg xmlns="http://www.w3.org/2000/svg" width="2400" height="1350" viewBox="0 0 2400 1350">
<rect width="2400" height="1350" fill="#d8d4ce"/>
<rect x="7.0" y="7.0" width="786.0" height="661.0" rx="3" fill="#282420"/>
<clipPath id="cl0"><rect x="7.0" y="7.0" width="786.0" height="661.0" rx="3"/></clipPath>
<g clip-path="url(#cl0)">
<path d="M355.30,242.69 C376.70,277.74 367.20,328.14 314.58,368.45 C366.32,351.42 368.31,304.98 310.71,345.82 C305.08,406.18 285.12,406.73 287.76,392.29 C274.92,395.01 287.76,392.29 269.92,382.88 C259.49,393.20 248.68,376.42 295.33,337.71 C296.54,267.10 259.32,294.96 274.46,347.28 C278.04,281.09 314.29,244.80 355.30,242.69 Z" fill="#d8d4ce"/>
<path d="M366.12,230.78 C404.44,238.77 433.26,278.26 426.94,341.12 C448.86,294.06 417.89,262.37 408.69,329.05 C446.95,372.34 434.31,386.57 425.99,375.32 C419.51,386.01 425.99,375.32 407.82,381.57 C408.19,395.56 389.47,392.11 393.01,334.44 C344.74,287.53 339.82,331.56 386.05,355.18 C342.39,309.51 340.83,260.65 366.12,230.78 Z" fill="#d8d4ce"/>
<path d="M501.10,443.31 C458.30,460.68 404.10,440.94 368.96,375.20 C378.42,435.71 429.60,446.40 394.78,375.02 C328.82,357.76 331.85,335.52 347.40,341.07 C346.71,326.33 347.40,341.07 361.09,323.00 C351.54,309.53 372.13,300.60 406.59,359.43 C484.73,373.65 460.60,327.27 399.77,334.53 C472.58,350.57 506.24,397.42 501.10,443.31 Z" fill="#d8d4ce"/>
<path d="M442.51,388.16 C458.53,423.31 443.96,469.30 390.26,500.99 C440.50,490.94 447.62,447.80 389.20,479.42 C377.11,535.15 358.41,533.41 362.51,520.22 C350.21,521.31 362.51,520.22 346.92,509.41 C336.00,517.87 327.81,500.98 375.75,470.10 C384.87,404.30 346.97,426.11 355.18,476.68 C366.02,415.27 403.97,385.49 442.51,388.16 Z" fill="#d8d4ce"/>
</g>
<rect x="807.0" y="7.0" width="786.0" height="661.0" rx="3" fill="#282420"/>
<clipPath id="cl1"><rect x="807.0" y="7.0" width="786.0" height="661.0" rx="3"/></clipPath>
<g clip-path="url(#cl1)">
<path d="M1156.90,328.36 C1184.00,297.96 1234.57,292.47 1287.97,330.80 C1256.92,286.60 1212.26,298.08 1267.61,341.00 C1326.52,328.97 1332.79,347.75 1318.32,349.41 C1324.61,360.81 1318.32,349.41 1314.53,369.04 C1327.33,375.97 1314.51,391.06 1264.34,357.93 C1196.97,377.11 1234.13,404.41 1279.43,374.98 C1215.58,390.64 1170.70,366.68 1156.90,328.36 Z" fill="#d8d4ce"/>
<path d="M1203.79,267.62 C1159.04,285.27 1102.78,264.16 1066.85,195.32 C1076.09,258.45 1129.29,270.11 1093.75,195.40 C1025.22,176.75 1028.60,153.61 1044.74,159.56 C1044.18,144.19 1044.74,159.56 1059.19,140.87 C1049.37,126.75 1070.92,117.65 1106.21,179.28 C1187.45,194.89 1162.79,146.33 1099.36,153.27 C1175.03,170.73 1209.61,219.87 1203.79,267.62 Z" fill="#d8d4ce"/>
<path d="M1172.36,292.16 C1196.53,253.70 1251.13,238.29 1316.98,270.56 C1274.63,227.70 1227.64,248.60 1296.47,285.54 C1359.03,261.39 1369.41,280.89 1353.80,285.39 C1362.82,296.77 1353.80,285.39 1353.26,307.69 C1368.63,312.94 1357.33,331.91 1296.01,304.77 C1225.47,338.35 1271.40,361.49 1315.76,320.73 C1248.44,349.78 1194.64,331.75 1172.36,292.16 Z" fill="#d8d4ce"/>
<path d="M1226.88,414.86 C1225.64,453.95 1191.76,489.14 1128.80,493.78 C1178.90,507.22 1204.73,471.27 1137.52,473.73 C1101.52,518.87 1085.34,508.89 1094.98,498.76 C1083.33,494.23 1094.98,498.76 1085.69,481.95 C1071.98,484.73 1072.14,465.72 1129.51,459.23 C1167.34,403.62 1123.15,406.38 1107.89,455.96 C1145.30,405.11 1193.12,395.13 1226.88,414.86 Z" fill="#d8d4ce"/>
</g>
<rect x="1607.0" y="7.0" width="786.0" height="661.0" rx="3" fill="#282420"/>
<clipPath id="cl2"><rect x="1607.0" y="7.0" width="786.0" height="661.0" rx="3"/></clipPath>
<g clip-path="url(#cl2)">
<path d="M2011.33,423.92 C1974.68,406.95 1954.90,360.54 1975.92,298.81 C1942.91,341.01 1966.65,380.09 1991.45,315.20 C1963.08,262.76 1979.10,251.40 1984.83,264.65 C1993.85,255.41 1984.83,264.65 2004.56,262.61 C2007.46,248.46 2025.47,256.28 2008.47,313.44 C2046.06,371.85 2061.28,328.73 2020.30,294.21 C2053.54,350.30 2043.72,399.79 2011.33,423.92 Z" fill="#d8d4ce"/>
<path d="M1976.33,253.91 C1998.57,222.36 2045.59,211.72 2100.01,242.06 C2066.00,203.79 2025.19,219.42 2081.94,253.85 C2136.11,236.16 2144.04,253.17 2130.60,256.29 C2137.74,266.35 2130.60,256.29 2129.14,275.19 C2141.95,280.34 2131.50,295.93 2080.69,270.15 C2019.33,295.48 2057.26,317.17 2096.74,284.57 C2038.31,306.21 1993.47,288.50 1976.33,253.91 Z" fill="#d8d4ce"/>
<path d="M1927.76,328.58 C1930.58,373.16 1895.88,416.84 1824.80,428.94 C1883.22,438.79 1908.69,395.11 1832.55,405.20 C1796.51,460.42 1777.03,450.83 1786.89,438.27 C1773.15,434.38 1786.89,438.27 1774.50,420.17 C1759.22,424.81 1757.34,403.18 1821.86,389.59 C1858.84,322.26 1808.90,330.19 1796.93,388.21 C1833.95,326.34 1887.23,309.81 1927.76,328.58 Z" fill="#d8d4ce"/>
<path d="M2007.73,258.69 C1989.05,293.59 1942.51,310.30 1883.31,286.23 C1922.72,320.93 1962.31,299.91 1900.22,271.96 C1847.30,296.75 1837.09,280.42 1850.39,275.56 C1841.85,266.22 1850.39,275.56 1849.51,256.14 C1835.83,252.51 1844.51,235.33 1899.46,255.21 C1958.76,221.75 1917.43,204.41 1881.32,242.54 C1938.10,213.20 1985.96,225.62 2007.73,258.69 Z" fill="#d8d4ce"/>
</g>
<rect x="407.0" y="682.0" width="786.0" height="661.0" rx="3" fill="#282420"/>
<clipPath id="cl3"><rect x="407.0" y="682.0" width="786.0" height="661.0" rx="3"/></clipPath>
<g clip-path="url(#cl3)">
<path d="M776.88,984.67 C746.50,1018.54 689.98,1024.50 630.45,981.47 C664.99,1030.97 714.92,1018.30 653.23,970.16 C587.37,983.39 580.44,962.38 596.61,960.58 C589.63,947.82 596.61,960.58 600.92,938.66 C586.64,930.87 601.02,914.06 656.95,951.25 C732.28,930.07 690.87,899.43 640.15,932.15 C711.55,914.89 761.59,941.81 776.88,984.67 Z" fill="#d8d4ce"/>
<path d="M809.74,1037.33 C771.82,1022.77 748.86,977.53 765.79,914.18 C735.51,958.74 761.96,996.36 782.48,929.58 C750.48,878.86 765.79,866.39 772.44,879.30 C780.86,869.42 772.44,879.30 792.10,875.92 C794.05,861.53 812.65,868.17 799.44,926.66 C841.09,982.75 853.45,938.45 810.02,906.57 C847.15,960.62 840.62,1010.94 809.74,1037.33 Z" fill="#d8d4ce"/>
<path d="M860.44,1016.36 C845.79,1060.54 795.23,1089.23 721.83,1073.22 C774.44,1105.51 816.09,1073.23 738.57,1053.30 C682.22,1092.62 667.13,1075.76 681.56,1067.46 C669.80,1058.35 681.56,1067.46 676.64,1045.15 C660.07,1043.68 666.68,1022.04 734.33,1034.05 C796.30,983.40 744.95,971.60 710.77,1023.00 C770.65,977.64 828.59,982.43 860.44,1016.36 Z" fill="#d8d4ce"/>
<path d="M713.31,988.75 C704.90,1036.36 657.25,1073.45 579.39,1068.04 C638.32,1093.31 676.27,1053.87 593.60,1045.04 C541.60,1093.93 523.55,1078.87 537.13,1068.18 C523.68,1060.58 537.13,1068.18 528.72,1045.98 C511.46,1046.96 515.00,1023.72 586.34,1025.90 C642.42,964.51 587.87,960.11 560.47,1018.09 C615.20,962.45 675.47,958.66 713.31,988.75 Z" fill="#d8d4ce"/>
</g>
<rect x="1207.0" y="682.0" width="786.0" height="661.0" rx="3" fill="#282420"/>
<clipPath id="cl4"><rect x="1207.0" y="682.0" width="786.0" height="661.0" rx="3"/></clipPath>
<g clip-path="url(#cl4)">
<path d="M1583.59,1028.24 C1624.52,1047.34 1646.46,1099.31 1622.74,1168.26 C1659.80,1121.19 1633.39,1077.41 1605.43,1149.88 C1636.97,1208.62 1619.02,1221.26 1612.65,1206.42 C1602.54,1216.73 1612.65,1206.42 1590.58,1208.64 C1587.29,1224.45 1567.18,1215.64 1586.40,1151.79 C1544.57,1086.34 1527.40,1134.50 1573.09,1173.25 C1536.12,1110.41 1547.28,1055.11 1583.59,1028.24 Z" fill="#d8d4ce"/>
<path d="M1600.59,1001.18 C1649.04,990.61 1702.80,1021.38 1727.99,1097.36 C1729.01,1031.60 1676.81,1010.96 1700.64,1092.84 C1767.28,1123.13 1760.02,1146.12 1744.58,1137.41 C1742.62,1153.13 1744.58,1137.41 1726.79,1154.03 C1734.45,1170.02 1711.02,1175.72 1685.29,1107.18 C1605.20,1077.88 1622.28,1131.36 1687.96,1134.78 C1613.85,1104.52 1586.78,1048.81 1600.59,1001.18 Z" fill="#d8d4ce"/>
<path d="M1534.90,1087.70 C1521.19,1044.01 1545.05,992.05 1612.84,962.62 C1552.28,967.10 1537.60,1016.81 1610.94,988.14 C1633.30,924.36 1655.04,929.14 1648.29,944.05 C1662.92,944.57 1648.29,944.05 1665.05,959.04 C1679.12,950.68 1686.29,971.76 1625.39,1001.07 C1605.05,1077.13 1652.82,1057.02 1650.54,996.34 C1628.83,1066.98 1579.83,1096.47 1534.90,1087.70 Z" fill="#d8d4ce"/>
<path d="M1713.25,1020.09 C1684.30,1059.41 1624.55,1071.63 1556.51,1031.85 C1598.53,1081.13 1650.55,1062.43 1579.67,1017.40 C1510.70,1038.36 1501.11,1016.64 1518.19,1013.05 C1509.42,1000.14 1518.19,1013.05 1520.53,989.18 C1504.47,982.34 1518.08,962.89 1581.68,996.82 C1659.95,966.39 1612.54,937.96 1561.76,978.16 C1636.23,952.32 1692.47,975.89 1713.25,1020.09 Z" fill="#d8d4ce"/>
</g>
<rect x="2007.0" y="682.0" width="786.0" height="661.0" rx="3" fill="#282420"/>
<clipPath id="cl5"><rect x="2007.0" y="682.0" width="786.0" height="661.0" rx="3"/></clipPath>
<g clip-path="url(#cl5)">
<path d="M2396.58,946.01 C2402.94,901.63 2445.98,865.82 2518.30,868.48 C2462.92,846.84 2428.94,884.54 2505.83,890.22 C2552.54,843.34 2569.72,856.75 2557.46,867.08 C2570.16,873.71 2557.46,867.08 2565.92,887.40 C2581.89,885.96 2579.31,907.61 2513.13,907.75 C2463.01,966.34 2513.70,968.77 2537.35,914.21 C2488.30,967.42 2432.56,972.76 2396.58,946.01 Z" fill="#d8d4ce"/>
<path d="M2449.53,1027.40 C2421.49,1056.04 2371.52,1059.12 2320.78,1018.97 C2349.28,1063.85 2393.71,1054.62 2341.26,1009.89 C2282.80,1019.01 2277.50,1000.25 2291.80,999.29 C2286.15,987.80 2291.80,999.29 2296.44,980.16 C2284.17,972.76 2297.46,958.52 2345.26,993.39 C2412.37,977.64 2377.10,949.09 2331.21,975.94 C2394.70,963.48 2437.72,989.10 2449.53,1027.40 Z" fill="#d8d4ce"/>
<path d="M2486.33,911.02 C2522.38,937.99 2533.22,993.18 2496.04,1055.63 C2541.79,1017.24 2524.92,969.14 2482.89,1034.17 C2501.71,1097.92 2481.61,1106.60 2478.42,1090.82 C2466.46,1098.82 2478.42,1090.82 2456.43,1088.49 C2450.01,1103.25 2432.18,1090.56 2463.92,1032.16 C2436.43,959.77 2409.87,1003.28 2446.57,1050.40 C2423.29,981.54 2445.43,929.85 2486.33,911.02 Z" fill="#d8d4ce"/>
<path d="M2487.92,1051.13 C2444.11,1073.76 2384.56,1058.05 2340.79,991.56 C2356.75,1054.99 2412.20,1061.37 2368.23,988.87 C2296.42,976.93 2297.47,952.99 2314.55,957.38 C2312.38,941.77 2314.55,957.38 2327.35,936.83 C2315.88,923.44 2336.91,911.94 2379.27,971.14 C2463.74,978.66 2433.57,931.69 2369.60,945.33 C2448.57,955.30 2488.92,1001.83 2487.92,1051.13 Z" fill="#d8d4ce"/>
</g>
</svg>